SplineFontDB: 3.0
FontName: BackOutPrint
FullName: BackOutPrint
FamilyName: BackOutPrint
Weight: Medium
Copyright: Created by Frank ADEBIAYE with FontForge 2.0 (http://fontforge.sf.net)
UComments: "2012-5-1: Created." 
Version: 001.000
ItalicAngle: 0
UnderlinePosition: -200
UnderlineWidth: 100
Ascent: 800
Descent: 200
LayerCount: 2
Layer: 0 0 "Back"  1
Layer: 1 0 "Fore"  0
XUID: [1021 32 261939104 16001093]
FSType: 0
OS2Version: 0
OS2_WeightWidthSlopeOnly: 0
OS2_UseTypoMetrics: 1
CreationTime: 1335868678
ModificationTime: 1335888698
PfmFamily: 17
TTFWeight: 500
TTFWidth: 5
LineGap: 0
VLineGap: 180
OS2TypoAscent: 0
OS2TypoAOffset: 1
OS2TypoDescent: 0
OS2TypoDOffset: 1
OS2TypoLinegap: 0
OS2WinAscent: 0
OS2WinAOffset: 1
OS2WinDescent: 0
OS2WinDOffset: 1
HheadAscent: -300
HheadAOffset: 1
HheadDescent: -200
HheadDOffset: 1
OS2Vendor: 'PfEd'
Lookup: 1 0 0 "aaltAccessAllAlternatesinLatinl"  {"aaltAccessAllAlternatesinLatinl subtable"  } ['aalt' ('latn' <'dflt' > ) ]
Lookup: 1 0 0 "caltContextualAlternates"  {"caltContextualAlternates subtable"  } ['calt' ('latn' <'dflt' > ) ]
Lookup: 4 0 0 "dligDiscretionaryLigatures"  {"dligDiscretionaryLigatures subtable"  } ['dlig' ('latn' <'dflt' > ) ]
Lookup: 1 0 0 "aaltAccessAllAlternatesinLatinl-0"  {"aaltAccessAllAlternatesinLatinl-0 subtable"  } ['aalt' ('latn' <'dflt' > ) ]
Lookup: 1 0 0 "caltContextualAlternates-0"  {"caltContextualAlternates-0 subtable"  } ['calt' ('latn' <'dflt' > ) ]
Lookup: 4 0 0 "dligDiscretionaryLigatures-0"  {"dligDiscretionaryLigatures-0 subtable"  } ['dlig' ('latn' <'dflt' > ) ]
Lookup: 258 0 0 "'kern' Horizontal Kerning in Latin lookup 0"  {"'kern' Horizontal Kerning in Latin lookup 0-1" [150,15,0] } ['kern' ('DFLT' <'dflt' > 'latn' <'dflt' > ) ]
MarkAttachClasses: 1
DEI: 91125

StartChar: slash
Encoding: 47 47 0
Width: 576
VWidth: 0
Flags: W
HStem: 0 21G<42 191.144> 0 21G<42 191.144> 842 20G<429.809 534>
LayerCount: 2
Fore
SplineSet
438 862 m 5xa0
 534 862 l 5
 183 0 l 5
 42 0 l 5
 189 254 l 5
 438 862 l 5xa0
438 862 m 4
EndSplineSet
Validated: 1
EndChar

StartChar: A
Encoding: 65 65 1
Width: 972
VWidth: 0
Flags: W
HStem: 0 21G<42 191.138 826.793 930> 0 21G<42 191.138 826.793 930> 290 85<336 681> 842 20G<429.776 588.121>
LayerCount: 2
Fore
SplineSet
438 862 m 5xb0
 580 862 l 5
 930 0 l 5
 835 0 l 5
 716 290 l 5
 301 290 l 5
 183 0 l 5
 42 0 l 5
 188 254 l 5
 438 862 l 5xb0
494 765 m 5
 336 375 l 5
 681 375 l 5
 585 608 l 5
 494 765 l 5
494 765 m 4
EndSplineSet
Validated: 1
EndChar

StartChar: B
Encoding: 66 66 2
Width: 456
VWidth: 0
Flags: W
HStem: 0 76<145 281.288> 388 77<145 261.949> 787 79<145 259.586>
VStem: 65 80<143.304 388 465 724.087>
LayerCount: 2
Fore
SplineSet
42 866 m 1
 215 866 l 2
 419 864 446 555 326 434 c 1
 462 331 444 2 236 0 c 2
 42 0 l 1
 65 206 l 1
 65 662 l 1
 42 866 l 1
145 787 m 1
 145 465 l 1
 244 465 l 1
 281 502 306 560 306 626 c 0
 306 692 280 750 243 787 c 1
 145 787 l 1
264 388 m 1
 145 388 l 1
 145 76 l 1
 264 76 l 1
 300 112 324 168 324 232 c 0
 324 296 300 352 264 388 c 1
264 388 m 0
EndSplineSet
Validated: 33
EndChar

StartChar: C
Encoding: 67 67 3
Width: 516
VWidth: 0
Flags: W
HStem: -4 91<286.184 464> 776 88<276.072 464>
LayerCount: 2
Fore
SplineSet
365 864 m 6
 474 863 l 5
 464 776 l 5
 295 776 l 5
 212 697 157 572 157 432 c 4
 157 291 212 166 296 87 c 5
 464 87 l 5
 474 0 l 5
 365 -4 l 5
 -86 0 -44 864 365 864 c 6
365 864 m 4
EndSplineSet
Validated: 33
EndChar

StartChar: D
Encoding: 68 68 4
Width: 574
VWidth: 0
Flags: W
HStem: -4 91<149 287.816> 776 88<149 298.079>
VStem: 64 85<138.409 724.591>
LayerCount: 2
Fore
SplineSet
209 864 m 6
 618 864 660 0 209 -4 c 5
 42 0 l 5
 64 203 l 5
 64 660 l 5
 42 863 l 5
 209 864 l 6
149 776 m 5
 149 87 l 5
 279 87 l 5
 363 166 417 291 417 432 c 4
 417 572 363 697 280 776 c 5
 149 776 l 5
149 776 m 4
EndSplineSet
Validated: 33
EndChar

StartChar: E
Encoding: 69 69 5
Width: 370
VWidth: 0
Flags: W
HStem: 0 87<150 328> 377 109<271.364 327> 377 87<150 206.636> 776 87<150 328>
VStem: 65 85<141.217 377 464 721.783>
LayerCount: 2
Fore
SplineSet
42 863 m 5xb8
 328 863 l 5
 328 776 l 5
 150 776 l 5
 150 464 l 5xb8
 328 486 l 5
 327 377 l 5xd8
 150 377 l 5
 150 87 l 5
 328 87 l 5
 328 0 l 5
 42 0 l 5
 65 203 l 5
 65 660 l 5
 42 863 l 5xb8
42 863 m 4
EndSplineSet
Validated: 1
Substitution2: "caltContextualAlternates-0 subtable" alt.e
Substitution2: "aaltAccessAllAlternatesinLatinl-0 subtable" alt.e
EndChar

StartChar: F
Encoding: 70 70 6
Width: 368
VWidth: 0
Flags: W
HStem: 0 21G<42 149> 0 21G<42 149> 377 109<269.364 326> 377 87<149 204.636> 776 87<148 326>
VStem: 42 107<0 64.5909> 64 85<138.409 377 464 724.591>
LayerCount: 2
Fore
SplineSet
42 863 m 5x9c
 326 863 l 5
 326 776 l 5
 148 776 l 5
 148 464 l 5x9c
 326 486 l 5
 326 377 l 5x2c
 149 377 l 5x1a
 149 0 l 5
 42 0 l 5x9c
 64 203 l 5
 64 660 l 5x9a
 42 863 l 5x9c
42 863 m 4
EndSplineSet
Validated: 1
EndChar

StartChar: G
Encoding: 71 71 7
Width: 600
VWidth: 0
Flags: WO
HStem: 0 91<286.184 457> 372 109<253 310.12> 372 84<399.88 457> 781 88<276.09 548>
VStem: 457 84<91 372>
LayerCount: 2
Fore
SplineSet
365 869 m 6xb8
 558 868 l 5
 548 781 l 5
 295 781 l 5
 212 702 158 577 158 437 c 4
 158 296 212 170 296 91 c 5
 457 91 l 5
 457 372 l 5xb8
 253 372 l 5
 253 481 l 5xd8
 457 456 l 5
 541 456 l 5
 541 116 l 5
 555 0 l 5
 365 0 l 6
 -86 4 -44 869 365 869 c 6xb8
365 869 m 4
EndSplineSet
Validated: 33
EndChar

StartChar: H
Encoding: 72 72 8
Width: 464
VWidth: 0
Flags: W
HStem: 0 21G<42 148.056 314 422> 0 21G<42 148.056 314 422> 359 84<149 314> 843 20G<42 148.048 315 422>
VStem: 42 106<0 61.7826 801.217 863> 65 84<141.217 359 443 721.783> 315 107<0 61.7826 801.217 863> 315 84<141.217 359 443 721.783>
LayerCount: 2
Fore
SplineSet
42 863 m 5xb8
 148 863 l 5xb8
 149 443 l 5
 315 443 l 5xb5
 315 863 l 5
 422 863 l 5xb2
 399 660 l 5
 399 203 l 5xb1
 422 0 l 5
 314 0 l 5
 314 359 l 5
 149 359 l 5xb6
 148 0 l 5
 42 0 l 5xb8
 65 203 l 5
 65 660 l 5xb4
 42 863 l 5xb8
42 863 m 4
EndSplineSet
Validated: 1
EndChar

StartChar: I
Encoding: 73 73 9
Width: 214
VWidth: 0
Flags: W
HStem: 0 21G<42 172> 0 21G<42 172> 809 107<56 152>
VStem: 43 109<858.385 916> 56 96<809 866.615> 65 84<141.217 634.783>
LayerCount: 2
Fore
SplineSet
43 916 m 5x30
 152 916 l 5x30
 152 809 l 5
 56 809 l 5x28
 43 916 l 5x30
43 916 m 4
42 776 m 5
 172 776 l 5
 149 573 l 5
 149 203 l 5
 172 0 l 5
 42 0 l 5
 65 203 l 5
 65 573 l 5xa4
 42 776 l 5
42 776 m 4
EndSplineSet
Validated: 1
EndChar

StartChar: J
Encoding: 74 74 10
Width: 436
VWidth: 0
Flags: W
HStem: 0 87<151 287> 843 20G<287 394>
VStem: 67 84<87 400.84> 287 84<87 721.783>
LayerCount: 2
Fore
SplineSet
287 863 m 5
 394 863 l 5
 371 660 l 5
 371 0 l 5
 67 0 l 5
 67 344 l 5
 42 547 l 5
 151 547 l 5
 151 87 l 5
 287 87 l 5
 287 863 l 5
287 863 m 4
EndSplineSet
Validated: 1
EndChar

StartChar: K
Encoding: 75 75 11
Width: 530
VWidth: 0
Flags: W
HStem: 0 21G<42 171 338.833 488> 0 21G<42 171 338.833 488> 843 19G<42 171 338.833 488>
VStem: 65 83<141.217 721.783>
LayerCount: 2
Fore
SplineSet
42 863 m 5xb0
 171 863 l 5
 148 660 l 5
 148 203 l 5
 171 0 l 5
 42 0 l 5
 65 203 l 5
 65 660 l 5
 42 863 l 5xb0
42 863 m 4
488 862 m 5
 341 608 l 5
 268 431 l 5
 341 254 l 5
 488 0 l 5
 347 0 l 5
 171 431 l 5
 347 862 l 5
 488 862 l 5
488 862 m 4
EndSplineSet
Validated: 1
Substitution2: "caltContextualAlternates-0 subtable" alt.k
Substitution2: "aaltAccessAllAlternatesinLatinl-0 subtable" alt.k
Substitution2: "caltContextualAlternates subtable" alt.k
Substitution2: "aaltAccessAllAlternatesinLatinl subtable" alt.k
EndChar

StartChar: L
Encoding: 76 76 12
Width: 426
VWidth: 0
Flags: W
HStem: 0 84<145 380> 842 20G<46 130>
VStem: 47 83<148 862>
LayerCount: 2
Fore
SplineSet
46 862 m 5
 130 862 l 5
 130 204 l 5
 145 84 l 5
 380 84 l 5
 380 0 l 5
 47 0 l 5
 46 862 l 5
46 862 m 4
EndSplineSet
Validated: 1
EndChar

StartChar: M
Encoding: 77 77 13
Width: 692
VWidth: 0
Flags: W
HStem: 0 20G<42 148 544 650> 0 20G<42 148 544 650> 843 20G<544 650>
VStem: 42 106<0 61.7826 858 864> 65 83<141.217 623> 544 106<-1 61.087 857 863> 544 83<140.913 622>
LayerCount: 2
Fore
SplineSet
42 864 m 5xb0
 148 864 l 5
 148 858 l 5
 346 376 l 5
 544 857 l 5
 544 863 l 5
 650 863 l 5xb4
 627 660 l 5
 627 203 l 5xa2
 650 -1 l 5
 544 -1 l 5xa4
 544 622 l 5
 395 257 l 5
 297 257 l 5
 148 623 l 5xaa
 148 0 l 5
 42 0 l 5xb0
 65 203 l 5
 65 661 l 5xa8
 42 864 l 5xb0
42 864 m 4
EndSplineSet
Validated: 1
EndChar

StartChar: N
Encoding: 78 78 14
Width: 586
VWidth: 0
Flags: W
HStem: -1 21G<42 148 394.827 544> -1 21G<42 148 394.827 544>
VStem: 65 83<141.217 623> 437 83<185 722.783>
LayerCount: 2
Fore
SplineSet
437 864 m 5xb0
 543 864 l 5
 520 661 l 5
 520 203 l 5
 544 -1 l 5
 403 -1 l 5
 148 623 l 5
 148 0 l 5
 42 0 l 5
 65 203 l 5
 65 660 l 5
 42 864 l 5
 148 864 l 5
 397 253 l 5
 437 185 l 5
 437 864 l 5xb0
437 864 m 4
EndSplineSet
Validated: 1
Substitution2: "caltContextualAlternates-0 subtable" alt.n
Substitution2: "aaltAccessAllAlternatesinLatinl-0 subtable" alt.n
EndChar

StartChar: O
Encoding: 79 79 15
Width: 782
VWidth: 0
Flags: W
HStem: 0 91<286.184 495.816> 781 88<275.921 506.079>
LayerCount: 2
Fore
SplineSet
365 869 m 6
 417 869 l 6
 826 869 868 4 417 0 c 6
 365 0 l 6
 -86 4 -44 869 365 869 c 6
488 781 m 5
 294 781 l 5
 211 702 157 577 157 437 c 4
 157 296 212 170 296 91 c 5
 486 91 l 5
 570 170 625 296 625 437 c 4
 625 577 571 702 488 781 c 5
488 781 m 4
EndSplineSet
Validated: 33
EndChar

StartChar: P
Encoding: 80 80 16
Width: 530
VWidth: 0
Flags: W
HStem: 0 21G<42 171> 0 21G<42 171> 188 92<150 295.897> 773 90<161 291.283>
VStem: 65 84<280 721.783>
LayerCount: 2
Fore
SplineSet
42 863 m 5xb8
 234 863 l 6
 558 863 588 191 234 188 c 6
 233 188 l 5
 150 191 l 5
 171 0 l 5
 42 0 l 5
 65 203 l 5
 65 660 l 5
 42 863 l 5xb8
161 773 m 5
 149 660 l 5
 149 280 l 5
 281 280 l 5
 340 337 378 426 378 527 c 4
 378 627 339 716 281 773 c 5
 161 773 l 5
161 773 m 4
EndSplineSet
Validated: 33
Substitution2: "caltContextualAlternates-0 subtable" alt.p
Substitution2: "aaltAccessAllAlternatesinLatinl-0 subtable" alt.p
EndChar

StartChar: R
Encoding: 82 82 17
Width: 540
VWidth: 0
Flags: W
HStem: 0 21G<42 148 348.859 498> 0 21G<42 148 348.859 498> 398 76<148 195> 786 78<148 288.418>
VStem: 65 83<141.217 398 474 722.783>
LayerCount: 2
Fore
SplineSet
42 864 m 5xb8
 248 864 l 6
 478 862 476 456 290 403 c 5
 351 255 l 5
 498 0 l 5
 357 0 l 5
 195 398 l 5
 148 398 l 5
 148 0 l 5
 42 0 l 5
 65 203 l 5
 65 661 l 5
 42 864 l 5xb8
148 786 m 5
 148 474 l 5
 276 474 l 5
 312 510 336 566 336 630 c 4
 336 694 311 750 275 786 c 5
 148 786 l 5
148 786 m 4
EndSplineSet
Validated: 33
Substitution2: "caltContextualAlternates-0 subtable" alt.r
Substitution2: "aaltAccessAllAlternatesinLatinl-0 subtable" alt.r
EndChar

StartChar: S
Encoding: 83 83 18
Width: 500
VWidth: 0
Flags: W
HStem: 0 83<70 317.155> 387 86<192.813 319.923> 784 86<186.12 398>
LayerCount: 2
Fore
SplineSet
228 870 m 6
 407 869 l 5
 398 784 l 5
 201 784 l 5
 166 748 142 692 142 629 c 4
 142 565 165 509 201 473 c 5
 276 473 l 6
 527 471 509 -1 276 -1 c 6
 60 0 l 5
 70 83 l 5
 302 83 l 5
 336 118 360 173 360 235 c 4
 360 297 337 352 302 387 c 5
 227 387 l 6
 -29 390 -9 870 228 870 c 6
228 870 m 4
EndSplineSet
Validated: 33
Substitution2: "caltContextualAlternates-0 subtable" alt.s
Substitution2: "aaltAccessAllAlternatesinLatinl-0 subtable" alt.s
EndChar

StartChar: T
Encoding: 84 84 19
Width: 642
VWidth: 0
Flags: W
HStem: 0 21G<266 350> 0 21G<266 350> 778 84<188.16 266 365 600>
VStem: 266 84<0 714>
LayerCount: 2
Fore
SplineSet
42 862 m 5xb0
 600 862 l 5
 600 778 l 5
 365 778 l 5
 350 658 l 5
 350 0 l 5
 266 0 l 5
 266 778 l 5
 245 778 l 5
 42 753 l 5
 42 862 l 5xb0
42 862 m 4
EndSplineSet
Validated: 1
EndChar

StartChar: U
Encoding: 85 85 20
Width: 436
VWidth: 0
Flags: W
HStem: 0 87<149 285> 843 20G<42 149 285 394>
VStem: 65 84<87 721.783> 285 84<87 716.84>
LayerCount: 2
Fore
SplineSet
42 863 m 5
 149 863 l 5
 149 87 l 5
 285 87 l 5
 285 863 l 5
 394 863 l 5
 369 660 l 5
 369 0 l 5
 65 0 l 5
 65 660 l 5
 42 863 l 5
42 863 m 4
EndSplineSet
Validated: 1
EndChar

StartChar: Q
Encoding: 81 81 21
Width: 558
VWidth: 0
Flags: W
HStem: 0 87<149 260 360 365> 776 87<149 365>
VStem: 65 84<141.217 721.783> 365 85<138.409 724.591>
LayerCount: 2
Fore
SplineSet
42 863 m 5
 472 863 l 5
 450 660 l 5
 450 203 l 5
 472 0 l 5
 360 0 l 5
 369 -22 l 5
 516 -277 l 5
 375 -277 l 5
 260 0 l 5
 42 0 l 5
 65 203 l 5
 65 660 l 5
 42 863 l 5
149 776 m 5
 149 87 l 5
 258 87 l 5
 324 87 l 5
 365 87 l 5
 365 776 l 5
 149 776 l 5
149 776 m 4
EndSplineSet
Validated: 1
EndChar

StartChar: V
Encoding: 86 86 22
Width: 972
VWidth: 0
Flags: W
HStem: 0 21G<429.776 588.121> 0 21G<429.776 588.121> 842 20G<42 191.131 826.776 930>
LayerCount: 2
Fore
SplineSet
438 0 m 5xa0
 188 608 l 5
 42 862 l 5
 183 862 l 5
 494 97 l 5
 585 254 l 5
 835 862 l 5
 930 862 l 5
 580 0 l 5
 438 0 l 5xa0
438 0 m 4
EndSplineSet
Validated: 1
EndChar

StartChar: W
Encoding: 87 87 23
Width: 1348
VWidth: 0
Flags: W
HStem: 0 21G<430.776 588.112 805.748 963.144> 0 21G<430.776 588.112 805.748 963.144> 842 20G<42 191.157 417 566.142 826.799 931 1201.81 1306>
LayerCount: 2
Fore
SplineSet
42 862 m 5xa0
 183 862 l 5
 495 97 l 5
 586 254 l 5
 647 405 l 5
 564 608 l 5
 417 862 l 5
 558 862 l 5
 696 523 l 5
 835 862 l 5
 931 862 l 5
 745 404 l 5
 870 97 l 5
 961 254 l 5
 1210 862 l 5
 1306 862 l 5
 955 0 l 5
 814 0 l 5
 696 286 l 5
 580 0 l 5
 439 0 l 5
 189 608 l 5
 42 862 l 5xa0
42 862 m 4
EndSplineSet
Validated: 1
EndChar

StartChar: X
Encoding: 88 88 24
Width: 576
VWidth: 0
Flags: W
HStem: 0 21G<42 191.141 429.795 534> 0 21G<42 191.141 429.795 534> 842 20G<42 191.141 429.795 534>
LayerCount: 2
Fore
SplineSet
42 862 m 5xa0
 183 862 l 5
 310 550 l 5
 438 862 l 5
 534 862 l 5
 359 431 l 5
 534 0 l 5
 438 0 l 5
 310 312 l 5
 183 0 l 5
 42 0 l 5
 189 254 l 5
 261 431 l 5
 189 608 l 5
 42 862 l 5xa0
42 862 m 4
EndSplineSet
Validated: 1
EndChar

StartChar: Y
Encoding: 89 89 25
Width: 576
VWidth: 0
Flags: W
HStem: 0 21G<42 191.144> 0 21G<42 191.144> 842 20G<42 191.141 429.795 534>
LayerCount: 2
Fore
SplineSet
42 862 m 5xa0
 183 862 l 5
 310 550 l 5
 438 862 l 5
 534 862 l 5
 183 0 l 5
 42 0 l 5
 189 254 l 5
 261 431 l 5
 189 608 l 5
 42 862 l 5xa0
42 862 m 4
EndSplineSet
Validated: 1
Substitution2: "caltContextualAlternates-0 subtable" alt.y
Substitution2: "aaltAccessAllAlternatesinLatinl-0 subtable" alt.y
EndChar

StartChar: Z
Encoding: 90 90 26
Width: 594
VWidth: 0
Flags: W
HStem: 0 84<232 552> 778 84<42 418>
LayerCount: 2
Fore
SplineSet
42 862 m 5
 548 862 l 5
 232 84 l 5
 552 84 l 5
 552 0 l 5
 56 0 l 5
 203 254 l 5
 418 778 l 5
 42 778 l 5
 42 862 l 5
42 862 m 4
EndSplineSet
Validated: 1
EndChar

StartChar: a
Encoding: 97 97 27
Width: 790
VWidth: 0
Flags: W
HStem: 0 21G<42 185.165 641.835 748> 0 21G<42 185.165 641.835 748> 218 87<301 525> 650 20G<343.793 483.149> 650 20G<343.793 483.149>
LayerCount: 2
Fore
SplineSet
352 670 m 5xb0
 475 670 l 5
 748 0 l 5
 650 0 l 5
 561 218 l 5
 266 218 l 5
 177 0 l 5
 42 0 l 5
 162 207 l 5
 352 670 l 5xb0
405 558 m 5
 301 305 l 5
 525 305 l 5
 460 463 l 5
 405 558 l 5
405 558 m 4
EndSplineSet
Validated: 1
EndChar

StartChar: b
Encoding: 98 98 28
Width: 388
VWidth: 0
Flags: W
HStem: 0 81<144 231.797> 291 82<144 217.073> 590 84<144 214.152>
VStem: 61 83<106.105 291 373 568.526>
LayerCount: 2
Fore
SplineSet
42 674 m 5
 185 674 l 6
 256 672 315 612 330 535 c 4
 343 466 327 389 285 339 c 5
 334 295 353 216 343 145 c 4
 332 69 289 7 201 0 c 6
 42 0 l 5
 61 168 l 5
 61 507 l 5
 42 674 l 5
144 590 m 5
 144 373 l 5
 201 373 l 5
 225 399 241 437 241 481 c 4
 241 526 224 564 200 590 c 5
 144 590 l 5
216 291 m 5
 144 291 l 5
 144 81 l 5
 216 81 l 5
 239 106 255 143 255 186 c 4
 255 229 239 266 216 291 c 5
216 291 m 4
EndSplineSet
Validated: 33
EndChar

StartChar: c
Encoding: 99 99 29
Width: 432
VWidth: 0
Flags: W
HStem: -4 93<234.103 380> 582 90<238.717 380>
LayerCount: 2
Fore
SplineSet
296 672 m 6
 390 671 l 5
 380 582 l 5
 248 582 l 5
 190 525 152 436 152 336 c 4
 152 235 190 146 249 89 c 5
 380 89 l 5
 390 0 l 5
 296 -4 l 5
 -58 -1 -28 672 296 672 c 6
296 672 m 4
EndSplineSet
Validated: 37
EndChar

StartChar: d
Encoding: 100 100 30
Width: 478
VWidth: 0
Flags: W
HStem: -4 93<148 243.886> 582 90<148 238.294>
VStem: 61 87<103.579 567.421>
LayerCount: 2
Fore
SplineSet
181 672 m 6
 505 672 536 -1 182 -4 c 6
 181 -4 l 5
 42 0 l 5
 61 164 l 5
 61 507 l 5
 42 671 l 5
 181 672 l 6
148 582 m 5
 148 89 l 5
 228 89 l 5
 286 146 325 235 325 336 c 4
 325 436 287 525 229 582 c 5
 148 582 l 5
148 582 m 4
EndSplineSet
Validated: 33
EndChar

StartChar: e
Encoding: 101 101 31
Width: 326
VWidth: 0
Flags: W
HStem: 0 89<149 283> 283 107<224.375 282> 283 91<149 207.625> 582 89<149 283>
VStem: 62 87<104.842 283 374 566.789>
LayerCount: 2
Fore
SplineSet
43 671 m 5xb8
 283 671 l 5
 283 582 l 5
 149 582 l 5
 149 374 l 5xb8
 283 390 l 5
 282 283 l 5xd8
 149 283 l 5
 149 89 l 5
 283 89 l 5
 283 0 l 5
 43 0 l 5
 62 166 l 5
 62 506 l 5
 43 671 l 5xb8
43 671 m 4
EndSplineSet
Validated: 1
EndChar

StartChar: f
Encoding: 102 102 32
Width: 324
VWidth: 0
Flags: W
HStem: 0 21G<42 148> 0 21G<42 148> 283 107<223.375 281> 283 91<148 206.625> 582 89<148 282>
VStem: 42 106<0 61.1579> 61 87<104.842 283 374 566.789>
LayerCount: 2
Fore
SplineSet
42 671 m 5x9c
 282 671 l 5
 282 582 l 5
 148 582 l 5
 148 374 l 5x9a
 282 390 l 5
 281 283 l 5x2a
 148 283 l 5x1a
 148 0 l 5
 42 0 l 5x9c
 61 166 l 5
 61 506 l 5x9a
 42 671 l 5x9c
42 671 m 4x0c
EndSplineSet
Validated: 1
EndChar

StartChar: g
Encoding: 103 103 33
Width: 434
VWidth: 0
Flags: W
HStem: 0 93<234.103 293> 279 89<231 293> 586 90<238.717 381>
VStem: 231 149<279 368> 293 87<93 279>
LayerCount: 2
Fore
SplineSet
296 676 m 6xe8
 391 675 l 5
 381 586 l 5
 249 586 l 5
 191 529 152 440 152 340 c 4
 152 239 191 150 249 93 c 5
 293 93 l 5
 293 279 l 5xe8
 231 279 l 5
 231 368 l 5
 380 368 l 5xf0
 380 100 l 5
 392 0 l 5
 296 0 l 6
 -58 3 -28 676 296 676 c 6xe8
296 676 m 4
EndSplineSet
Validated: 37
EndChar

StartChar: h
Encoding: 104 104 34
Width: 396
VWidth: 0
Flags: W
HStem: 0 21G<42 147 247 354> 0 21G<42 147 247 354> 269 87<147 248> 651 20G<42 147 248 354> 651 20G<42 147 248 354>
VStem: 42 105<0 60.7895 610.579 671> 61 86<104.211 269 356 567.421> 248 106<0 61.1579 610.211 671> 248 87<104.842 269 356 566.789>
LayerCount: 2
Fore
SplineSet
42 671 m 5xb4
 147 671 l 5xb4
 147 356 l 5
 248 356 l 5xb280
 248 671 l 5
 354 671 l 5xb1
 335 506 l 5
 335 166 l 5xb080
 354 0 l 5xb1
 247 0 l 5
 248 269 l 5
 147 269 l 5xb280
 147 0 l 5
 42 0 l 5xb4
 61 165 l 5
 61 507 l 5xb2
 42 671 l 5xb4
42 671 m 4
EndSplineSet
Validated: 1
EndChar

StartChar: i
Encoding: 105 105 35
Width: 210
VWidth: 0
Flags: W
HStem: 0 21G<43 167> 0 21G<43 167> 607 104<56 151>
VStem: 44 107<650.333 711> 62 86<104.842 484.158 607 647.444>
LayerCount: 2
Fore
SplineSet
43 589 m 5xa8
 167 589 l 5
 148 425 l 5
 148 164 l 5
 167 0 l 5
 43 0 l 5
 62 166 l 5
 62 423 l 5
 43 589 l 5xa8
43 589 m 4
44 711 m 5x30
 151 711 l 5
 151 607 l 5
 56 607 l 5
 44 711 l 5x30
44 711 m 4
EndSplineSet
Validated: 1
EndChar

StartChar: j
Encoding: 106 106 36
Width: 376
VWidth: 0
Flags: W
HStem: 0 89<150 228> 651 20G<228 334> 651 20G<228 334>
VStem: 63 87<89 324.667> 228 87<89 566.789>
LayerCount: 2
Fore
SplineSet
228 671 m 5xd8
 334 671 l 5
 315 506 l 5
 315 0 l 5
 63 0 l 5
 63 270 l 5
 42 434 l 5
 150 434 l 5
 150 89 l 5
 228 89 l 5
 228 671 l 5xd8
228 671 m 4
EndSplineSet
Validated: 1
EndChar

StartChar: k
Encoding: 107 107 37
Width: 478
VWidth: 0
Flags: W
HStem: 0 21G<42 166 292.821 436> 0 21G<42 166 292.821 436> 651 19G<42 166 292.821 436> 651 19G<42 166 292.821 436>
VStem: 61 86<104.842 566.158>
LayerCount: 2
Fore
SplineSet
42 671 m 5x88
 166 671 l 5
 147 505 l 5
 147 166 l 5
 166 0 l 5
 42 0 l 5
 61 166 l 5
 61 505 l 5
 42 671 l 5x88
301 670 m 5xa8
 436 670 l 5
 315 461 l 5
 263 335 l 5
 315 208 l 5
 436 0 l 5
 301 0 l 5
 164 335 l 5
 301 670 l 5xa8
301 670 m 4
EndSplineSet
Validated: 1
EndChar

StartChar: l
Encoding: 108 108 38
Width: 366
VWidth: 0
Flags: W
HStem: 0 87<143 320> 651 20G<46 133> 651 20G<46 133>
VStem: 46 87<110.7 671>
LayerCount: 2
Fore
SplineSet
46 671 m 5xd0
 133 671 l 5
 133 166 l 5
 143 87 l 5
 320 87 l 5
 320 0 l 5
 46 0 l 5
 46 671 l 5xd0
46 671 m 4
EndSplineSet
Validated: 1
EndChar

StartChar: m
Encoding: 109 109 39
Width: 568
VWidth: 0
Flags: W
HStem: 0 20G<43 148 420 525> 0 20G<43 148 420 525> 652 20G<43 155.861 412.116 525> 652 20G<43 155.861 412.116 525>
VStem: 61 87<101.444 418> 420 87<99.8333 418>
LayerCount: 2
Fore
SplineSet
43 672 m 5xac
 148 672 l 5
 284 326 l 5
 420 671 l 5
 525 671 l 5
 507 507 l 5
 507 164 l 5
 525 -1 l 5
 420 -1 l 5
 420 418 l 5
 329 193 l 5
 239 193 l 5
 148 418 l 5
 148 0 l 5
 43 0 l 5
 61 166 l 5
 61 506 l 5
 43 672 l 5xac
43 672 m 4
EndSplineSet
Validated: 1
EndChar

StartChar: n
Encoding: 110 110 40
Width: 488
VWidth: 0
Flags: W
HStem: -1 21G<42 147 309.838 446> -1 21G<42 147 309.838 446> 652 20G<42 151.147 339 445> 652 20G<42 151.147 339 445>
VStem: 61 86<104.842 418> 339 87<179 567.158>
LayerCount: 2
Fore
SplineSet
339 672 m 5xac
 445 672 l 5
 426 506 l 5
 426 166 l 5
 446 -1 l 5
 318 -1 l 5
 147 418 l 5
 147 0 l 5
 42 0 l 5
 61 166 l 5
 61 506 l 5
 42 672 l 5
 143 672 l 5
 332 208 l 5
 339 179 l 5
 339 672 l 5xac
339 672 m 4
EndSplineSet
Validated: 1
EndChar

StartChar: o
Encoding: 111 111 41
Width: 434
VWidth: 0
Flags: W
HStem: 0 89<148 286> 582 89<148 286>
VStem: 61 87<104.211 567.421> 286 87<104.842 566.789>
LayerCount: 2
Fore
SplineSet
42 671 m 5
 392 671 l 5
 373 506 l 5
 373 166 l 5
 392 0 l 5
 42 0 l 5
 61 165 l 5
 61 507 l 5
 42 671 l 5
148 582 m 5
 148 89 l 5
 286 89 l 5
 286 582 l 5
 148 582 l 5
148 582 m 4
EndSplineSet
Validated: 1
EndChar

StartChar: p
Encoding: 112 112 42
Width: 444
VWidth: 0
Flags: W
HStem: 0 21G<42 166> 0 21G<42 166> 142 92<150 237.519> 580 91<156 244.78>
VStem: 61 87<234 566.789>
LayerCount: 2
Fore
SplineSet
42 671 m 5xb8
 199 671 l 6
 458 671 481 145 200 142 c 6
 150 142 l 5
 166 0 l 5
 42 0 l 5
 61 166 l 5
 61 506 l 5
 42 671 l 5xb8
156 580 m 5
 148 506 l 5
 148 234 l 5
 229 234 l 5
 269 274 295 336 295 407 c 4
 295 477 269 540 230 580 c 5
 156 580 l 5
156 580 m 4
EndSplineSet
Validated: 33
EndChar

StartChar: q
Encoding: 113 113 43
Width: 474
VWidth: 0
Flags: W
HStem: 0 89<148 211> 582 89<148 286>
VStem: 60 88<100.833 570.778> 286 87<104.842 566.789>
LayerCount: 2
Fore
SplineSet
42 671 m 5
 392 671 l 5
 373 506 l 5
 373 166 l 5
 392 0 l 5
 312 0 l 5
 432 -207 l 5
 297 -207 l 5
 211 0 l 5
 42 0 l 5
 60 165 l 5
 60 507 l 5
 42 671 l 5
148 582 m 5
 148 89 l 5
 286 89 l 5
 286 582 l 5
 148 582 l 5
148 582 m 4
EndSplineSet
Validated: 1
EndChar

StartChar: r
Encoding: 114 114 44
Width: 456
VWidth: 0
Flags: W
HStem: 0 21G<42 142 264 414> 0 21G<42 142 264 414> 299 75<142 170.511> 590 77<142 240.375>
VStem: 42 100<0 60.0526> 61 81<102.947 299 374 588.055> 264 86<398.216 564.741>
LayerCount: 2
Fore
SplineSet
42 667 m 5xba
 208 667 l 6
 254 667 289 645 312 614 c 4
 335 583 348 542 350 500 c 4
 352 458 344 415 326 379 c 4
 310 346 286 320 253 307 c 5
 296 203 l 5
 414 0 l 5
 284 0 l 5
 244 100 203 199 163 299 c 5
 142 299 l 5xb6
 142 0 l 5
 42 0 l 5xba
 61 163 l 5
 61 504 l 6xb6
 55 558 48 613 42 667 c 5xba
142 590 m 5
 142 374 l 5
 224 374 l 5
 248 399 264 438 264 482 c 4
 264 526 248 565 224 590 c 5
 142 590 l 5
142 590 m 4
EndSplineSet
Validated: 33
EndChar

StartChar: s
Encoding: 115 115 45
Width: 420
VWidth: 0
Flags: W
HStem: 0 86<64 255.676> 290 89<165.337 257.133> 588 88<166.916 332>
LayerCount: 2
Fore
SplineSet
193 676 m 6
 341 676 l 5
 332 588 l 5
 179 588 l 5
 157 563 141 527 141 484 c 4
 141 441 156 404 179 379 c 5
 230 379 l 6
 433 377 421 -1 230 -1 c 6
 54 0 l 5
 64 86 l 5
 243 86 l 5
 265 110 280 146 280 188 c 4
 280 230 265 266 243 290 c 5
 193 290 l 6
 -14 292 -1 676 193 676 c 6
193 676 m 4
EndSplineSet
Validated: 37
EndChar

StartChar: t
Encoding: 116 116 46
Width: 526
VWidth: 0
Flags: W
HStem: 0 21G<210 297> 0 21G<210 297> 583 87<148.6 210 307 484>
LayerCount: 2
Fore
SplineSet
42 670 m 5xa0
 484 670 l 5
 484 583 l 5
 307 583 l 5
 297 504 l 5
 297 0 l 5
 210 0 l 5
 210 583 l 5
 206 583 l 5
 42 563 l 5
 42 670 l 5xa0
42 670 m 4
EndSplineSet
Validated: 1
EndChar

StartChar: u
Encoding: 117 117 47
Width: 374
VWidth: 0
Flags: W
HStem: 0 89<147 225> 651 20G<42 147 225 332> 651 20G<42 147 225 332>
VStem: 60 87<89 570.778> 225 87<89 564.4>
LayerCount: 2
Fore
SplineSet
60 0 m 5xd8
 60 507 l 5
 42 671 l 5
 147 671 l 5
 147 89 l 5
 225 89 l 5
 225 671 l 5
 332 671 l 5
 312 507 l 5
 312 0 l 5
 60 0 l 5xd8
60 0 m 4
EndSplineSet
Validated: 1
EndChar

StartChar: v
Encoding: 118 118 48
Width: 790
VWidth: 0
Flags: W
HStem: 0 21G<343.793 483.149> 0 21G<343.793 483.149> 650 20G<42 185.172 641.793 748> 650 20G<42 185.172 641.793 748>
LayerCount: 2
Fore
SplineSet
352 0 m 5xa0
 162 463 l 5
 42 670 l 5
 177 670 l 5
 405 112 l 5
 460 207 l 5
 650 670 l 5
 748 670 l 5
 475 0 l 5
 352 0 l 5xa0
352 0 m 4
EndSplineSet
Validated: 1
EndChar

StartChar: w
Encoding: 119 119 49
Width: 1070
VWidth: 0
Flags: W
HStem: 0 21G<343.775 482.103 624.795 763.149> 0 21G<343.775 482.103 624.795 763.149> 650 20G<42 185.136 323 466.12 640.795 747 921.818 1028> 650 20G<42 185.136 323 466.12 640.795 747 921.818 1028>
LayerCount: 2
Fore
SplineSet
42 670 m 5xa0
 177 670 l 5
 404 112 l 5
 460 209 l 5
 504 316 l 5
 444 462 l 5
 323 670 l 5
 458 670 l 5
 553 436 l 5
 649 670 l 5
 747 670 l 5
 602 315 l 5
 685 112 l 5
 741 208 l 5
 930 670 l 5
 1028 670 l 5
 755 0 l 5
 633 0 l 5
 553 195 l 5
 474 0 l 5
 352 0 l 5
 162 462 l 5
 42 670 l 5xa0
42 670 m 4
EndSplineSet
Validated: 1
EndChar

StartChar: x
Encoding: 120 120 50
Width: 492
VWidth: 0
Flags: W
HStem: 0 21G<42 185.131 343.776 450> 0 21G<42 185.131 343.776 450> 650 20G<42 185.131 343.776 450> 650 20G<42 185.131 343.776 450>
LayerCount: 2
Fore
SplineSet
42 670 m 5xa0
 177 670 l 5
 264 456 l 5
 352 670 l 5
 450 670 l 5
 314 335 l 5
 450 0 l 5
 352 0 l 5
 264 214 l 5
 177 0 l 5
 42 0 l 5
 162 207 l 5
 215 335 l 5
 162 463 l 5
 42 670 l 5xa0
42 670 m 4
EndSplineSet
Validated: 1
EndChar

StartChar: y
Encoding: 121 121 51
Width: 492
VWidth: 0
Flags: W
HStem: 0 21G<42 185.149> 0 21G<42 185.149> 650 20G<42 185.131 343.776 450> 650 20G<42 185.131 343.776 450>
LayerCount: 2
Fore
SplineSet
42 670 m 5xa0
 177 670 l 5
 264 456 l 5
 352 670 l 5
 450 670 l 5
 177 0 l 5
 42 0 l 5
 162 207 l 5
 215 335 l 5
 162 463 l 5
 42 670 l 5xa0
42 670 m 4
EndSplineSet
Validated: 1
EndChar

StartChar: z
Encoding: 122 122 52
Width: 494
VWidth: 0
Flags: W
HStem: 0 87<214 448> 583 87<42 318>
LayerCount: 2
Fore
SplineSet
42 670 m 5
 452 670 l 5
 214 87 l 5
 448 87 l 5
 448 0 l 5
 44 0 l 5
 164 209 l 5
 318 583 l 5
 42 583 l 5
 42 670 l 5
42 670 m 4
EndSplineSet
Validated: 1
EndChar

StartChar: zero
Encoding: 48 48 53
Width: 412
VWidth: 0
Flags: W
HStem: 0 87<131 258> 772 88<146 258>
VStem: 47 84<87 710.667> 258 84<141.217 718.087>
LayerCount: 2
Fore
SplineSet
47 0 m 5
 47 860 l 5
 365 860 l 5
 342 656 l 5
 342 203 l 5
 365 0 l 5
 47 0 l 5
258 87 m 5
 258 772 l 5
 146 772 l 5
 131 657 l 5
 131 87 l 5
 258 87 l 5
258 87 m 4
EndSplineSet
Validated: 1
EndChar

StartChar: one
Encoding: 49 49 54
Width: 218
VWidth: 0
Flags: W
HStem: 0 21G<44 174> 0 21G<44 174>
VStem: 67 84<141.217 717.087>
LayerCount: 2
Fore
SplineSet
44 859 m 5xa0
 174 859 l 5
 151 655 l 5
 151 203 l 5
 174 0 l 5
 44 0 l 5
 67 203 l 5
 67 655 l 5
 44 859 l 5xa0
44 859 m 4
EndSplineSet
Validated: 1
EndChar

StartChar: two
Encoding: 50 50 55
Width: 528
VWidth: 0
Flags: W
HStem: 0 84<174 338.84> 507 84<280 376> 698 162<134 218> 771 89<218 376>
VStem: 134 84<698 771> 376 84<655.077 776>
LayerCount: 2
Fore
SplineSet
134 860 m 5xec
 460 860 l 5
 460 710 l 5
 486 506 l 5
 280 507 l 5
 174 84 l 5
 282 84 l 5
 485 109 l 5
 485 0 l 5
 42 0 l 5
 203 591 l 5
 376 591 l 5
 376 776 l 5
 218 771 l 5xdc
 218 698 l 5
 134 698 l 5
 134 860 l 5xec
134 860 m 4xec
EndSplineSet
Validated: 1
EndChar

StartChar: three
Encoding: 51 51 56
Width: 488
VWidth: 0
Flags: W
HStem: 0 84<188.88 315> 519 84<234 303> 701 160<61 145> 774 87<145 303>
VStem: 61 84<701 774> 303 84<667.346 774>
LayerCount: 2
Fore
SplineSet
42 0 m 5xdc
 42 109 l 5
 246 84 l 5
 315 84 l 5
 205 350 l 5
 58 604 l 5
 303 603 l 5
 303 774 l 5
 145 774 l 5xdc
 145 701 l 5
 61 701 l 5
 61 861 l 5xec
 387 861 l 5
 387 722 l 5
 413 519 l 5
 234 519 l 5
 412 84 l 5
 446 0 l 5
 42 0 l 5xdc
42 0 m 4
EndSplineSet
Validated: 1
EndChar

StartChar: four
Encoding: 52 52 57
Width: 554
VWidth: 0
Flags: W
HStem: 0 21G<339 448> 0 21G<339 448> 246 85<172 364 448 512> 841 20G<284.837 434>
VStem: 339 109<0 56.84> 364 109<475.72 532> 364 84<146.16 246 331 387.28>
LayerCount: 2
Fore
SplineSet
293 861 m 5xb2
 434 861 l 5
 287 607 l 5
 172 331 l 5
 364 331 l 5xb2
 364 532 l 5
 473 532 l 5xb4
 448 331 l 5
 512 331 l 5
 512 247 l 5
 448 247 l 5xb2
 448 0 l 5
 339 0 l 5xb8
 364 203 l 5
 364 246 l 5
 42 246 l 5
 293 861 l 5xb2
293 861 m 4
EndSplineSet
Validated: 1
EndChar

StartChar: five
Encoding: 53 53 58
Width: 528
VWidth: 0
Flags: W
HStem: 0 160<134 218> 0 87<218 376> 267 84<280 376> 774 84<174 338.84>
VStem: 134 84<87 160> 376 84<87 202.923>
LayerCount: 2
Fore
SplineSet
134 0 m 5xbc
 134 160 l 5
 218 160 l 5xbc
 218 87 l 5
 376 87 l 5
 376 267 l 5
 203 267 l 5
 42 858 l 5
 485 858 l 5
 485 749 l 5
 282 774 l 5
 174 774 l 5
 280 351 l 5
 486 352 l 5
 460 148 l 5
 460 0 l 5x7c
 134 0 l 5xbc
134 0 m 4
EndSplineSet
Validated: 1
EndChar

StartChar: six
Encoding: 54 54 59
Width: 382
VWidth: 0
Flags: W
HStem: 0 87<154 237> 416 87<181 251> 777 87<154 332>
VStem: 70 84<141.913 722.087> 181 154<416 503> 251 84<145 416>
LayerCount: 2
Fore
SplineSet
47 864 m 5xf4
 332 864 l 5
 332 777 l 5
 154 777 l 5
 154 87 l 5
 237 87 l 5
 251 203 l 5
 251 416 l 5xf4
 181 416 l 5
 181 503 l 5
 335 503 l 5xf8
 335 0 l 5
 47 0 l 5
 70 204 l 5
 70 660 l 5
 47 864 l 5xf4
47 864 m 4
EndSplineSet
Validated: 1
EndChar

StartChar: seven
Encoding: 55 55 60
Width: 590
VWidth: 0
Flags: W
HStem: 0 21G<56 203.19> 0 21G<56 203.19> 778 84<42 418>
LayerCount: 2
Fore
SplineSet
42 862 m 5xa0
 548 862 l 5
 195 0 l 5
 56 0 l 5
 203 254 l 5
 418 778 l 5
 42 778 l 5
 42 862 l 5xa0
42 862 m 4
EndSplineSet
Validated: 1
EndChar

StartChar: eight
Encoding: 56 56 61
Width: 424
VWidth: 0
Flags: W
HStem: 0 87<198 281> 775 87<143 226>
VStem: 45 84<508 717> 113 85<139.091 421> 226 84<508 720.087> 295 84<145 420>
LayerCount: 2
Fore
SplineSet
45 862 m 5xe0
 333 862 l 5
 310 658 l 5
 310 508 l 5xe8
 379 508 l 5
 379 0 l 5
 91 0 l 5
 113 204 l 5
 113 421 l 5xd4
 45 421 l 5
 45 862 l 5xe0
143 775 m 5
 129 659 l 5
 129 508 l 5xe8
 198 508 l 5
 198 87 l 5
 281 87 l 5
 295 203 l 5
 295 420 l 5xd4
 226 420 l 5
 226 775 l 5
 143 775 l 5
143 775 m 4
EndSplineSet
Validated: 1
EndChar

StartChar: nine
Encoding: 57 57 62
Width: 382
VWidth: 0
Flags: W
HStem: 0 87<50 228> 361 87<131 201> 776 88<145 228>
VStem: 47 154<361 448> 47 84<448 718.5> 228 84<141.217 722.087>
LayerCount: 2
Fore
SplineSet
335 0 m 5xec
 50 0 l 5
 50 87 l 5
 228 87 l 5
 228 776 l 5
 145 776 l 5
 131 661 l 5
 131 448 l 5xec
 201 448 l 5
 201 361 l 5
 47 361 l 5xf4
 47 864 l 5
 335 864 l 5
 312 660 l 5
 312 203 l 5
 335 0 l 5xec
335 0 m 4
EndSplineSet
Validated: 1
EndChar

StartChar: Aacute
Encoding: 193 193 63
Width: 972
VWidth: 0
Flags: W
HStem: 0 21G<42 191.138 826.793 930> 0 21G<42 191.138 826.793 930> 290 85<336 681> 809 84<380 416> 895 20G<448.545 634>
LayerCount: 2
Fore
SplineSet
634 915 m 5xb8
 634 809 l 5
 601 809 l 5
 930 0 l 5
 835 0 l 5
 716 290 l 5
 301 290 l 5
 183 0 l 5
 42 0 l 5
 188 254 l 5
 416 809 l 5
 380 809 l 5
 380 893 l 5
 430 893 l 5
 634 915 l 5xb8
494 765 m 5
 336 375 l 5
 681 375 l 5
 585 608 l 5
 494 765 l 5
494 765 m 4
EndSplineSet
Validated: 1
EndChar

StartChar: Adieresis
Encoding: 196 196 64
Width: 972
VWidth: 0
Flags: W
HStem: 0 21G<42 191.138 826.793 930> 0 21G<42 191.138 826.793 930> 290 85<336 681> 809 106<390 416 601 627>
VStem: 376 110<862 915> 518 109<862 915>
LayerCount: 2
Fore
SplineSet
376 915 m 5xbc
 486 915 l 5
 486 862 l 5
 524 862 l 5
 518 915 l 5
 627 915 l 5
 627 809 l 5
 601 809 l 5
 930 0 l 5
 835 0 l 5
 716 290 l 5
 301 290 l 5
 183 0 l 5
 42 0 l 5
 188 254 l 5
 416 809 l 5
 390 809 l 5
 376 915 l 5xbc
494 765 m 5
 336 375 l 5
 681 375 l 5
 585 608 l 5
 494 765 l 5
494 765 m 4
EndSplineSet
Validated: 1
EndChar

StartChar: Agrave
Encoding: 192 192 65
Width: 972
VWidth: 0
Flags: W
HStem: 0 21G<42 191.138 826.793 930> 0 21G<42 191.138 826.793 930> 290 85<336 681> 809 84<601 634> 895 20G<380 564.545>
LayerCount: 2
Fore
SplineSet
380 915 m 5xb8
 583 893 l 5
 634 893 l 5
 634 809 l 5
 601 809 l 5
 930 0 l 5
 835 0 l 5
 716 290 l 5
 301 290 l 5
 183 0 l 5
 42 0 l 5
 188 254 l 5
 416 809 l 5
 380 809 l 5
 380 915 l 5xb8
494 765 m 5
 336 375 l 5
 681 375 l 5
 585 608 l 5
 494 765 l 5
494 765 m 4
EndSplineSet
Validated: 1
EndChar

StartChar: Acircumflex
Encoding: 194 194 66
Width: 972
VWidth: 0
Flags: W
HStem: 0 21G<42 191.138 826.793 930> 0 21G<42 191.138 826.793 930> 290 85<336 681> 809 106<380 418 600 634>
LayerCount: 2
Fore
SplineSet
380 915 m 5xb0
 634 915 l 5
 634 809 l 5
 600 812 l 5
 930 0 l 5
 835 0 l 5
 716 290 l 5
 301 290 l 5
 183 0 l 5
 42 0 l 5
 188 254 l 5
 418 813 l 5
 380 809 l 5
 380 915 l 5xb0
494 765 m 5
 336 375 l 5
 681 375 l 5
 585 608 l 5
 494 765 l 5
494 765 m 4
EndSplineSet
Validated: 1
EndChar

StartChar: Edieresis
Encoding: 203 203 67
Width: 370
VWidth: 0
Flags: W
HStem: 0 87<150 328> 377 109<271.364 327> 377 87<150 206.636> 776 141<150 169 208 310> 776 87<169 208 310 328>
VStem: 65 85<141.217 377 464 721.783> 66 103<863 917> 201 109<863 917> 208 102<863 917>
LayerCount: 2
Fore
SplineSet
60 917 m 5x92
 169 917 l 5x92
 169 863 l 5
 208 863 l 5x8a80
 201 917 l 5
 310 917 l 5x91
 310 863 l 5
 328 863 l 5
 328 776 l 5x89
 150 776 l 5
 150 464 l 5xb5
 328 486 l 5
 327 377 l 5xc5
 150 377 l 5
 150 87 l 5
 328 87 l 5
 328 0 l 5
 42 0 l 5
 65 203 l 5
 65 660 l 5xa5
 42 863 l 5
 66 863 l 5xaa
 60 917 l 5x92
60 917 m 4
EndSplineSet
Validated: 1
EndChar

StartChar: Eacute
Encoding: 201 201 68
Width: 370
VWidth: 0
Flags: W
HStem: 0 87<150 328> 377 109<271.364 327> 377 87<150 206.636> 895 20G<142.455 327.144>
VStem: 65 85<141.217 377 464 721.783>
LayerCount: 2
Fore
SplineSet
327 915 m 5xb8
 328 776 l 5
 150 776 l 5
 150 464 l 5xb8
 328 486 l 5
 327 377 l 5xd8
 150 377 l 5
 150 87 l 5
 328 87 l 5
 328 0 l 5
 42 0 l 5
 65 203 l 5
 65 660 l 5
 42 863 l 5
 74 863 l 5
 74 893 l 5
 124 893 l 5
 327 915 l 5xb8
327 915 m 4
EndSplineSet
Validated: 1
EndChar

StartChar: Egrave
Encoding: 200 200 69
Width: 370
VWidth: 0
Flags: W
HStem: 0 87<150 328> 377 109<270.364 327> 377 87<150 205.636> 776 117<212.409 327> 895 20G<74 258.545>
VStem: 65 84<141.217 377 464 721.783>
LayerCount: 2
Fore
SplineSet
74 915 m 5xbc
 277 893 l 5
 327 893 l 5
 327 776 l 5
 149 776 l 5
 149 464 l 5xbc
 327 486 l 5
 327 377 l 5xdc
 150 377 l 5
 150 87 l 5
 328 87 l 5
 328 0 l 5
 42 0 l 5
 65 203 l 5
 65 660 l 5
 42 863 l 5
 74 863 l 5
 74 915 l 5xbc
74 915 m 4
EndSplineSet
Validated: 1
EndChar

StartChar: Ecircumflex
Encoding: 202 202 70
Width: 370
VWidth: 0
Flags: W
HStem: 0 87<150 328> 377 109<271.364 327> 377 87<150 206.636> 776 139<150 327>
VStem: 65 85<141.217 377 464 721.783>
LayerCount: 2
Fore
SplineSet
74 915 m 5xb8
 327 915 l 5
 328 776 l 5
 150 776 l 5
 150 464 l 5xb8
 328 486 l 5
 327 377 l 5xd8
 150 377 l 5
 150 87 l 5
 328 87 l 5
 328 0 l 5
 42 0 l 5
 65 203 l 5
 65 660 l 5
 42 863 l 5
 74 863 l 5
 74 915 l 5xb8
74 915 m 4
EndSplineSet
Validated: 1
EndChar

StartChar: Oacute
Encoding: 211 211 71
Width: 514
VWidth: 0
Flags: W
HStem: 0 87<149 365> 776 117<149 244.909> 895 20G<198.545 384>
VStem: 64 85<138.409 724.591> 365 84<141.217 721.783>
LayerCount: 2
Fore
SplineSet
384 915 m 5
 384 863 l 5
 472 863 l 5
 449 660 l 5
 449 203 l 5
 472 0 l 5
 42 0 l 5
 64 203 l 5
 64 660 l 5
 42 863 l 5
 130 863 l 5
 130 893 l 5
 180 893 l 5
 384 915 l 5
149 776 m 5
 149 87 l 5
 365 87 l 5
 365 776 l 5
 149 776 l 5
149 776 m 4
EndSplineSet
Validated: 1
EndChar

StartChar: Ograve
Encoding: 210 210 72
Width: 514
VWidth: 0
Flags: W
HStem: 0 87<149 365> 776 117<269.091 365> 895 20G<130 315.455>
VStem: 65 84<141.217 721.783> 365 85<138.409 724.591>
LayerCount: 2
Fore
SplineSet
130 915 m 5
 334 893 l 5
 384 893 l 5
 384 863 l 5
 472 863 l 5
 450 660 l 5
 450 203 l 5
 472 0 l 5
 42 0 l 5
 65 203 l 5
 65 660 l 5
 42 863 l 5
 130 863 l 5
 130 915 l 5
365 776 m 5
 149 776 l 5
 149 87 l 5
 365 87 l 5
 365 776 l 5
365 776 m 4
EndSplineSet
Validated: 1
EndChar

StartChar: Ocircumflex
Encoding: 212 212 73
Width: 514
VWidth: 0
Flags: W
HStem: 0 87<149 365> 776 139<149 365>
VStem: 64 85<138.409 724.591> 365 84<141.217 721.783>
LayerCount: 2
Fore
SplineSet
130 915 m 5
 384 915 l 5
 384 863 l 5
 472 863 l 5
 449 660 l 5
 449 203 l 5
 472 0 l 5
 42 0 l 5
 64 203 l 5
 64 660 l 5
 42 863 l 5
 130 863 l 5
 130 915 l 5
149 776 m 5
 149 87 l 5
 365 87 l 5
 365 776 l 5
 149 776 l 5
149 776 m 4
EndSplineSet
Validated: 1
EndChar

StartChar: Odieresis
Encoding: 214 214 74
Width: 514
VWidth: 0
Flags: W
HStem: 0 87<149 365> 776 87<241 280>
VStem: 65 84<141.217 721.783> 138 103<863 915> 273 109<863 915> 280 102<863 915> 365 84<141.217 721.783>
LayerCount: 2
Fore
SplineSet
132 915 m 5xd0
 241 915 l 5
 241 863 l 5
 280 863 l 5xd4
 273 915 l 5
 382 915 l 5
 382 863 l 5xc8
 472 863 l 5
 449 660 l 5
 449 203 l 5
 472 0 l 5
 42 0 l 5
 65 203 l 5
 65 660 l 5xe2
 42 863 l 5
 138 863 l 5
 132 915 l 5xd0
149 776 m 5xe2
 149 87 l 5
 365 87 l 5
 365 776 l 5
 149 776 l 5xe2
149 776 m 4
EndSplineSet
Validated: 1
EndChar

StartChar: Udieresis
Encoding: 220 220 75
Width: 436
VWidth: 0
Flags: W
HStem: 0 87<149 285> 809 106<106 202 247 343>
VStem: 65 84<87 634.087> 93 109<857.923 915> 106 96<809 866.077> 234 109<857.923 915> 247 96<809 866.077> 285 84<87 629.12>
LayerCount: 2
Fore
SplineSet
93 915 m 5xd0
 202 915 l 5xd0
 202 809 l 5
 106 809 l 5xc8
 93 915 l 5xd0
234 915 m 5xc4
 343 915 l 5xc4
 343 809 l 5
 247 809 l 5xc2
 234 915 l 5xc4
42 776 m 5
 149 776 l 5
 149 87 l 5
 285 87 l 5
 285 776 l 5
 394 776 l 5
 369 572 l 5
 369 0 l 5
 65 0 l 5
 65 572 l 5xe1
 42 776 l 5
42 776 m 4
EndSplineSet
Validated: 1
EndChar

StartChar: Ucircumflex
Encoding: 219 219 76
Width: 436
VWidth: 0
Flags: W
HStem: 0 87<151 287> 809 106<91 154.5 281.5 345>
VStem: 67 84<87 629.84> 287 84<87 634.783>
LayerCount: 2
Fore
SplineSet
91 915 m 5
 345 915 l 5
 345 809 l 5
 218 823 l 5
 91 809 l 5
 91 915 l 5
42 776 m 1
 151 776 l 1
 151 87 l 1
 287 87 l 1
 287 776 l 1
 394 776 l 1
 371 573 l 1
 371 0 l 1
 67 0 l 1
 67 573 l 1
 42 776 l 1
42 776 m 0
EndSplineSet
Validated: 1
EndChar

StartChar: Uacute
Encoding: 218 218 77
Width: 436
VWidth: 0
Flags: W
HStem: 0 87<149 285> 809 106<280.409 345> 809 84<91 206.591>
VStem: 65 84<87 634.087> 285 84<87 629.12>
LayerCount: 2
Fore
SplineSet
345 915 m 5xd8
 345 809 l 5xd8
 91 809 l 5
 91 893 l 5
 142 893 l 5xb8
 345 915 l 5xd8
42 776 m 5
 149 776 l 5
 149 87 l 5
 285 87 l 5
 285 776 l 5
 394 776 l 5
 369 572 l 5
 369 0 l 5
 65 0 l 5
 65 572 l 5
 42 776 l 5
42 776 m 4
EndSplineSet
Validated: 1
EndChar

StartChar: Ugrave
Encoding: 217 217 78
Width: 436
VWidth: 0
Flags: W
HStem: 0 87<151 287> 809 106<91 155.591> 809 84<229.409 345>
VStem: 67 84<87 629.12> 287 84<87 634.087>
LayerCount: 2
Fore
SplineSet
91 915 m 5xd8
 294 893 l 5
 345 893 l 5
 345 809 l 5xb8
 91 809 l 5
 91 915 l 5xd8
42 776 m 5
 151 776 l 5
 151 87 l 5
 287 87 l 5
 287 776 l 5
 394 776 l 5
 371 572 l 5
 371 0 l 5
 67 0 l 5
 67 572 l 5
 42 776 l 5
42 776 m 4
EndSplineSet
Validated: 1
EndChar

StartChar: Iacute
Encoding: 205 205 79
Width: 338
VWidth: 0
Flags: W
HStem: 0 21G<104 234> 0 21G<104 234> 809 106<231.091 296> 809 84<42 156.909>
VStem: 127 84<141.217 634.087>
LayerCount: 2
Fore
SplineSet
296 915 m 5x28
 296 809 l 5x28
 42 809 l 5
 42 893 l 5
 92 893 l 5x18
 296 915 l 5x28
234 776 m 5
 211 572 l 5
 211 203 l 5
 234 0 l 5
 104 0 l 5x88
 127 203 l 5
 127 572 l 5
 104 776 l 5
 234 776 l 5
234 776 m 4
EndSplineSet
Validated: 1
EndChar

StartChar: Igrave
Encoding: 204 204 80
Width: 338
VWidth: 0
Flags: W
HStem: 0 21G<104 234> 0 21G<104 234> 809 106<42 106.591> 809 84<180.409 296>
VStem: 127 84<141.217 634.087>
LayerCount: 2
Fore
SplineSet
42 915 m 5x28
 245 893 l 5
 296 893 l 5
 296 809 l 5x18
 42 809 l 5
 42 915 l 5x28
104 776 m 5
 234 776 l 5
 211 572 l 5
 211 203 l 5
 234 0 l 5
 104 0 l 5x88
 127 203 l 5
 127 572 l 5
 104 776 l 5
104 776 m 4
EndSplineSet
Validated: 1
EndChar

StartChar: Icircumflex
Encoding: 206 206 81
Width: 338
VWidth: 0
Flags: W
HStem: 0 21G<104 234> 0 21G<104 234> 809 106<42 105.5 232.5 296>
VStem: 127 84<141.217 634.087>
LayerCount: 2
Fore
SplineSet
42 915 m 5x30
 296 915 l 5
 296 809 l 5
 169 823 l 5
 42 809 l 5
 42 915 l 5x30
104 776 m 5
 234 776 l 5
 211 572 l 5
 211 203 l 5
 234 0 l 5
 104 0 l 5xb0
 127 203 l 5
 127 572 l 5
 104 776 l 5
104 776 m 4
EndSplineSet
Validated: 1
EndChar

StartChar: Idieresis
Encoding: 207 207 82
Width: 334
VWidth: 0
Flags: W
HStem: 0 21G<102 232> 0 21G<102 232> 809 106<55 151 196 292>
VStem: 42 109<857.923 915> 55 96<809 866.077> 125 84<141.217 634.783> 183 109<857.923 915> 196 96<809 866.077>
LayerCount: 2
Fore
SplineSet
102 776 m 5xa4
 232 776 l 5
 209 573 l 5
 209 203 l 5
 232 0 l 5
 102 0 l 5
 125 203 l 5
 125 573 l 5
 102 776 l 5xa4
102 776 m 4
42 915 m 5x30
 151 915 l 5x30
 151 809 l 5
 55 809 l 5x28
 42 915 l 5x30
183 915 m 5x22
 292 915 l 5x22
 292 809 l 5
 196 809 l 5x21
 183 915 l 5x22
183 915 m 4
EndSplineSet
Validated: 1
EndChar

StartChar: germandbls
Encoding: 223 223 83
Width: 488
VWidth: 0
Flags: W
HStem: 0 87<178 337> 463 84<267 337> 578 89<267 335> 775 89<149 335>
VStem: 65 84<141.217 775> 178 89<547 578> 337 84<87 384.6 736.87 775>
LayerCount: 2
Fore
SplineSet
65 864 m 5
 419 864 l 5
 419 781 l 5
 444 578 l 5
 267 578 l 5
 267 547 l 5
 446 547 l 5
 421 344 l 5
 421 0 l 5
 178 0 l 5
 178 87 l 5
 337 87 l 5
 337 463 l 5
 178 463 l 5
 178 667 l 5
 335 667 l 5
 335 775 l 5
 149 775 l 5
 149 0 l 5
 42 0 l 5
 65 203 l 5
 65 864 l 5
65 864 m 4
EndSplineSet
Validated: 1
EndChar

StartChar: dollar
Encoding: 36 36 84
Width: 500
VWidth: 0
Flags: W
HStem: 0 83<70 189> 387 86<187.86 208 292 312.14> 784 85<311 398>
VStem: 208 84<109.7 387 473 757.3>
LayerCount: 2
Fore
SplineSet
185 899 m 5
 315 899 l 5
 311 869 l 5
 407 869 l 5
 398 784 l 5
 302 784 l 5
 292 695 l 5
 292 473 l 5
 514 453 506 46 311 3 c 5
 315 -32 l 5
 185 -32 l 5
 189 0 l 5
 60 0 l 5
 70 83 l 5
 198 83 l 5
 208 172 l 5
 208 388 l 5
 -14 412 -6 818 189 865 c 5
 185 899 l 5
199 782 m 5
 165 746 142 691 142 629 c 4
 142 565 165 509 201 473 c 5
 208 473 l 5
 208 695 l 5
 199 782 l 5
292 387 m 5
 292 172 l 5
 302 83 l 5
 336 118 360 173 360 235 c 4
 360 297 337 352 302 387 c 5
 292 387 l 5
292 387 m 4
EndSplineSet
Validated: 37
EndChar

StartChar: question
Encoding: 63 63 85
Width: 442
VWidth: 0
Flags: W
HStem: 0 21G<45 154> 0 21G<45 154> 512 85<152 288> 703 160<45 129> 776 87<129 288>
VStem: 45 107<0 56.84 269 330.783> 45 84<703 776> 68 84<158.87 203 427.87 512> 288 84<658.16 776>
LayerCount: 2
Fore
SplineSet
154 0 m 5xa480
 45 0 l 5
 70 203 l 5
 154 203 l 5
 154 0 l 5xa480
154 0 m 4
45 863 m 5x3280
 372 863 l 5
 372 715 l 5
 397 512 l 5
 152 512 l 5x2980
 152 269 l 5
 45 269 l 5x2c80
 68 472 l 5
 68 597 l 5x2980
 288 596 l 5
 288 776 l 5
 129 776 l 5x2a80
 129 703 l 5
 45 703 l 5
 45 863 l 5x3280
45 863 m 4x3280
EndSplineSet
Validated: 1
EndChar

StartChar: at
Encoding: 64 64 86
Width: 590
VWidth: 0
Flags: W
HStem: 0 87<298 381> 416 87<284 381 465 548> 775 87<149 381>
VStem: 65 84<141.217 775> 200 84<145 416> 381 84<141.913 416 503 720.087>
LayerCount: 2
Fore
SplineSet
65 862 m 5
 488 862 l 5
 465 658 l 5
 465 503 l 5
 548 503 l 5
 548 416 l 5
 465 416 l 5
 465 204 l 5
 488 0 l 5
 200 0 l 5
 200 503 l 5
 381 503 l 5
 381 775 l 5
 149 775 l 5
 149 0 l 5
 42 0 l 5
 65 203 l 5
 65 862 l 5
284 416 m 5
 284 203 l 5
 298 87 l 5
 381 87 l 5
 381 416 l 5
 284 416 l 5
284 416 m 4
EndSplineSet
Validated: 1
EndChar

StartChar: period
Encoding: 46 46 87
Width: 214
VWidth: 0
Flags: W
HStem: 0 203<78 162>
VStem: 52 110<0 54.6538> 78 84<148.346 203>
LayerCount: 2
Fore
SplineSet
162 0 m 5xc0
 52 0 l 5xc0
 78 203 l 5
 162 203 l 5xa0
 162 0 l 5xc0
162 0 m 4
EndSplineSet
Validated: 1
EndChar

StartChar: exclam
Encoding: 33 33 88
Width: 204
VWidth: 0
Flags: W
HStem: 0 21G<47 157> 0 21G<47 157> 842 20G<70 154>
VStem: 47 107<0 54.6538 269 330.783> 70 84<167.696 203 436.696 862>
LayerCount: 2
Fore
SplineSet
157 0 m 5xb0
 47 0 l 5
 73 203 l 5
 157 203 l 5
 157 0 l 5xb0
157 0 m 4
70 862 m 5x28
 154 862 l 5x28
 154 269 l 5
 47 269 l 5x30
 70 472 l 5
 70 862 l 5x28
70 862 m 4
EndSplineSet
Validated: 1
EndChar

StartChar: comma
Encoding: 44 44 89
Width: 296
VWidth: 0
Flags: W
HStem: -145 255
VStem: 1 248
LayerCount: 2
Fore
SplineSet
149 110 m 1
 249 109 l 1
 143 -145 l 1
 1 -145 l 1
 104 0 l 1
 149 110 l 1
149 110 m 0
EndSplineSet
Validated: 1
EndChar

StartChar: semicolon
Encoding: 59 59 90
Width: 380
VWidth: 0
Flags: W
VStem: 220 109<347.88 405> 245 84<201 258.12>
LayerCount: 2
Fore
SplineSet
329 405 m 5x80
 329 201 l 5
 245 201 l 5x40
 220 405 l 5
 329 405 l 5x80
329 405 m 4x80
236 110 m 5
 336 109 l 5
 185 -254 l 5
 44 -254 l 5
 191 0 l 5
 236 110 l 5
236 110 m 4
EndSplineSet
Validated: 1
EndChar

StartChar: colon
Encoding: 58 58 91
Width: 210
VWidth: 0
Flags: W
HStem: 0 21G<50 160> 0 21G<50 160>
VStem: 50 84<280 334.654> 76 84<148.346 203>
LayerCount: 2
Fore
SplineSet
50 483 m 5x20
 160 483 l 5x10
 134 280 l 5
 50 280 l 5
 50 483 l 5x20
50 483 m 4x20
160 0 m 5x90
 50 0 l 5xa0
 76 203 l 5
 160 203 l 5
 160 0 l 5x90
160 0 m 4x90
EndSplineSet
Validated: 1
EndChar

StartChar: equal
Encoding: 61 61 92
Width: 714
VWidth: 0
Flags: W
HStem: 0 21G<55 231.522 485.478 662> 0 21G<55 231.522 485.478 662> 23 83<196.217 520.783> 334 84<193.217 517.783>
LayerCount: 2
Fore
SplineSet
662 129 m 5xb0
 662 0 l 5
 459 23 l 5
 258 23 l 5
 55 0 l 5
 55 129 l 5
 258 106 l 5
 459 106 l 5
 662 129 l 5xb0
662 129 m 4
659 440 m 5
 659 311 l 5
 456 334 l 5
 255 334 l 5
 52 311 l 5
 52 440 l 5
 255 418 l 5
 456 418 l 5
 659 440 l 5
659 440 m 4
EndSplineSet
Validated: 1
EndChar

StartChar: numbersign
Encoding: 35 35 93
Width: 700
VWidth: 0
Flags: W
HStem: 0 21G<173 302> 0 21G<173 302> 108 83<290 410> 419 84<290 410>
VStem: 196 83<198 413> 421 83<197 413>
LayerCount: 2
Fore
SplineSet
398 610 m 5xbc
 527 610 l 5
 516 510 l 5
 652 525 l 5
 652 396 l 5
 505 413 l 5
 504 407 l 5
 504 207 l 5
 505 197 l 5
 655 214 l 5
 655 85 l 5
 516 101 l 5
 527 3 l 5
 398 3 l 5
 410 108 l 5
 290 108 l 5
 302 0 l 5
 173 0 l 5
 184 100 l 5
 48 85 l 5
 48 214 l 5
 195 198 l 5
 196 203 l 5
 196 404 l 5
 195 413 l 5
 45 396 l 5
 45 525 l 5
 184 510 l 5
 173 607 l 5
 302 607 l 5
 290 503 l 5
 410 503 l 5
 398 610 l 5xbc
281 419 m 5
 279 404 l 5
 279 203 l 5
 281 191 l 5
 419 191 l 5
 421 207 l 5
 421 407 l 5
 419 419 l 5
 281 419 l 5
281 419 m 4
EndSplineSet
Validated: 1
EndChar

StartChar: Ccedilla
Encoding: 199 199 94
Width: 516
VWidth: 0
Flags: W
HStem: -4 91<286.184 372> 776 88<276.072 464>
LayerCount: 2
Fore
SplineSet
365 864 m 6
 474 863 l 5
 464 776 l 5
 295 776 l 5
 212 697 157 572 157 432 c 4
 157 291 212 166 296 87 c 5
 409 87 l 5
 410 87 l 5
 464 87 l 5
 474 0 l 5
 473 0 l 5
 359 -277 l 5
 218 -277 l 5
 365 -22 l 5
 372 -4 l 5
 365 -4 l 5
 -86 1 -44 864 365 864 c 6
365 864 m 4
EndSplineSet
Validated: 33
EndChar

StartChar: backslash
Encoding: 92 92 95
Width: 576
VWidth: 0
Flags: W
HStem: 0 21G<429.809 534> 0 21G<429.809 534> 842 20G<42 191.144>
LayerCount: 2
Fore
SplineSet
438 0 m 5xa0
 189 608 l 5
 42 862 l 5
 183 862 l 5
 534 0 l 5
 438 0 l 5xa0
438 0 m 4
EndSplineSet
Validated: 1
EndChar

StartChar: bracketleft
Encoding: 91 91 96
Width: 308
VWidth: 0
Flags: W
HStem: 0 87<151 264> 776 87<151 264>
VStem: 67 84<141.217 721.783>
LayerCount: 2
Fore
SplineSet
44 863 m 5
 264 863 l 5
 264 776 l 5
 151 776 l 5
 151 87 l 5
 264 87 l 5
 264 0 l 5
 44 0 l 5
 67 203 l 5
 67 660 l 5
 44 863 l 5
44 863 m 4
EndSplineSet
Validated: 1
EndChar

StartChar: bracketright
Encoding: 93 93 97
Width: 308
VWidth: 0
Flags: W
HStem: 0 87<44 157> 776 87<44 157>
VStem: 157 84<141.217 721.783>
LayerCount: 2
Fore
SplineSet
264 863 m 5
 241 660 l 5
 241 203 l 5
 264 0 l 5
 44 0 l 5
 44 87 l 5
 157 87 l 5
 157 776 l 5
 44 776 l 5
 44 863 l 5
 264 863 l 5
264 863 m 4
EndSplineSet
Validated: 1
EndChar

StartChar: section
Encoding: 167 167 98
Width: 442
VWidth: 0
Flags: W
HStem: 0 160<45 129> 0 87<129 288> 239 85<152 288> 567 84<154 290> 701 160<313 397> 772 89<154 313>
VStem: 45 84<87 160> 68 84<324 408.13 725.87 772> 290 84<87 165.13 482.87 567> 313 84<701 772>
LayerCount: 2
Fore
SplineSet
70 861 m 5x76
 397 861 l 5
 397 701 l 5
 313 701 l 5x3a40
 313 772 l 5x3640
 154 772 l 5
 154 651 l 5
 374 652 l 5
 374 527 l 5x3480
 397 324 l 5
 372 121 l 5
 372 0 l 5x7440
 45 0 l 5
 45 160 l 5
 129 160 l 5xb240
 129 87 l 5x7240
 288 87 l 5
 288 240 l 5
 68 239 l 5
 68 364 l 5x71
 45 567 l 5
 70 770 l 5
 70 861 l 5x76
290 567 m 5x3180
 152 567 l 5
 152 324 l 5
 290 324 l 5
 290 567 l 5x3180
290 567 m 4
EndSplineSet
Validated: 1
EndChar

StartChar: paragraph
Encoding: 182 182 99
Width: 518
VWidth: 0
Flags: W
HStem: 0 21G<369 476> 0 21G<369 476> 841 20G<67 328 369 453>
VStem: 67 261<460.16 861> 244 107<-2 59.7826> 244 84<139.217 314> 369 84<141.217 861>
LayerCount: 2
Fore
SplineSet
453 861 m 5xa2
 453 203 l 5
 476 0 l 5
 369 0 l 5
 369 861 l 5
 453 861 l 5xa2
453 861 m 4
351 -2 m 5x2a
 244 -2 l 5x2a
 244 314 l 5x26
 42 314 l 5
 67 517 l 5
 67 861 l 5
 328 861 l 5x32
 328 201 l 5x26
 351 -2 l 5x2a
351 -2 m 4
EndSplineSet
Validated: 1
EndChar

StartChar: cent
Encoding: 162 162 100
Width: 566
VWidth: 0
Flags: W
HStem: 0 21G<289 418> 0 21G<289 418> 94 92<234.114 299 407 514> 679 90<239.706 299 407 514> 843 20G<289 418>
VStem: 311 84<186 679>
LayerCount: 2
Fore
SplineSet
289 863 m 5xbc
 418 863 l 5
 407 769 l 5
 524 768 l 5
 514 679 l 5
 397 679 l 5
 395 660 l 5
 395 203 l 5
 397 186 l 5
 514 186 l 5
 524 98 l 5
 407 96 l 5
 418 0 l 5
 289 0 l 5
 299 94 l 5
 296 94 l 6
 -58 98 -27 769 297 769 c 6
 299 769 l 5
 289 863 l 5xbc
249 679 m 5
 191 622 153 533 153 433 c 4
 153 332 192 243 250 186 c 5
 309 186 l 5
 311 203 l 5
 311 660 l 5
 309 679 l 5
 249 679 l 5
249 679 m 4
EndSplineSet
Validated: 33
EndChar

StartChar: hyphen
Encoding: 45 45 101
Width: 506
VWidth: 0
Flags: W
HStem: 356 109<50 106.84> 381 109<399.16 456> 381 84<196.16 309.84>
LayerCount: 2
Fore
SplineSet
456 490 m 5x40
 456 381 l 5x40
 253 381 l 5x20
 50 356 l 5
 50 465 l 5x80
 253 465 l 5x20
 456 490 l 5x40
456 490 m 4
EndSplineSet
Validated: 1
EndChar

StartChar: underscore
Encoding: 95 95 102
Width: 972
VWidth: 0
Flags: W
HStem: 0 84<195.913 776.087>
LayerCount: 2
Fore
SplineSet
918 106 m 5
 918 -23 l 5
 714 0 l 5
 258 0 l 5
 54 -23 l 5
 54 106 l 5
 258 84 l 5
 714 84 l 5
 918 106 l 5
918 106 m 4
EndSplineSet
Validated: 1
EndChar

StartChar: quotesingle
Encoding: 39 39 103
Width: 302
VWidth: 0
Flags: W
HStem: 646 218<155 165>
VStem: 47 208
LayerCount: 2
Fore
SplineSet
165 646 m 5
 47 646 l 5
 110 754 l 5
 155 864 l 5
 255 863 l 5
 165 646 l 5
165 646 m 4
EndSplineSet
Validated: 1
EndChar

StartChar: uni00B5
Encoding: 181 181 104
Width: 648
VWidth: 0
Flags: W
HStem: 0 87<361 497> 843 20G<254 361 497 606>
VStem: 277 84<105 721.783> 497 84<87 716.84>
LayerCount: 2
Fore
SplineSet
254 863 m 1
 361 863 l 1
 361 87 l 1
 497 87 l 1
 497 863 l 1
 606 863 l 1
 581 660 l 1
 581 0 l 1
 334 0 l 1
 183 -363 l 1
 42 -363 l 1
 189 -109 l 1
 277 105 l 1
 277 660 l 1
 254 863 l 1
254 863 m 0
EndSplineSet
Validated: 1
EndChar

StartChar: ampersand
Encoding: 38 38 105
Width: 760
VWidth: 0
Flags: W
HStem: 1 87<150 382> 360 87<150 248> 775 88<150 233> 982 84<305.16 383 482 717>
VStem: 66 84<142.217 360 447 721.087> 248 84<447 713.667> 383 99<926.467 982> 383 84<88 910.6>
LayerCount: 2
Fore
SplineSet
159 1066 m 1xfe
 717 1066 l 1
 717 982 l 1
 482 982 l 1xfe
 467 863 l 1
 466 0 l 1
 43 1 l 1
 66 204 l 1
 66 659 l 1
 43 863 l 1
 332 863 l 1
 332 360 l 1
 150 360 l 1
 150 88 l 1
 382 88 l 1
 383 860 l 1xfd
 383 982 l 1
 362 982 l 1
 159 957 l 1
 159 1066 l 1xfe
150 775 m 1
 150 447 l 1
 248 447 l 1
 248 660 l 1
 233 775 l 1
 150 775 l 1
150 775 m 0
EndSplineSet
Validated: 1
EndChar

StartChar: sterling
Encoding: 163 163 106
Width: 692
VWidth: 0
Flags: W
HStem: 0 84<278 513> 326 84<263 508.087> 776 87<263 399>
VStem: 180 83<148 319 417 776> 399 109<481 537.84> 399 84<627.16 776>
LayerCount: 2
Fore
SplineSet
179 863 m 5xf4
 483 863 l 5
 483 684 l 5xf4
 508 481 l 5
 399 481 l 5xf8
 399 776 l 5
 263 776 l 5
 263 410 l 1
 446 410 l 1
 650 432 l 1
 650 303 l 1
 446 326 l 1
 263 326 l 1
 263 204 l 1
 278 84 l 1
 513 84 l 1
 513 0 l 1
 180 0 l 1
 180 319 l 1
 42 303 l 1
 42 432 l 1
 180 417 l 1
 179 863 l 5xf4
179 863 m 4
EndSplineSet
Validated: 1
EndChar

StartChar: yen
Encoding: 165 165 107
Width: 592
VWidth: 0
Flags: W
HStem: 0 21G<244 373> 0 21G<244 373>
VStem: 267 84<255 333>
LayerCount: 2
Fore
SplineSet
42 867 m 5xa0
 183 867 l 5
 310 555 l 5
 439 867 l 5
 534 867 l 5
 364 449 l 5
 361 419 l 5
 550 440 l 5
 550 311 l 5
 351 333 l 5
 351 328 l 5
 351 255 l 5
 550 277 l 5
 550 148 l 5
 354 170 l 5
 373 0 l 5
 244 0 l 5
 263 170 l 5
 71 148 l 5
 71 277 l 5
 267 255 l 5
 267 328 l 5
 266 333 l 5
 71 311 l 5
 71 440 l 5
 257 419 l 5
 252 459 l 5
 189 613 l 5
 42 867 l 5xa0
42 867 m 4
EndSplineSet
Validated: 1
EndChar

StartChar: copyright
Encoding: 169 169 108
Width: 764
VWidth: 0
Flags: W
HStem: -186 87<149 722> 0 90<398.103 612> 583 90<402.717 545> 782 87<149 612>
VStem: 65 84<-44.7826 782> 612 84<148.32 782>
LayerCount: 2
Fore
SplineSet
65 869 m 5
 696 869 l 5
 696 206 l 5
 721 0 l 5
 460 0 l 6
 106 4 136 673 460 673 c 6
 555 673 l 5
 545 583 l 5
 413 583 l 5
 355 526 317 437 317 337 c 4
 317 236 355 147 414 90 c 5
 612 90 l 5
 612 782 l 5
 149 782 l 5
 149 -99 l 5
 722 -99 l 5
 722 -186 l 5
 42 -186 l 5
 65 17 l 5
 65 869 l 5
65 869 m 4
EndSplineSet
Validated: 33
EndChar

StartChar: registered
Encoding: 174 174 109
Width: 898
VWidth: 0
Flags: W
HStem: -187 87<149 856> -1 91<646 746> 398 75<346 395> 786 78<346 486.253> 919 87<149 746>
VStem: 65 84<-45.7826 919> 263 83<141.217 398 473 722.087> 746 84<147.32 919>
LayerCount: 2
Fore
SplineSet
65 1006 m 5
 830 1006 l 5
 830 205 l 5
 855 -1 l 5
 557 -1 l 5
 395 398 l 5
 346 398 l 5
 346 0 l 5
 240 0 l 5
 263 203 l 5
 263 660 l 5
 240 864 l 5
 446 864 l 6
 675 862 674 459 489 404 c 5
 551 254 l 5
 646 90 l 5
 746 90 l 5
 746 919 l 5
 149 919 l 5
 149 -100 l 5
 856 -100 l 5
 856 -187 l 5
 42 -187 l 5
 65 16 l 5
 65 1006 l 5
346 786 m 5
 346 473 l 5
 474 473 l 5
 510 509 534 565 534 629 c 4
 534 693 509 750 473 786 c 5
 346 786 l 5
346 786 m 4
EndSplineSet
Validated: 33
EndChar

StartChar: Thorn
Encoding: 222 222 110
Width: 438
VWidth: 0
Flags: W
HStem: 0 21G<42 172> 0 21G<42 172> 128 87<157 289> 648 87<157 289> 843 20G<42 172>
VStem: 65 84<215 648> 289 84<269.217 593.783>
LayerCount: 2
Fore
SplineSet
42 863 m 5xbe
 172 863 l 5
 157 735 l 5
 396 735 l 5
 373 532 l 5
 373 331 l 5
 396 128 l 5
 157 128 l 5
 172 0 l 5
 42 0 l 5
 65 203 l 5
 65 660 l 5
 42 863 l 5xbe
149 648 m 5
 149 215 l 5
 289 215 l 5
 289 648 l 5
 149 648 l 5
149 648 m 4
EndSplineSet
Validated: 1
EndChar

StartChar: guillemotleft
Encoding: 171 171 111
Width: 440
VWidth: 0
Flags: W
HStem: 0 21G<208.879 359> 0 21G<208.879 359> 842 20G<208.879 359>
LayerCount: 2
Fore
SplineSet
300 608 m 5x20
 398 608 l 5
 326 431 l 5
 398 255 l 5
 300 255 l 5
 228 431 l 5
 300 608 l 5x20
300 608 m 4
359 862 m 5
 212 608 l 5
 139 431 l 5
 212 254 l 5
 359 0 l 5
 217 0 l 5xa0
 42 431 l 5
 217 862 l 5
 359 862 l 5
359 862 m 4
EndSplineSet
Validated: 1
EndChar

StartChar: guillemotright
Encoding: 187 187 112
Width: 440
VWidth: 0
Flags: W
HStem: 0 21G<81 231.121> 0 21G<81 231.121> 842 20G<81 231.121>
LayerCount: 2
Fore
SplineSet
140 608 m 5x20
 212 431 l 5
 140 255 l 5
 42 255 l 5
 114 431 l 5
 42 608 l 5
 140 608 l 5x20
140 608 m 4
81 862 m 5
 223 862 l 5
 398 431 l 5
 223 0 l 5
 81 0 l 5xa0
 228 254 l 5
 301 431 l 5
 228 608 l 5
 81 862 l 5
81 862 m 4
EndSplineSet
Validated: 1
EndChar

StartChar: onehalf
Encoding: 189 189 113
Width: 676
VWidth: 0
Flags: W
HStem: 0 74<480 567.533> 349 113<424 498> 386 76<498 545> 842 20G<54 155 430.776 535>
VStem: 67 74<460 802> 424 74<349 386> 545 74<328 387>
LayerCount: 2
Fore
SplineSet
424 462 m 5xde
 619 462 l 5
 619 373 l 5
 634 253 l 5
 525 253 l 5
 480 74 l 5
 512 74 l 5
 631 89 l 5
 631 0 l 5
 373 0 l 5
 462 328 l 5
 545 328 l 5
 545 387 l 5
 498 386 l 5xbe
 498 349 l 5
 424 349 l 5
 424 462 l 5xde
424 462 m 4xde
439 862 m 5
 535 862 l 5
 184 0 l 5
 42 0 l 5
 189 254 l 5
 439 862 l 5
439 862 m 4
54 862 m 5
 155 862 l 5
 141 742 l 5
 141 520 l 5
 155 400 l 5
 54 400 l 5
 67 518 l 5
 67 744 l 5
 54 862 l 5
54 862 m 4
EndSplineSet
Validated: 1
EndChar

StartChar: threequarters
Encoding: 190 190 114
Width: 724
VWidth: 0
Flags: W
HStem: 0 21G<108 257.144 562 651> 0 21G<108 257.144 562 651> 123 74<520 576 652 682> 403 74<109.467 174> 753 112<55 129> 790 75<129 176>
VStem: 55 74<753 790> 176 74<737 790> 562 89<0 59> 576 89<243.615 298> 576 76<59 123 197 235.846>
LayerCount: 2
Fore
SplineSet
504 862 m 5xb3
 600 862 l 5
 249 0 l 5
 108 0 l 5
 255 254 l 5
 504 862 l 5xb3
504 862 m 4
546 463 m 5
 655 463 l 5
 569 313 l 5
 520 197 l 5
 576 197 l 5xb320
 576 298 l 5
 665 298 l 5xb340
 652 197 l 5xb320
 682 197 l 5
 682 123 l 5
 650 123 l 5
 651 0 l 5
 562 0 l 5xb380
 576 118 l 5
 576 123 l 5xb320
 407 123 l 5
 546 463 l 5
546 463 m 4
46 403 m 5
 46 492 l 5
 165 477 l 5
 174 477 l 5
 128 587 l 5
 42 737 l 5
 176 737 l 5
 176 790 l 5
 129 790 l 5x37
 129 753 l 5
 55 753 l 5
 55 865 l 5x3b
 250 865 l 5x37
 250 780 l 5
 265 662 l 5
 181 663 l 5
 287 403 l 5
 46 403 l 5
46 403 m 4
EndSplineSet
Validated: 1
EndChar

StartChar: onequarter
Encoding: 188 188 115
Width: 682
VWidth: 0
Flags: W
HStem: 0 21G<42 191.144 520 609> 0 21G<42 191.144 520 609> 123 74<478 534 610 640> 842 20G<54 154 429.809 534>
VStem: 67 74<455.385 806.615> 520 89<0 59> 534 89<243.615 298> 534 76<59 123 197 235.846>
LayerCount: 2
Fore
SplineSet
504 463 m 5xb9
 613 463 l 5
 527 313 l 5
 478 197 l 5
 534 197 l 5xb9
 534 298 l 5
 623 298 l 5xba
 610 197 l 5xb9
 640 197 l 5
 640 123 l 5
 608 123 l 5
 609 0 l 5
 520 0 l 5xbc
 534 118 l 5
 534 123 l 5
 365 123 l 5
 504 463 l 5xb9
504 463 m 4
438 862 m 5
 534 862 l 5
 183 0 l 5
 42 0 l 5
 189 254 l 5
 438 862 l 5
438 862 m 4
54 862 m 5
 154 862 l 5
 141 742 l 5
 141 520 l 5
 154 400 l 5
 54 400 l 5
 67 518 l 5
 67 744 l 5
 54 862 l 5
54 862 m 4
EndSplineSet
Validated: 1
EndChar

StartChar: multiply
Encoding: 215 215 116
Width: 408
VWidth: 0
Flags: W
VStem: 42 324
LayerCount: 2
Fore
SplineSet
42 643 m 5
 151 643 l 5
 204 513 l 5
 257 643 l 5
 366 643 l 5
 280 494 l 5
 246 411 l 5
 280 329 l 5
 366 180 l 5
 257 180 l 5
 204 310 l 5
 151 180 l 5
 42 180 l 5
 128 329 l 5
 162 411 l 5
 128 494 l 5
 42 643 l 5
42 643 m 4
EndSplineSet
Validated: 1
EndChar

StartChar: asterisk
Encoding: 42 42 117
Width: 548
VWidth: 0
Flags: W
HStem: 595 74<103 217 331 445>
LayerCount: 2
Fore
SplineSet
112 864 m 5
 221 864 l 5
 274 734 l 5
 327 864 l 5
 436 864 l 5
 350 715 l 5
 331 669 l 5
 385 669 l 5
 505 683 l 5
 505 582 l 5
 387 595 l 5
 331 595 l 5
 350 550 l 5
 436 401 l 5
 327 401 l 5
 274 531 l 5
 221 401 l 5
 112 401 l 5
 198 550 l 5
 217 595 l 5
 161 595 l 5
 43 582 l 5
 43 683 l 5
 163 669 l 5
 217 669 l 5
 198 715 l 5
 112 864 l 5
112 864 m 4
EndSplineSet
Validated: 1
EndChar

StartChar: quotedbl
Encoding: 34 34 118
Width: 486
VWidth: 0
Flags: W
HStem: 647 218
LayerCount: 2
Fore
SplineSet
349 647 m 5
 232 647 l 5
 294 755 l 5
 339 865 l 5
 439 864 l 5
 349 647 l 5
349 647 m 4
164 647 m 5
 47 647 l 5
 109 755 l 5
 154 864 l 5
 254 864 l 5
 164 647 l 5
164 647 m 4
EndSplineSet
Validated: 1
EndChar

StartChar: less
Encoding: 60 60 119
Width: 400
VWidth: 0
Flags: W
HStem: 0 21G<208.879 358> 0 21G<208.879 358> 842 20G<208.879 358>
VStem: 42 316
LayerCount: 2
Fore
SplineSet
358 862 m 1xb0
 212 608 l 1
 139 431 l 1
 212 254 l 1
 358 0 l 1
 217 0 l 1
 42 431 l 1
 217 862 l 1
 358 862 l 1xb0
358 862 m 0
EndSplineSet
Validated: 1
EndChar

StartChar: greater
Encoding: 62 62 120
Width: 400
VWidth: 0
Flags: W
HStem: 0 21G<42 191.121> 0 21G<42 191.121> 842 20G<42 191.121>
VStem: 42 316
LayerCount: 2
Fore
SplineSet
42 862 m 1xb0
 183 862 l 1
 358 431 l 1
 183 0 l 1
 42 0 l 1
 188 254 l 1
 261 431 l 1
 188 608 l 1
 42 862 l 1xb0
42 862 m 0
EndSplineSet
Validated: 1
EndChar

StartChar: bar
Encoding: 124 124 121
Width: 214
VWidth: 0
Flags: W
HStem: 0 21G<65.9697 172> 0 21G<65.9697 172>
VStem: 66 83<141.217 720.208>
LayerCount: 2
Fore
SplineSet
42 864 m 5xa0
 149 864 l 5
 149 203 l 5
 172 0 l 5
 66 0 l 5
 65 661 l 5
 42 864 l 5xa0
42 864 m 4
EndSplineSet
Validated: 1
EndChar

StartChar: brokenbar
Encoding: 166 166 122
Width: 214
VWidth: 0
Flags: W
HStem: 0 21G<65 172> 0 21G<65 172>
VStem: 42 106<802.217 864> 65 107<0 61.7826> 65 84<150.043 360 504 722.783>
LayerCount: 2
Fore
SplineSet
42 864 m 5x20
 148 864 l 5x20
 149 504 l 5
 65 504 l 5
 65 661 l 5x08
 42 864 l 5x20
65 360 m 5x88
 149 360 l 5
 149 203 l 5x88
 172 0 l 5
 65 0 l 5x90
 65 360 l 5x88
65 360 m 4
EndSplineSet
Validated: 1
EndChar

StartChar: AE
Encoding: 198 198 123
Width: 1164
VWidth: 0
Flags: W
HStem: 0 87<943 1121> 290 85<337 682> 377 109<1064.36 1121> 377 87<943 999.636> 776 87<943 1121>
VStem: 859 84<184 377 464 721.783>
LayerCount: 2
Fore
SplineSet
836 863 m 5xdc
 1121 863 l 5
 1121 776 l 5
 943 776 l 5
 943 464 l 5xdc
 1121 486 l 5
 1121 377 l 5xec
 943 377 l 5
 943 87 l 5
 1121 87 l 5
 1121 0 l 5
 836 0 l 5
 717 290 l 5
 302 290 l 5
 184 0 l 5
 43 0 l 5
 190 254 l 5
 439 862 l 5
 581 862 l 5
 857 184 l 5
 859 203 l 5
 859 660 l 5
 836 863 l 5xdc
496 765 m 5
 337 375 l 5
 682 375 l 5
 586 608 l 5
 496 765 l 5
496 765 m 4
EndSplineSet
Validated: 1
EndChar

StartChar: OE
Encoding: 338 338 124
Width: 734
VWidth: 0
Flags: W
HStem: 0 90<287.184 416 524 691> 380 109<634.364 690> 380 87<513 569.636> 781 88<277.072 415 524 691>
VStem: 427 86<128.455 380 467 736.833>
LayerCount: 2
Fore
SplineSet
366 869 m 6xb8
 691 866 l 5
 691 779 l 5
 524 779 l 5
 513 677 l 5
 513 467 l 5xb8
 691 489 l 5
 690 380 l 5xd8
 513 380 l 5
 513 195 l 5
 524 90 l 5
 691 90 l 5
 691 3 l 5
 366 0 l 5
 -85 5 -43 869 366 869 c 6xb8
296 781 m 5
 213 702 158 577 158 437 c 4
 158 296 213 170 297 91 c 5
 416 91 l 5
 427 194 l 5
 427 675 l 5
 415 781 l 5
 296 781 l 5
296 781 m 4
EndSplineSet
Validated: 33
EndChar

StartChar: acircumflex
Encoding: 226 226 125
Width: 790
VWidth: 0
Flags: W
HStem: 0 21G<42 185.165 641.835 748> 0 21G<42 185.165 641.835 748> 218 87<302 525>
LayerCount: 2
Fore
SplineSet
305 710 m 5xa0
 519 710 l 5
 519 605 l 5
 501 607 l 5
 748 0 l 5
 650 0 l 5
 561 218 l 5
 266 218 l 5
 177 0 l 5
 42 0 l 5
 162 207 l 5
 327 607 l 5
 305 605 l 5
 305 710 l 5xa0
405 558 m 5
 302 305 l 5
 525 305 l 5
 460 463 l 5
 405 558 l 5
405 558 m 4
EndSplineSet
Validated: 1
EndChar

StartChar: aacute
Encoding: 225 225 126
Width: 790
VWidth: 0
Flags: W
HStem: 0 21G<42 185.165 641.835 748> 0 21G<42 185.165 641.835 748> 218 87<302 525>
LayerCount: 2
Fore
SplineSet
519 712 m 5xa0
 519 606 l 5
 501 606 l 5
 748 0 l 5
 650 0 l 5
 561 218 l 5
 266 218 l 5
 177 0 l 5
 42 0 l 5
 162 207 l 5
 326 606 l 5
 305 606 l 5
 305 693 l 5
 355 693 l 5
 519 712 l 5xa0
405 558 m 5
 302 305 l 5
 525 305 l 5
 460 462 l 5
 405 558 l 5
405 558 m 4
EndSplineSet
Validated: 1
EndChar

StartChar: agrave
Encoding: 224 224 127
Width: 790
VWidth: 0
Flags: W
HStem: 0 21G<42 185.165 641.743 748> 0 21G<42 185.165 641.743 748> 218 87<301 524>
LayerCount: 2
Fore
SplineSet
305 710 m 5xa0
 317 710 l 5
 318 710 l 5
 469 693 l 5
 519 693 l 5
 519 606 l 5
 500 606 l 5
 748 0 l 5
 650 0 l 5
 560 218 l 5
 266 218 l 5
 177 0 l 5
 42 0 l 5
 162 207 l 5
 326 606 l 5
 305 606 l 5
 305 710 l 5xa0
404 558 m 5
 301 305 l 5
 524 305 l 5
 460 462 l 5
 404 558 l 5
404 558 m 4
EndSplineSet
Validated: 1
EndChar

StartChar: adieresis
Encoding: 228 228 128
Width: 790
VWidth: 0
Flags: W
HStem: 0 21G<42 185.165 641.743 748> 0 21G<42 185.165 641.743 748> 218 87<301 524>
VStem: 300 100<670 710> 418 96<670 710>
LayerCount: 2
Fore
SplineSet
300 710 m 5xb8
 400 710 l 5
 400 670 l 5
 423 670 l 5
 418 710 l 5
 514 710 l 5
 514 607 l 5
 501 607 l 5
 748 0 l 5
 650 0 l 5
 560 218 l 5
 266 218 l 5
 177 0 l 5
 42 0 l 5
 162 207 l 5
 326 607 l 5
 313 607 l 5
 300 710 l 5xb8
404 558 m 5
 301 305 l 5
 524 305 l 5
 460 462 l 5
 404 558 l 5
404 558 m 4
EndSplineSet
Validated: 1
EndChar

StartChar: edieresis
Encoding: 235 235 129
Width: 326
VWidth: 0
Flags: W
HStem: 0 89<149 283> 283 107<224.375 282> 283 91<149 207.625> 582 130<149 155 179 270> 582 89<155 179 270 283>
VStem: 62 87<104.842 283 374 566.789 671 712> 179 91<671 712>
LayerCount: 2
Fore
SplineSet
56 712 m 5x96
 155 712 l 5x96
 155 671 l 5
 179 671 l 5x8e
 174 712 l 5
 270 712 l 5x96
 270 671 l 5
 283 671 l 5
 283 582 l 5x8e
 149 582 l 5
 149 374 l 5xb6
 283 390 l 5
 282 283 l 5xc6
 149 283 l 5
 149 89 l 5
 283 89 l 5
 283 0 l 5
 43 0 l 5
 62 166 l 5
 62 506 l 5
 43 671 l 5
 61 671 l 5xae
 56 712 l 5x96
56 712 m 4
EndSplineSet
Validated: 1
EndChar

StartChar: eacute
Encoding: 233 233 130
Width: 326
VWidth: 0
Flags: W
HStem: 0 89<149 283> 283 107<224.375 282> 283 91<149 207.625>
VStem: 62 87<157.263 283 374 514.684>
LayerCount: 2
Fore
SplineSet
282 712 m 5xb0
 283 582 l 5
 149 582 l 5
 149 374 l 5xb0
 283 390 l 5
 282 283 l 5xd0
 149 283 l 5
 149 89 l 5
 283 89 l 5
 283 0 l 5
 43 0 l 5
 62 166 l 5
 62 506 l 5
 43 671 l 5
 68 671 l 5
 68 694 l 5
 118 694 l 5
 282 712 l 5xb0
282 712 m 4
EndSplineSet
Validated: 1
EndChar

StartChar: egrave
Encoding: 232 232 131
Width: 326
VWidth: 0
Flags: W
HStem: 0 89<149 283> 283 107<224.375 282> 283 91<149 207.625> 582 111<172.842 283>
VStem: 62 87<156.316 283 374 515.632>
LayerCount: 2
Fore
SplineSet
68 712 m 5xb8
 234 693 l 5
 283 693 l 5
 283 582 l 5
 149 582 l 5
 149 374 l 5xb8
 283 390 l 5
 282 283 l 5xd8
 149 283 l 5
 149 89 l 5
 283 89 l 5
 283 0 l 5
 43 0 l 5
 62 165 l 5
 62 507 l 5
 43 671 l 5
 68 671 l 5
 68 712 l 5xb8
68 712 m 4
EndSplineSet
Validated: 1
EndChar

StartChar: ecircumflex
Encoding: 234 234 132
Width: 326
VWidth: 0
Flags: W
HStem: 0 89<149 283> 283 107<224.375 282> 283 91<149 207.625> 582 129<149 282>
VStem: 62 221<283 374 671 711> 62 87<157.263 283 374 514.684>
LayerCount: 2
Fore
SplineSet
68 711 m 5xb4
 282 711 l 5
 283 582 l 5xb8
 149 582 l 5
 149 374 l 5xb4
 283 390 l 5
 282 283 l 5xd8
 149 283 l 5
 149 89 l 5xb4
 283 89 l 5
 283 0 l 5xb8
 43 0 l 5
 62 166 l 5
 62 506 l 5
 43 671 l 5
 68 671 l 5
 68 711 l 5xb4
68 711 m 4
EndSplineSet
Validated: 1
EndChar

StartChar: igrave
Encoding: 236 236 133
Width: 298
VWidth: 0
Flags: W
HStem: 0 21G<87 211> 0 21G<87 211> 606 87<145 256>
VStem: 106 87<104.211 485.789>
LayerCount: 2
Fore
SplineSet
42 712 m 5x30
 55 710 l 5
 208 693 l 5
 256 693 l 5
 256 606 l 5
 42 606 l 5
 42 712 l 5x30
211 590 m 5
 193 425 l 5
 193 165 l 5
 211 0 l 5
 87 0 l 5xb0
 106 165 l 5
 106 425 l 5
 87 590 l 5
 211 590 l 5
211 590 m 4
EndSplineSet
Validated: 1
EndChar

StartChar: iacute
Encoding: 237 237 134
Width: 298
VWidth: 0
Flags: W
HStem: 0 21G<87 211> 0 21G<87 211> 606 87<42 153>
VStem: 106 86<104.211 485.789>
LayerCount: 2
Fore
SplineSet
256 712 m 5x30
 256 606 l 5
 42 606 l 5
 42 693 l 5
 90 693 l 5
 243 710 l 5
 256 712 l 5x30
87 590 m 5
 211 590 l 5
 192 425 l 5
 192 165 l 5
 211 0 l 5
 87 0 l 5xb0
 106 165 l 5
 106 425 l 5
 87 590 l 5
87 590 m 4
EndSplineSet
Validated: 1
EndChar

StartChar: icircumflex
Encoding: 238 238 135
Width: 298
VWidth: 0
Flags: W
HStem: 0 21G<87 211> 0 21G<87 211> 605 106<42 104.417 193.583 256>
VStem: 106 86<104.211 485.421>
LayerCount: 2
Fore
SplineSet
87 589 m 5xb0
 211 589 l 5
 192 425 l 5
 192 165 l 5
 211 0 l 5
 87 0 l 5
 106 165 l 5
 106 425 l 5
 87 589 l 5xb0
87 589 m 4
42 711 m 5
 256 711 l 5
 256 605 l 5
 149 617 l 5
 42 605 l 5
 42 711 l 5
42 711 m 4
EndSplineSet
Validated: 1
EndChar

StartChar: idieresis
Encoding: 239 239 136
Width: 298
VWidth: 0
Flags: W
HStem: 0 21G<88 212> 0 21G<88 212> 607 104<55 142 170 256>
VStem: 42 100<655 711> 55 87<607 663> 106 87<104.842 485.158> 157 99<655 711> 170 86<607 663>
LayerCount: 2
Fore
SplineSet
88 590 m 5xa4
 212 590 l 5
 193 424 l 5
 193 166 l 5
 212 0 l 5
 88 0 l 5
 106 165 l 5
 106 425 l 5
 88 590 l 5xa4
88 590 m 4
157 711 m 5x22
 256 711 l 5x22
 256 607 l 5
 170 607 l 5x21
 157 711 l 5x22
157 711 m 4
42 711 m 5x30
 142 711 l 5x30
 142 607 l 5
 55 607 l 5x28
 42 711 l 5x30
42 711 m 4
EndSplineSet
Validated: 1
EndChar

StartChar: ae
Encoding: 230 230 137
Width: 928
VWidth: 0
Flags: W
HStem: 0 89<751 885> 218 87<302 526> 283 107<826.375 885> 283 91<751 809.625> 582 89<751 885>
VStem: 664 87<208 283 374 570.778>
LayerCount: 2
Fore
SplineSet
646 671 m 5xcc
 885 671 l 5
 885 582 l 5
 751 582 l 5
 751 374 l 5x9c
 885 390 l 5
 885 283 l 5xac
 751 283 l 5x9c
 751 89 l 5
 885 89 l 5
 885 0 l 5
 651 0 l 5
 561 218 l 5
 267 218 l 5
 178 0 l 5
 43 0 l 5
 163 207 l 5
 164 208 l 5
 353 670 l 5
 476 670 l 5
 664 208 l 5
 664 507 l 5
 646 671 l 5xcc
406 558 m 5
 302 305 l 5
 526 305 l 5xcc
 461 463 l 5
 406 558 l 5
406 558 m 4
EndSplineSet
Validated: 1
EndChar

StartChar: oe
Encoding: 339 339 138
Width: 596
VWidth: 0
Flags: W
HStem: 0 90<235.114 324 427 553> 284 107<494.375 553> 284 91<419 477.625> 584 90<240.706 324 427 553>
VStem: 331 88<98.375 284 375 574.875>
LayerCount: 2
Fore
SplineSet
298 674 m 6xb8
 553 672 l 5
 553 583 l 5
 427 583 l 5
 419 518 l 5
 419 375 l 5xb8
 553 391 l 5
 553 284 l 5xd8
 419 284 l 5
 419 157 l 5
 427 90 l 5
 553 90 l 5
 553 0 l 5
 297 0 l 6
 -57 3 -26 674 298 674 c 6xb8
250 584 m 5
 192 527 154 438 154 338 c 4
 154 237 192 148 251 91 c 5
 324 91 l 5
 331 158 l 5
 331 516 l 5
 324 584 l 5
 250 584 l 5
250 584 m 4
EndSplineSet
Validated: 33
EndChar

StartChar: Ntilde
Encoding: 209 209 139
Width: 586
VWidth: 0
Flags: W
HStem: -1 21G<42 148 393.859 544> -1 21G<42 148 393.859 544> 924 109<90 146.84> 949 110<441.346 496> 949 84<236.16 347.654>
VStem: 65 83<141.217 623> 436 84<185 722.783>
LayerCount: 2
Fore
SplineSet
496 1059 m 5x16
 496 949 l 5x16
 293 949 l 5x0e
 90 924 l 5
 90 1033 l 5x26
 293 1033 l 5x0e
 496 1059 l 5x16
496 1059 m 4
436 864 m 5
 543 864 l 5
 520 661 l 5
 520 203 l 5
 544 -1 l 5
 402 -1 l 5x86
 148 623 l 5
 148 0 l 5
 42 0 l 5
 65 203 l 5
 65 660 l 5
 42 864 l 5
 148 864 l 5
 397 253 l 5
 436 185 l 5
 436 864 l 5
436 864 m 4
EndSplineSet
Validated: 1
EndChar

StartChar: degree
Encoding: 176 176 140
Width: 294
VWidth: 0
Flags: W
HStem: 566 75<125 156> 788 76<130 156>
VStem: 51 74<641 788> 156 74<641 788>
LayerCount: 2
Fore
SplineSet
130 788 m 5
 125 746 l 5
 125 641 l 5
 156 641 l 5
 156 788 l 5
 130 788 l 5
51 864 m 5
 243 864 l 5
 230 744 l 5
 230 685 l 5
 243 566 l 5
 51 566 l 5
 51 864 l 5
EndSplineSet
Validated: 1
EndChar

StartChar: ordfeminine
Encoding: 170 170 141
Width: 494
VWidth: 0
Flags: W
HStem: 244 109<44 100.84> 269 109<393.16 450> 269 84<190.16 303.84> 400 76<215 282>
VStem: 282 75<476 665>
LayerCount: 2
Fore
SplineSet
290 864 m 5x18
 357 864 l 5
 357 400 l 5
 99 400 l 5
 290 864 l 5x18
282 665 m 5
 215 476 l 5
 282 476 l 5
 282 665 l 5
282 665 m 4
450 378 m 5x58
 450 269 l 5x58
 247 269 l 5x38
 44 244 l 5
 44 353 l 5x98
 247 353 l 5x38
 450 378 l 5x58
450 378 m 4
EndSplineSet
Validated: 1
EndChar

StartChar: uni00B2
Encoding: 178 178 142
Width: 350
VWidth: 0
Flags: W
HStem: 401 74<152 239> 750 114<95 169> 789 75<169 216>
VStem: 95 74<750 787> 216 74<729 789>
LayerCount: 2
Fore
SplineSet
95 864 m 5xd8
 290 864 l 5
 290 774 l 5
 305 655 l 5
 197 655 l 5
 152 475 l 5
 183 475 l 5
 303 490 l 5
 303 401 l 5
 45 401 l 5
 133 729 l 5
 216 729 l 5
 216 789 l 5xb8
 169 787 l 5
 169 750 l 5
 95 750 l 5
 95 864 l 5xd8
95 864 m 4xd8
EndSplineSet
Validated: 1
EndChar

StartChar: uni00B3
Encoding: 179 179 143
Width: 336
VWidth: 0
Flags: W
HStem: 401 74<113 178> 752 112<59 133> 788 76<133 180>
VStem: 59 74<752 788> 180 74<735 788>
LayerCount: 2
Fore
SplineSet
49 401 m 5xb8
 49 490 l 5
 169 475 l 5
 178 475 l 5
 132 586 l 5
 45 736 l 5
 180 735 l 5
 180 788 l 5
 133 788 l 5xb8
 133 752 l 5
 59 752 l 5
 59 864 l 5xd8
 254 864 l 5
 254 779 l 5
 269 661 l 5
 185 661 l 5
 291 401 l 5
 49 401 l 5xb8
49 401 m 4
EndSplineSet
Validated: 1
EndChar

StartChar: ccedilla
Encoding: 231 231 144
Width: 432
VWidth: 0
Flags: W
HStem: 585 90<239.384 380>
LayerCount: 2
Fore
SplineSet
296 675 m 6
 390 674 l 5
 380 585 l 5
 248 585 l 5
 190 528 152 439 152 339 c 4
 152 238 191 149 249 92 c 5
 374 92 l 5
 385 2 l 5
 299 -205 l 5
 164 -205 l 5
 283 0 l 5
 -57 20 -24 675 296 675 c 6
296 675 m 4
EndSplineSet
Validated: 33
EndChar

StartChar: oacute
Encoding: 243 243 145
Width: 434
VWidth: 0
Flags: W
HStem: 0 89<148 286> 582 111<148 219.158>
VStem: 60 88<100.222 570.778> 286 87<104.842 566.158>
LayerCount: 2
Fore
SplineSet
324 712 m 5
 324 671 l 5
 392 671 l 5
 373 505 l 5
 373 166 l 5
 392 0 l 5
 42 0 l 5
 60 164 l 5
 60 507 l 5
 42 671 l 5
 110 671 l 5
 110 693 l 5
 158 693 l 5
 324 712 l 5
148 582 m 5
 148 89 l 5
 286 89 l 5
 286 582 l 5
 148 582 l 5
148 582 m 4
EndSplineSet
Validated: 1
EndChar

StartChar: ograve
Encoding: 242 242 146
Width: 434
VWidth: 0
Flags: W
HStem: 0 89<148 286> 582 111<214.842 286>
VStem: 61 87<104.211 567.421> 286 87<104.842 566.158>
LayerCount: 2
Fore
SplineSet
110 712 m 5
 276 693 l 5
 324 693 l 5
 324 671 l 5
 392 671 l 5
 373 505 l 5
 373 166 l 5
 392 0 l 5
 42 0 l 5
 61 165 l 5
 61 507 l 5
 42 671 l 5
 110 671 l 5
 110 712 l 5
148 582 m 5
 148 89 l 5
 286 89 l 5
 286 582 l 5
 148 582 l 5
148 582 m 4
EndSplineSet
Validated: 1
EndChar

StartChar: ocircumflex
Encoding: 244 244 147
Width: 434
VWidth: 0
Flags: W
HStem: 0 89<148 286> 582 129<148 286>
VStem: 61 87<104.842 566.158> 286 88<100.833 570.778>
LayerCount: 2
Fore
SplineSet
110 711 m 5
 324 711 l 5
 324 671 l 5
 392 671 l 5
 374 507 l 5
 374 165 l 5
 392 0 l 5
 42 0 l 5
 61 166 l 5
 61 505 l 5
 42 671 l 5
 110 671 l 5
 110 711 l 5
148 582 m 5
 148 89 l 5
 286 89 l 5
 286 582 l 5
 148 582 l 5
148 582 m 4
EndSplineSet
Validated: 1
EndChar

StartChar: odieresis
Encoding: 246 246 148
Width: 434
VWidth: 0
Flags: W
HStem: 0 89<148 286>
VStem: 61 87<104.842 566.158> 114 93<671 711> 233 90<671 711> 286 87<104.842 568>
LayerCount: 2
Fore
SplineSet
110 711 m 5xa0
 207 711 l 5
 207 671 l 5
 233 671 l 5
 228 711 l 5
 323 711 l 5
 323 671 l 5xb0
 392 671 l 5
 390 658 l 5
 373 505 l 5
 373 166 l 5
 392 0 l 5
 42 0 l 5
 61 166 l 5
 61 505 l 5xc8
 42 671 l 5
 114 671 l 5
 110 711 l 5xa0
148 582 m 5xc8
 148 89 l 5
 286 89 l 5
 286 582 l 5
 148 582 l 5xc8
148 582 m 4
EndSplineSet
Validated: 1
EndChar

StartChar: eth
Encoding: 240 240 149
Width: 714
VWidth: 0
Flags: W
HStem: 0 89<285.184 405> 778 88<275.09 398>
LayerCount: 2
Fore
SplineSet
251 1121 m 1
 392 1121 l 1
 672 433 l 1
 497 0 l 1
 364 0 l 2
 -87 5 -45 866 364 866 c 1
 398 865 l 1
 398 866 l 1
 251 1121 l 1
294 778 m 1
 211 699 157 574 157 434 c 0
 157 293 211 168 295 89 c 1
 405 89 l 1
 502 257 l 1
 575 433 l 1
 502 610 l 1
 405 778 l 1
 294 778 l 1
294 778 m 0
EndSplineSet
Validated: 33
EndChar

StartChar: uniE995
Encoding: 59797 59797 150
Width: 720
VWidth: 0
Flags: W
HStem: 0 87<374 587> 843 20G<583.79 674>
VStem: 587 87<87 601>
LayerCount: 2
Fore
SplineSet
592 863 m 5
 674 863 l 5
 674 0 l 5
 338 0 l 5
 187 -363 l 5
 46 -363 l 5
 193 -109 l 5
 592 863 l 5
586 601 m 5
 374 87 l 5
 587 87 l 5
 586 601 l 5
586 601 m 4
EndSplineSet
Validated: 1
EndChar

StartChar: uniE996
Encoding: 59798 59798 151
Width: 436
VWidth: 0
Flags: W
HStem: 0 21G<42 149 285 394> 0 21G<42 149 285 394> 367 85<149 285> 776 87<149 285>
VStem: 42 107<0 61.7826> 65 84<141.217 367 452 776> 285 109<0 56.84> 285 84<146.16 367 452 776>
LayerCount: 2
Fore
SplineSet
65 863 m 5xb4
 369 863 l 5
 369 203 l 5xb5
 394 0 l 5
 285 0 l 5xb2
 285 367 l 5
 149 367 l 5xb5
 149 0 l 5
 42 0 l 5xb8
 65 203 l 5
 65 863 l 5xb4
149 776 m 5
 149 452 l 5
 285 452 l 5
 285 776 l 5
 149 776 l 5
149 776 m 4
EndSplineSet
Validated: 1
EndChar

StartChar: uniE997
Encoding: 59799 59799 152
Width: 436
VWidth: 0
Flags: W
HStem: 0 87<149 285> 332 85<149 285> 446 84<149 285> 775 88<149 285>
VStem: 65 84<87 332 417 446 530 721.783> 285 84<87 270.84 591.88 775>
LayerCount: 2
Fore
SplineSet
42 863 m 5
 369 862 l 5
 369 649 l 5
 394 445 l 5
 149 446 l 5
 149 417 l 5
 394 417 l 5
 369 214 l 5
 369 0 l 5
 65 0 l 5
 65 660 l 5
 42 863 l 5
149 775 m 5
 149 530 l 5
 285 530 l 5
 285 775 l 5
 149 775 l 5
149 332 m 5
 149 87 l 5
 285 87 l 5
 285 332 l 5
 149 332 l 5
149 332 m 4
EndSplineSet
Validated: 1
EndChar

StartChar: uniE998
Encoding: 59800 59800 153
Width: 436
VWidth: 0
Flags: W
HStem: 0 87<149 285> 462 84<149 285> 843 20G<42 149>
VStem: 42 107<801.217 863> 65 84<87 462 546 721.783> 285 84<87 400.84>
LayerCount: 2
Fore
SplineSet
42 863 m 5xf4
 149 863 l 5xf4
 149 546 l 5
 394 547 l 5
 369 344 l 5
 369 0 l 5
 65 0 l 5
 65 660 l 5xec
 42 863 l 5xf4
149 462 m 5xec
 149 87 l 5
 285 87 l 5
 285 462 l 5
 149 462 l 5xec
149 462 m 4
EndSplineSet
Validated: 1
EndChar

StartChar: uniE999
Encoding: 59801 59801 154
Width: 516
VWidth: 0
Flags: W
HStem: 0 87<150 366> 648 87<150 366> 843 20G<43 150>
VStem: 43 107<801.217 863> 66 84<141.217 648> 366 85<138.409 596.591>
LayerCount: 2
Fore
SplineSet
150 863 m 1xf4
 150 735 l 1xec
 473 735 l 1
 451 532 l 1
 451 203 l 1
 473 0 l 1
 43 0 l 1xf4
 66 203 l 1
 66 660 l 1xec
 43 863 l 1
 150 863 l 1xf4
366 648 m 1
 150 648 l 1
 150 87 l 1
 366 87 l 1
 366 648 l 1
366 648 m 0
EndSplineSet
Validated: 1
EndChar

StartChar: uniE99A
Encoding: 59802 59802 155
Width: 374
VWidth: 0
Flags: W
HStem: 0 87<152 330> 776 87<152 330>
VStem: 67 85<141.217 721.783>
LayerCount: 2
Fore
SplineSet
44 863 m 5
 330 863 l 5
 330 776 l 5
 152 776 l 5
 152 87 l 5
 330 87 l 5
 330 0 l 5
 44 0 l 5
 67 203 l 5
 67 660 l 5
 44 863 l 5
44 863 m 4
EndSplineSet
Validated: 1
EndChar

StartChar: uniE99B
Encoding: 59803 59803 156
Width: 516
VWidth: 0
Flags: W
HStem: 0 87<150 366> 648 87<150 366> 843 20G<366 473>
VStem: 66 84<141.217 593.783> 366 107<798.409 863> 366 85<138.409 648>
LayerCount: 2
Fore
SplineSet
366 863 m 5xf8
 473 863 l 5xf8
 451 660 l 5
 451 203 l 5xf4
 473 0 l 5xf8
 43 0 l 5
 66 203 l 5
 66 532 l 5
 43 735 l 5
 366 735 l 5xf4
 366 863 l 5xf8
150 648 m 5
 150 87 l 5
 366 87 l 5
 366 648 l 5xf4
 150 648 l 5
150 648 m 4
EndSplineSet
Validated: 1
EndChar

StartChar: alt.e
Encoding: 59804 59804 157
Width: 488
VWidth: 0
Flags: W
HStem: 0 84<173 299.12> 519 84<185 254> 700 161<343 427> 774 87<185 343>
VStem: 101 84<667.346 774> 343 84<700 774>
LayerCount: 2
Fore
SplineSet
446 0 m 5xdc
 42 0 l 5
 76 84 l 5
 254 519 l 5
 75 519 l 5
 101 722 l 5
 101 861 l 5xdc
 427 861 l 5
 427 700 l 5
 343 700 l 5xec
 343 774 l 5
 185 774 l 5
 185 603 l 5
 430 604 l 5
 283 350 l 5
 173 84 l 5
 242 84 l 5
 446 109 l 5
 446 0 l 5xdc
446 0 m 4
EndSplineSet
Validated: 1
EndChar

StartChar: uniE99D
Encoding: 59805 59805 158
Width: 700
VWidth: 0
Flags: W
HStem: 0 84<173 298.35> 327 87<319 393 490 551.4> 519 84<184 253> 700 161<343 427> 774 87<184 343>
VStem: 100 84<664.88 774> 343 84<700 774> 403 87<104 303.3>
LayerCount: 2
Fore
SplineSet
100 861 m 1xed
 427 861 l 1
 427 700 l 1
 343 700 l 1xf6
 343 774 l 1xee
 184 774 l 1
 184 603 l 1
 429 604 l 1
 319 414 l 1
 658 414 l 1
 658 307 l 1
 494 327 l 1
 490 327 l 1
 490 0 l 1
 42 0 l 1
 76 84 l 1
 253 519 l 1
 75 518 l 1
 100 722 l 1
 100 861 l 1xed
273 327 m 1
 173 84 l 1
 242 84 l 1
 403 104 l 1
 403 248 l 1xe5
 393 327 l 1
 273 327 l 1
273 327 m 0
EndSplineSet
Validated: 1
EndChar

StartChar: uniE99E
Encoding: 59806 59806 159
Width: 440
VWidth: 0
Flags: W
HStem: 0 87<150 233> 459 87<332 397> 777 87<150 328>
VStem: 66 84<141.913 722.087> 248 149<459 546> 248 84<148.867 459>
LayerCount: 2
Fore
SplineSet
43 864 m 1xf4
 328 864 l 1
 328 777 l 1
 150 777 l 1
 150 87 l 1
 233 87 l 1
 248 203 l 1xf4
 248 546 l 1
 397 546 l 1
 397 459 l 1xf8
 332 459 l 1
 332 0 l 1
 43 0 l 1
 66 204 l 1
 66 660 l 1
 43 864 l 1xf4
43 864 m 0
EndSplineSet
Validated: 1
EndChar

StartChar: alt.k
Encoding: 59807 59807 160
Width: 720
VWidth: 0
Flags: W
HStem: 0 21G<46 136.184 441.714 591> 0 21G<46 136.184 441.714 591> 843 20G<46 133.033>
VStem: 46 82<262 863>
LayerCount: 2
Fore
SplineSet
533 1227 m 1xb0
 674 1227 l 1
 527 972 l 1
 338 512 l 1
 444 254 l 1
 591 0 l 1
 450 0 l 1
 288 391 l 1
 128 0 l 1
 46 0 l 1
 46 863 l 1
 133 863 l 1
 134 262 l 1
 533 1227 l 1xb0
533 1227 m 0
EndSplineSet
Validated: 1
EndChar

StartChar: uniE9A0
Encoding: 59808 59808 161
Width: 666
VWidth: 0
Flags: W
HStem: 0 21G<42 149 285 394 515 624> 0 21G<42 149 285 394 515 624> 776 87<149 285 369 515>
VStem: 65 84<141.217 776> 285 84<146.16 776> 515 84<146.16 776>
LayerCount: 2
Fore
SplineSet
42 0 m 5xbc
 65 203 l 5
 65 863 l 5
 599 863 l 5
 599 203 l 5
 624 0 l 5
 515 0 l 5
 515 776 l 5
 369 776 l 5
 369 203 l 5
 394 0 l 5
 285 0 l 5
 285 776 l 5
 149 776 l 5
 149 0 l 5
 42 0 l 5xbc
42 0 m 4
EndSplineSet
Validated: 1
EndChar

StartChar: alt.n
Encoding: 59809 59809 162
Width: 1106
VWidth: 0
Flags: W
HStem: 0 21G<42 192.298 434 526.201> 0 21G<42 192.298 434 526.201>
VStem: 434 84<263 605>
LayerCount: 2
Fore
SplineSet
923 1227 m 1xa0
 1064 1227 l 1
 917 973 l 1
 518 0 l 1
 434 0 l 1
 435 605 l 1
 184 0 l 1
 42 0 l 1
 188 253 l 1
 439 864 l 1
 523 864 l 1
 524 263 l 1
 923 1227 l 1xa0
923 1227 m 0
EndSplineSet
Validated: 1
EndChar

StartChar: uniE9A2
Encoding: 59810 59810 163
Width: 436
VWidth: 0
Flags: W
HStem: 0 21G<42 149 285 394> 0 21G<42 149 285 394> 776 87<149 285>
VStem: 65 84<141.217 776> 285 84<146.16 776>
LayerCount: 2
Fore
SplineSet
42 0 m 5xb8
 65 203 l 5
 65 863 l 5
 369 863 l 5
 369 203 l 5
 394 0 l 5
 285 0 l 5
 285 776 l 5
 149 776 l 5
 149 0 l 5
 42 0 l 5xb8
42 0 m 4
EndSplineSet
Validated: 1
EndChar

StartChar: uniE9A3
Encoding: 59811 59811 164
Width: 922
VWidth: 0
Flags: W
HStem: 0 87<370 583> 776 87<339 552>
VStem: 252 88<262 776> 583 87<87 601>
LayerCount: 2
Fore
SplineSet
739 1227 m 1
 880 1227 l 1
 733 972 l 1
 670 819 l 1
 670 0 l 1
 334 0 l 1
 183 -363 l 1
 42 -363 l 1
 189 -109 l 1
 252 45 l 1
 252 863 l 1
 588 863 l 1
 739 1227 l 1
339 776 m 1
 340 262 l 1
 552 776 l 1
 339 776 l 1
582 601 m 1
 370 87 l 1
 583 87 l 1
 582 601 l 1
582 601 m 0
EndSplineSet
Validated: 1
EndChar

StartChar: alt.p
Encoding: 59812 59812 165
Width: 470
VWidth: 0
Flags: W
HStem: 0 21G<43 150> 0 21G<43 150> 398 76<150 289.111> 786 78<150 292.033>
VStem: 66 84<141.217 398 474 722.783>
LayerCount: 2
Fore
SplineSet
43 864 m 5xb8
 249 864 l 6
 495 862 476 398 249 398 c 6
 150 398 l 5
 150 0 l 5
 43 0 l 5
 66 203 l 5
 66 661 l 5
 43 864 l 5xb8
150 786 m 5
 150 474 l 5
 277 474 l 5
 313 510 337 566 337 630 c 4
 337 694 313 750 277 786 c 5
 150 786 l 5
150 786 m 4
EndSplineSet
Validated: 33
EndChar

StartChar: uniE9A5
Encoding: 59813 59813 166
Width: 516
VWidth: 0
Flags: W
HStem: 0 21G<43 150> 0 21G<43 150> 128 87<150 366> 776 87<150 366>
VStem: 43 107<0 61.7826> 66 84<215 721.783> 366 85<266.409 724.591>
LayerCount: 2
Fore
SplineSet
150 0 m 5xba
 43 0 l 5xba
 66 203 l 5
 66 660 l 5xb6
 43 863 l 5xba
 473 863 l 5
 451 660 l 5
 451 331 l 5
 473 128 l 5
 150 128 l 5xb6
 150 0 l 5xba
366 215 m 5
 366 776 l 5
 150 776 l 5
 150 215 l 5x36
 366 215 l 5
366 215 m 4
EndSplineSet
Validated: 1
EndChar

StartChar: alt.r
Encoding: 59814 59814 167
Width: 614
VWidth: 0
Flags: W
HStem: 0 21G<43 149 421.855 571> 0 21G<43 149 421.855 571> 399 76<365 407.111> 788 76<205 410.033>
VStem: 66 83<141.217 690>
LayerCount: 2
Fore
SplineSet
367 865 m 6xb8
 613 863 594 399 367 399 c 6
 365 399 l 5
 424 255 l 5
 571 0 l 5
 430 0 l 5
 149 690 l 5
 149 0 l 5
 43 0 l 5
 66 203 l 5
 66 660 l 5
 43 864 l 5
 367 865 l 6xb8
205 788 m 5
 334 475 l 5
 395 475 l 5
 431 511 455 567 455 631 c 4
 455 695 430 752 394 788 c 5
 205 788 l 5
205 788 m 4
EndSplineSet
Validated: 33
EndChar

StartChar: uniE9A7
Encoding: 59815 59815 168
Width: 668
VWidth: 0
Flags: W
HStem: 0 21G<42 149> 0 21G<42 149> 317 84<149 260> 776 87<149 303>
VStem: 42 107<0 61.7826> 65 84<141.217 317 401 776> 303 84<462.88 776>
LayerCount: 2
Fore
SplineSet
65 863 m 1xb6
 387 863 l 1
 387 520 l 1
 412 316 l 1
 357 316 l 1
 479 19 l 1
 626 -235 l 1
 485 -235 l 1
 260 317 l 1
 149 317 l 1xb6
 149 0 l 1
 42 0 l 1xba
 65 203 l 1
 65 863 l 1xb6
149 776 m 1
 149 401 l 1
 303 401 l 1
 303 776 l 1
 149 776 l 1
149 776 m 0
EndSplineSet
Validated: 1
EndChar

StartChar: uniE9A8
Encoding: 59816 59816 169
Width: 444
VWidth: 0
Flags: W
HStem: 0 85<44 291> 776 85<154 398>
VStem: 70 84<401 714.12> 178 84<401 460> 291 84<145.88 460>
LayerCount: 2
Fore
SplineSet
398 860 m 5
 398 776 l 5
 154 776 l 5
 154 401 l 5
 178 401 l 5
 178 547 l 5
 375 547 l 5
 375 203 l 5
 400 -1 l 5
 44 0 l 5
 44 85 l 5
 291 84 l 5
 291 460 l 5
 262 460 l 5
 262 314 l 5
 70 314 l 5
 70 657 l 5
 45 861 l 5
 398 860 l 5
398 860 m 4
EndSplineSet
Validated: 1
EndChar

StartChar: uniE9A9
Encoding: 59817 59817 170
Width: 444
VWidth: 0
Flags: W
HStem: 0 85<44 291> 395 87<154 291> 776 85<154 399>
VStem: 70 84<482 714.12> 291 84<145.88 395>
LayerCount: 2
Fore
SplineSet
45 861 m 5
 399 860 l 5
 399 776 l 5
 154 776 l 5
 154 482 l 5
 375 482 l 5
 375 203 l 5
 400 -1 l 5
 44 0 l 5
 44 85 l 5
 291 84 l 5
 291 395 l 5
 70 395 l 5
 70 657 l 5
 45 861 l 5
45 861 m 4
EndSplineSet
Validated: 1
EndChar

StartChar: alt.s
Encoding: 59818 59818 171
Width: 576
VWidth: 0
Flags: W
HStem: 0 85<172 331.714> 787 84<204 359>
LayerCount: 2
Fore
SplineSet
243 871 m 6
 534 871 l 5
 387 617 l 5
 331 478 l 5
 546 429 516 0 292 0 c 6
 42 0 l 5
 203 401 l 5
 -6 450 23 871 243 871 c 6
217 787 m 5
 183 752 160 697 160 635 c 4
 160 573 183 518 218 483 c 5
 236 483 l 5
 359 787 l 5
 217 787 l 5
298 396 m 5
 172 85 l 5
 319 85 l 5
 354 121 378 178 378 241 c 4
 378 305 354 360 318 396 c 5
 298 396 l 5
298 396 m 4
EndSplineSet
Validated: 33
EndChar

StartChar: alt.y
Encoding: 59819 59819 172
Width: 724
VWidth: 0
Flags: W
HStem: 843 20G<42 191.162 579.798 682>
LayerCount: 2
Fore
SplineSet
42 863 m 5
 183 863 l 5
 385 368 l 5
 588 863 l 5
 682 863 l 5
 183 -363 l 5
 42 -363 l 5
 189 -109 l 5
 336 250 l 5
 189 609 l 5
 42 863 l 5
42 863 m 4
EndSplineSet
Validated: 1
EndChar

StartChar: uniE9AC
Encoding: 59820 59820 173
Width: 436
VWidth: 0
Flags: W
HStem: 0 87<149 285> 463 84<149 285> 781 83<149 283>
VStem: 65 84<87 463 547 722.087> 283 109<578 634.84> 285 84<87 384.6 736.87 781>
LayerCount: 2
Fore
SplineSet
367 864 m 5xf4
 367 781 l 5
 392 578 l 5
 283 578 l 5
 283 781 l 5xf8
 149 781 l 5
 149 547 l 5
 394 547 l 5
 369 344 l 5
 369 0 l 5
 65 0 l 5
 65 660 l 5
 42 864 l 5
 367 864 l 5xf4
285 463 m 5xf4
 149 463 l 5
 149 87 l 5
 285 87 l 5
 285 463 l 5xf4
285 463 m 4
EndSplineSet
Validated: 1
EndChar

StartChar: uniE9AD
Encoding: 59821 59821 174
Width: 436
VWidth: 0
Flags: W
HStem: 0 83<153 287> 317 85<151 287> 777 87<151 287>
VStem: 44 109<229.16 286> 67 84<83 127.13 479.4 777> 287 84<141.913 318 402 777>
LayerCount: 2
Fore
SplineSet
69 0 m 5xec
 69 83 l 5
 44 286 l 5
 153 286 l 5
 153 83 l 5xf4
 287 83 l 5
 287 318 l 5
 42 317 l 5
 67 520 l 5
 67 864 l 5
 371 864 l 5
 371 204 l 5
 394 0 l 5
 69 0 l 5xec
151 402 m 5xec
 287 402 l 5
 287 777 l 5
 151 777 l 5
 151 402 l 5xec
151 402 m 4
EndSplineSet
Validated: 1
EndChar

StartChar: uniE9AE
Encoding: 59822 59822 175
Width: 858
VWidth: 0
Flags: W
HStem: -187 87<42 709> 0 90<155 272> 398 76<369 508.111> 786 78<369 511.033> 919 87<155 709>
VStem: 71 84<148.32 919> 285 84<142.154 398 474 722.783> 709 84<-45.087 919>
LayerCount: 2
Fore
SplineSet
71 1006 m 5
 793 1006 l 5
 793 17 l 5
 816 -187 l 5
 42 -187 l 5
 42 -100 l 5
 709 -100 l 5
 709 919 l 5
 155 919 l 5
 155 90 l 5
 272 90 l 5
 285 203 l 5
 285 661 l 5
 262 864 l 5
 468 864 l 6
 714 862 695 398 468 398 c 6
 369 398 l 5
 369 0 l 5
 46 0 l 5
 71 206 l 5
 71 1006 l 5
369 786 m 5
 369 474 l 5
 496 474 l 5
 532 510 556 566 556 630 c 4
 556 694 532 750 496 786 c 5
 369 786 l 5
369 786 m 4
EndSplineSet
Validated: 33
EndChar

StartChar: uniE9AF
Encoding: 59823 59823 176
Width: 1144
VWidth: 0
Flags: W
HStem: 0 91<286.184 857.816> 201 78<434.967 542 706.967 814> 592 76<437.889 542 709.889 814> 781 88<275.921 868.079>
LayerCount: 2
Fore
SplineSet
750 668 m 6
 822 667 l 5
 814 592 l 5
 722 592 l 5
 686 556 662 500 662 436 c 4
 662 372 687 315 723 279 c 5
 814 279 l 5
 822 204 l 5
 751 201 l 5
 750 201 l 6
 504 203 523 668 750 668 c 6
750 668 m 4
478 668 m 6
 550 667 l 5
 542 592 l 5
 450 592 l 5
 414 556 390 500 390 436 c 4
 390 372 415 315 451 279 c 5
 542 279 l 5
 550 204 l 5
 479 201 l 5
 478 201 l 6
 232 203 251 668 478 668 c 6
478 668 m 4
365 869 m 6
 779 869 l 6
 1188 869 1230 4 779 0 c 6
 365 0 l 6
 -86 4 -44 869 365 869 c 6
294 781 m 5
 211 702 157 577 157 437 c 4
 157 296 211 170 295 91 c 5
 849 91 l 5
 933 170 987 296 987 437 c 4
 987 577 933 702 850 781 c 5
 294 781 l 5
294 781 m 4
EndSplineSet
Validated: 37
EndChar

StartChar: uniE9B0
Encoding: 59824 59824 177
Width: 1528
VWidth: 0
Flags: W
HStem: 0 21G<664.833 764.169 805.831 904.174> 0 21G<664.833 764.169 805.831 904.174> 652 20G<42 155.185 182 296.132 353.868 446 494.75 586 942 1055.19 1082 1196.13 1253.87 1346 1394.75 1486> 652 20G<42 155.185 182 296.132 353.868 446 494.75 586 942 1055.19 1082 1196.13 1253.87 1346 1394.75 1486>
LayerCount: 2
Fore
SplineSet
942 672 m 5x20
 1047 672 l 5
 1153 413 l 5
 1164 433 l 5
 1183 479 l 5
 1156 545 l 5
 1082 672 l 5
 1188 672 l 5
 1225 581 l 5
 1262 672 l 5
 1346 672 l 5
 1267 478 l 5
 1294 413 l 5
 1304 432 l 5
 1403 672 l 5
 1486 672 l 5
 1337 305 l 5
 1254 305 l 5
 1225 376 l 5
 1196 305 l 5
 1114 305 l 5
 1015 545 l 5
 942 672 l 5x20
942 672 m 4
42 672 m 5
 147 672 l 5
 253 413 l 5
 264 433 l 5
 283 479 l 5
 256 545 l 5
 182 672 l 5
 288 672 l 5
 325 581 l 5
 362 672 l 5
 446 672 l 5
 367 478 l 5
 394 413 l 5
 404 432 l 5
 503 672 l 5
 586 672 l 5
 437 305 l 5
 354 305 l 5
 325 376 l 5
 296 305 l 5
 214 305 l 5
 115 545 l 5
 42 672 l 5
42 672 m 4
501 367 m 5
 607 367 l 5
 713 108 l 5
 724 128 l 5
 743 174 l 5
 715 240 l 5
 642 367 l 5
 748 367 l 5
 785 277 l 5
 822 367 l 5
 905 367 l 5
 826 174 l 5
 853 108 l 5
 864 127 l 5
 963 367 l 5
 1046 367 l 5
 896 0 l 5
 814 0 l 5
 785 71 l 5
 756 0 l 5
 673 0 l 5x80
 575 240 l 5
 501 367 l 5
501 367 m 4
EndSplineSet
Validated: 1
EndChar

StartChar: uniE9B1
Encoding: 59825 59825 178
Width: 738
VWidth: 0
Flags: W
HStem: 0 22G<42 149 208 313> 0 22G<42 149 208 313> 238 87<313 393> 583 89<313 421> 776 87<149 587>
VStem: 65 84<141.217 776> 208 105<1 65.5556> 226 87<102.444 238 325 583> 421 87<345.9 583> 587 84<1 776>
LayerCount: 2
Fore
SplineSet
65 863 m 5xbdc0
 671 863 l 5
 671 28 l 5
 696 -175 l 5
 561 -175 l 5
 393 238 l 5
 313 238 l 5xbdc0
 313 1 l 5
 208 1 l 5xbec0
 226 167 l 5
 226 672 l 5
 508 672 l 5
 508 404 l 5
 528 238 l 5
 491 238 l 5
 577 35 l 5
 587 1 l 5
 587 776 l 5
 149 776 l 5
 149 0 l 5
 42 0 l 5
 65 203 l 5
 65 863 l 5xbdc0
313 583 m 5
 313 325 l 5
 421 325 l 5
 421 583 l 5
 313 583 l 5
313 583 m 4
EndSplineSet
Validated: 5
EndChar

StartChar: uniE9B2
Encoding: 59826 59826 179
Width: 980
VWidth: 0
Flags: W
HStem: -187 87<149 938> 0 21G<179 322.073 777.835 884> 0 21G<179 322.073 777.835 884> 218 90<439 660 795 828> 650 20G<480.793 619.122> 650 20G<480.793 619.122> 782 87<149 828>
VStem: 64 85<-47.9091 782> 828 84<366.32 782>
LayerCount: 2
Fore
SplineSet
64 869 m 5xdb80
 912 869 l 5
 912 424 l 5
 937 218 l 5
 795 218 l 5
 884 0 l 5
 786 0 l 5
 697 218 l 5
 402 218 l 5
 314 0 l 5
 179 0 l 5
 299 207 l 5
 489 670 l 5
 611 670 l 5
 758 308 l 5
 828 308 l 5
 828 782 l 5
 149 782 l 5
 149 -100 l 5
 938 -100 l 5
 938 -187 l 5
 42 -187 l 5
 64 17 l 5
 64 869 l 5xdb80
541 558 m 5
 439 308 l 5
 660 308 l 5
 596 463 l 5
 541 558 l 5
541 558 m 4
EndSplineSet
Validated: 1
EndChar

StartChar: uniE9B3
Encoding: 59827 59827 180
Width: 764
VWidth: 0
Flags: W
HStem: -186 87<149 722> 0 90<398.103 612> 284 109<462.72 519> 583 90<402.717 545> 782 87<149 612>
VStem: 65 84<-44.7826 782> 612 84<148.32 782>
LayerCount: 2
Fore
SplineSet
65 869 m 5
 696 869 l 5
 696 206 l 5
 721 0 l 5
 460 0 l 6
 106 4 136 673 460 673 c 6
 555 673 l 5
 545 583 l 5
 413 583 l 5
 361 532 325 456 318 368 c 5
 519 393 l 5
 519 284 l 5
 320 284 l 5
 331 205 366 136 414 90 c 5
 612 90 l 5
 612 782 l 5
 149 782 l 5
 149 -99 l 5
 722 -99 l 5
 722 -186 l 5
 42 -186 l 5
 65 17 l 5
 65 869 l 5
65 869 m 4
EndSplineSet
Validated: 33
EndChar

StartChar: uniE9B4
Encoding: 59828 59828 181
Width: 796
VWidth: 0
Flags: W
HStem: -186 87<149 754> 0 21G<272 378> 0 21G<272 378> 286 84<378 503.174> 582 89<378 511> 782 87<149 643>
VStem: 65 84<-44.087 782> 272 106<0 61.1579> 291 87<104.842 286 370 566.158> 643 84<393 782>
LayerCount: 2
Fore
SplineSet
65 869 m 5xdec0
 727 869 l 5
 727 286 l 5
 378 286 l 5xdec0
 378 0 l 5
 272 0 l 5xdf40
 291 166 l 5
 291 505 l 5xdec0
 272 671 l 5xdf40
 511 671 l 5
 511 582 l 5
 378 582 l 5
 378 370 l 5
 442 370 l 5
 643 393 l 5
 643 782 l 5
 149 782 l 5
 149 -99 l 5
 754 -99 l 5
 754 -186 l 5
 42 -186 l 5
 65 18 l 5
 65 869 l 5xdec0
65 869 m 4
EndSplineSet
Validated: 1
EndChar

StartChar: a_x
Encoding: 59829 59829 182
Width: 1370
VWidth: 0
Flags: W
HStem: 0 21G<42 191.138 826.793 940.205 1178.86 1328> 0 21G<42 191.138 826.793 940.205 1178.86 1328> 290 85<336 681> 842 20G<429.809 588.123 836 940.205 1178.86 1328>
LayerCount: 2
Fore
SplineSet
438 862 m 5xb0
 534 862 l 5
 580 862 l 5
 883 116 l 5
 1011 431 l 5
 836 862 l 5
 932 862 l 5
 1060 550 l 5
 1187 862 l 5
 1328 862 l 5
 1181 608 l 5
 1109 431 l 5
 1181 254 l 5
 1328 0 l 5
 1187 0 l 5
 1060 312 l 5
 932 0 l 5
 835 0 l 5
 716 290 l 5
 301 290 l 5
 183 0 l 5
 42 0 l 5
 189 254 l 5
 438 862 l 5xb0
495 765 m 5
 336 375 l 5
 681 375 l 5
 585 608 l 5
 495 765 l 5
495 765 m 4
EndSplineSet
Validated: 1
Ligature2: "dligDiscretionaryLigatures-0 subtable" A X
EndChar

StartChar: t_v
Encoding: 59830 59830 183
Width: 1390
VWidth: 0
Flags: W
HStem: 1 21G<266 351 846.796 1005.15> 1 21G<266 351 846.796 1005.15> 778 84<188.88 266 365 507>
LayerCount: 2
Fore
SplineSet
42 862 m 5xa0
 600 862 l 5
 911 98 l 5
 1002 255 l 5
 1252 862 l 5
 1348 862 l 5
 997 1 l 5
 855 1 l 5
 606 608 l 5
 507 778 l 5
 365 778 l 5
 351 658 l 5
 351 0 l 5
 266 0 l 5
 266 778 l 5
 246 778 l 5
 42 753 l 5
 42 862 l 5xa0
42 862 m 4
EndSplineSet
Validated: 1
Ligature2: "dligDiscretionaryLigatures-0 subtable" T V
Ligature2: "dligDiscretionaryLigatures subtable" T v
Ligature2: "dligDiscretionaryLigatures subtable" t V
Ligature2: "dligDiscretionaryLigatures subtable" T V
Ligature2: "dligDiscretionaryLigatures subtable" t v
EndChar

StartChar: m_x
Encoding: 59831 59831 184
Width: 842
VWidth: 0
Flags: W
HStem: 0 21G<50 136.033 704.967 792> 0 21G<50 136.033 704.967 792> 843 20G<50 139.227 701.801 792>
VStem: 50 86<0 601> 705 87<0 601>
LayerCount: 2
Fore
SplineSet
50 863 m 5xb8
 131 863 l 5
 421 158 l 5
 710 863 l 5
 792 863 l 5
 792 0 l 5
 705 0 l 5
 704 601 l 5
 471 36 l 5
 531 -109 l 5
 678 -363 l 5
 536 -363 l 5
 421 -85 l 5
 305 -363 l 5
 164 -363 l 5
 311 -109 l 5
 371 36 l 5
 137 601 l 5
 136 0 l 5
 50 0 l 5
 50 863 l 5xb8
50 863 m 4
EndSplineSet
Validated: 1
Ligature2: "dligDiscretionaryLigatures-0 subtable" M X
EndChar

StartChar: a_v
Encoding: 59832 59832 185
Width: 1370
VWidth: 0
Flags: W
HStem: 0 21G<42 191.138 826.793 940.191> 0 21G<42 191.138 826.793 940.191> 290 85<336 681> 842 20G<429.809 588.123 1178.85 1328>
LayerCount: 2
Fore
SplineSet
438 862 m 5xb0
 580 862 l 5
 883 116 l 5
 1187 862 l 5
 1328 862 l 5
 1181 608 l 5
 932 0 l 5
 835 0 l 5
 716 290 l 5
 301 290 l 5
 183 0 l 5
 42 0 l 5
 189 254 l 5
 438 862 l 5xb0
494 765 m 5
 336 375 l 5
 681 375 l 5
 585 608 l 5
 494 765 l 5
494 765 m 4
EndSplineSet
Validated: 1
Ligature2: "dligDiscretionaryLigatures-0 subtable" A V
EndChar

StartChar: v_t_f
Encoding: 59833 59833 186
Width: 1078
VWidth: 0
Flags: W
HStem: 1 21G<579.79 670 751 858> 1 21G<579.79 670 751 858> 340 109<979.364 1036> 340 87<858 914.636> 637 87<858 1036>
VStem: 588 82<262 775> 751 107<1 63.087> 774 84<142.913 340 427 582.783>
LayerCount: 2
Fore
SplineSet
751 724 m 1x9e
 1036 724 l 1
 1036 637 l 1
 858 637 l 1
 858 427 l 1x9d
 1036 449 l 1
 1036 340 l 1x2d
 858 340 l 1x1d
 858 1 l 1
 751 1 l 1x9e
 774 205 l 1
 774 521 l 1x9d
 751 724 l 1x9e
751 724 m 0x0e
42 1227 m 1
 183 1227 l 1
 582 262 l 1
 583 777 l 1
 400 755 l 1
 400 884 l 1
 595 864 l 1
 658 864 l 1
 850 884 l 1
 850 755 l 1
 670 775 l 1
 670 0 l 1
 588 0 l 1
 189 972 l 1
 42 1227 l 1
42 1227 m 0
EndSplineSet
Validated: 1
Ligature2: "dligDiscretionaryLigatures-0 subtable" v t F
Ligature2: "dligDiscretionaryLigatures-0 subtable" v T f
Ligature2: "dligDiscretionaryLigatures-0 subtable" V t f
Ligature2: "dligDiscretionaryLigatures-0 subtable" V t F
Ligature2: "dligDiscretionaryLigatures-0 subtable" v T F
Ligature2: "dligDiscretionaryLigatures-0 subtable" V T F
Ligature2: "dligDiscretionaryLigatures-0 subtable" v t f
Ligature2: "dligDiscretionaryLigatures subtable" v t F
Ligature2: "dligDiscretionaryLigatures subtable" v T f
Ligature2: "dligDiscretionaryLigatures subtable" V t f
Ligature2: "dligDiscretionaryLigatures subtable" V t F
Ligature2: "dligDiscretionaryLigatures subtable" v T F
Ligature2: "dligDiscretionaryLigatures subtable" V T F
Ligature2: "dligDiscretionaryLigatures subtable" v t f
EndChar

StartChar: ydieresis
Encoding: 255 255 187
Width: 576
VWidth: 0
Flags: W
HStem: 0 21G<42 191.144> 0 21G<42 191.144> 809 106<205 295 327 417> 842 20G<42 190 432 534>
VStem: 199 96<860.556 915> 327 96<860.556 915>
LayerCount: 2
Fore
SplineSet
199 915 m 5x2c
 295 915 l 5
 295 809 l 5
 205 809 l 5
 310 550 l 5
 417 809 l 5
 327 809 l 5
 327 915 l 5
 423 915 l 5x2c
 432 845 l 5
 438 862 l 5
 534 862 l 5
 183 0 l 5
 42 0 l 5
 189 254 l 5
 261 431 l 5
 189 608 l 5
 42 862 l 5
 183 862 l 5x9c
 190 845 l 5
 199 915 l 5x2c
199 915 m 4
EndSplineSet
Validated: 1
EndChar

StartChar: uniE9BA
Encoding: 59834 59834 188
Width: 292
VWidth: 0
Flags: W
HStem: 0 76<124 155> 386 76<129 155>
VStem: 50 74<76 386> 155 74<75 386>
LayerCount: 2
Fore
SplineSet
50 462 m 5
 242 462 l 5
 229 342 l 5
 229 119 l 5
 242 0 l 5
 50 0 l 5
 50 462 l 5
129 386 m 5
 124 344 l 5
 124 76 l 5
 155 75 l 5
 155 386 l 5
 129 386 l 5
129 386 m 4
EndSplineSet
Validated: 1
EndChar

StartChar: uniE9BB
Encoding: 59835 59835 189
Width: 196
VWidth: 0
Flags: W
HStem: 0 21G<48 148> 0 21G<48 148>
VStem: 61 74<55.3846 406.077>
LayerCount: 2
Fore
SplineSet
48 461 m 5xa0
 148 461 l 5
 135 342 l 5
 135 120 l 5
 148 0 l 5
 48 0 l 5
 61 118 l 5
 61 344 l 5
 48 461 l 5xa0
48 461 m 4
EndSplineSet
Validated: 1
EndChar

StartChar: uniE9BC
Encoding: 59836 59836 190
Width: 348
VWidth: 0
Flags: W
HStem: 0 74<151 238> 349 113<94 168> 386 76<168 215>
VStem: 94 74<349 386> 215 74<328 387>
LayerCount: 2
Fore
SplineSet
94 462 m 5xd8
 289 462 l 5
 289 373 l 5
 304 253 l 5
 196 253 l 5
 151 74 l 5
 182 74 l 5
 302 89 l 5
 302 0 l 5
 44 0 l 5
 132 328 l 5
 215 328 l 5
 215 387 l 5
 168 386 l 5xb8
 168 349 l 5
 94 349 l 5
 94 462 l 5xd8
94 462 m 4xd8
EndSplineSet
Validated: 1
EndChar

StartChar: uniE9BD
Encoding: 59837 59837 191
Width: 332
VWidth: 0
Flags: W
HStem: 0 74<111 176> 350 112<57 131> 387 75<131 178>
VStem: 57 74<350 387> 178 74<334 387>
LayerCount: 2
Fore
SplineSet
47 0 m 5xb8
 47 89 l 5
 167 74 l 5
 176 74 l 5
 130 184 l 5
 43 334 l 5
 178 334 l 5
 178 387 l 5
 131 387 l 5xb8
 131 350 l 5
 57 350 l 5
 57 462 l 5xd8
 252 462 l 5
 252 377 l 5
 267 259 l 5
 183 260 l 5
 289 0 l 5
 47 0 l 5xb8
47 0 m 4
EndSplineSet
Validated: 1
EndChar

StartChar: uniE9BE
Encoding: 59838 59838 192
Width: 360
VWidth: 0
Flags: W
HStem: 0 21G<197 286> 0 21G<197 286> 123 74<156 211 288 318>
VStem: 197 89<0 55.0667> 211 89<239.083 298> 211 77<67.4286 123 197 230.667>
LayerCount: 2
Fore
SplineSet
181 463 m 5xb0
 290 463 l 5
 204 313 l 5
 156 197 l 5
 211 197 l 5xa4
 211 298 l 5
 300 298 l 5xa8
 288 197 l 5xa4
 318 197 l 5
 318 123 l 5
 285 123 l 5
 286 0 l 5
 197 0 l 5
 212 118 l 5
 212 123 l 5
 42 123 l 5
 181 463 l 5xb0
181 463 m 4
EndSplineSet
Validated: 1
EndChar

StartChar: uniE9BF
Encoding: 59839 59839 193
Width: 350
VWidth: 0
Flags: W
HStem: 0 113<95 169> 0 76<169 216> 388 74<152 243>
VStem: 95 74<76 113> 216 74<75 135>
LayerCount: 2
Fore
SplineSet
95 0 m 5xb8
 95 113 l 5
 169 113 l 5xb8
 169 76 l 5
 216 75 l 5
 216 135 l 5
 133 135 l 5
 45 462 l 5
 303 462 l 5
 303 374 l 5
 183 388 l 5
 152 388 l 5
 197 209 l 5
 305 209 l 5
 290 89 l 5
 290 0 l 5x78
 95 0 l 5xb8
95 0 m 4
EndSplineSet
Validated: 1
EndChar

StartChar: uniE9C0
Encoding: 59840 59840 194
Width: 276
VWidth: 0
Flags: W
HStem: 0 21G<49 227> 0 21G<49 227> 388 76<136 225>
VStem: 49 178<0 63.5385 400.462 464> 62 74<68 208 283 388> 159 68<68 208>
LayerCount: 2
Fore
SplineSet
49 464 m 5xb0
 225 464 l 5
 225 388 l 5
 136 388 l 5
 136 283 l 5
 227 284 l 5xac
 227 0 l 5
 49 0 l 5xb0
 62 118 l 5
 62 346 l 5xa8
 49 464 l 5xb0
136 208 m 5
 136 68 l 5
 153 68 l 5
 159 111 l 5
 159 208 l 5
 136 208 l 5
136 208 m 4
EndSplineSet
Validated: 1
EndChar

StartChar: uniE9C1
Encoding: 59841 59841 195
Width: 384
VWidth: 0
Flags: W
HStem: 0 21G<43 159.207> 0 21G<43 159.207> 389 74<48 228>
VStem: 43 298
LayerCount: 2
Fore
SplineSet
48 463 m 5xb0
 341 463 l 5
 151 0 l 5
 43 0 l 5
 130 149 l 5
 228 389 l 5
 48 389 l 5
 48 463 l 5xb0
48 463 m 4
EndSplineSet
Validated: 1
EndChar

StartChar: uniE9C2
Encoding: 59842 59842 196
Width: 296
VWidth: 0
Flags: W
HStem: 0 21G<69 248> 0 21G<69 248>
VStem: 49 74<236 387> 83 74<76 210> 144 69<286 387> 178 70<76 235>
LayerCount: 2
Fore
SplineSet
48 463 m 5xa0
 227 463 l 5
 213 343 l 5
 213 286 l 5xa8
 247 286 l 5
 248 0 l 5
 69 0 l 5
 83 120 l 5
 83 210 l 5x94
 49 210 l 5
 48 463 l 5xa0
128 387 m 5
 123 345 l 5
 123 236 l 5
 144 236 l 5
 144 387 l 5
 128 387 l 5
157 235 m 5x14
 157 76 l 5
 173 76 l 5
 178 118 l 5
 178 235 l 5
 157 235 l 5x14
157 235 m 4
EndSplineSet
Validated: 1
EndChar

StartChar: uniE9C3
Encoding: 59843 59843 197
Width: 276
VWidth: 0
Flags: W
HStem: 0 75<51 140>
VStem: 49 178<0 63.5385 400.462 464> 49 68<256 396> 140 74<75 180 256 396>
LayerCount: 2
Fore
SplineSet
227 0 m 5xc0
 51 0 l 5
 51 75 l 5
 140 75 l 5
 140 180 l 5
 49 180 l 5xb0
 49 464 l 5
 227 464 l 5xc0
 214 346 l 5
 214 118 l 5x90
 227 0 l 5xc0
140 256 m 5
 140 396 l 5
 123 396 l 5
 117 352 l 5
 117 256 l 5
 140 256 l 5
140 256 m 4
EndSplineSet
Validated: 1
EndChar

StartChar: uniE9C4
Encoding: 59844 59844 198
Width: 292
VWidth: 0
Flags: W
HStem: 402 76<124 155> 788 76<129 155>
VStem: 50 74<478 788> 155 74<477 788>
LayerCount: 2
Fore
SplineSet
50 864 m 5
 242 864 l 5
 229 744 l 5
 229 521 l 5
 242 402 l 5
 50 402 l 5
 50 864 l 5
129 788 m 5
 124 746 l 5
 124 478 l 5
 155 477 l 5
 155 788 l 5
 129 788 l 5
129 788 m 4
EndSplineSet
Validated: 1
EndChar

StartChar: uniE9C5
Encoding: 59845 59845 199
Width: 200
VWidth: 0
Flags: W
VStem: 63 74<457.385 808.615>
LayerCount: 2
Fore
SplineSet
50 864 m 5
 150 864 l 5
 137 744 l 5
 137 522 l 5
 150 402 l 5
 50 402 l 5
 63 520 l 5
 63 746 l 5
 50 864 l 5
50 864 m 4
EndSplineSet
Validated: 1
EndChar

StartChar: uniE9C6
Encoding: 59846 59846 200
Width: 350
VWidth: 0
Flags: W
HStem: 401 74<152 239> 750 114<95 169> 789 75<169 216>
VStem: 95 74<750 787> 216 74<729 789>
LayerCount: 2
Fore
SplineSet
95 864 m 5xd8
 290 864 l 5
 290 774 l 5
 305 655 l 5
 197 655 l 5
 152 475 l 5
 183 475 l 5
 303 490 l 5
 303 401 l 5
 45 401 l 5
 133 729 l 5
 216 729 l 5
 216 789 l 5xb8
 169 787 l 5
 169 750 l 5
 95 750 l 5
 95 864 l 5xd8
95 864 m 4xd8
EndSplineSet
Validated: 1
EndChar

StartChar: uniE9C7
Encoding: 59847 59847 201
Width: 336
VWidth: 0
Flags: W
HStem: 401 74<113 178> 752 112<59 133> 788 76<133 180>
VStem: 59 74<752 788> 180 74<735 788>
LayerCount: 2
Fore
SplineSet
49 401 m 5xb8
 49 490 l 5
 169 475 l 5
 178 475 l 5
 132 586 l 5
 45 736 l 5
 180 735 l 5
 180 788 l 5
 133 788 l 5xb8
 133 752 l 5
 59 752 l 5
 59 864 l 5xd8
 254 864 l 5
 254 779 l 5
 269 661 l 5
 185 661 l 5
 291 401 l 5
 49 401 l 5xb8
49 401 m 4
EndSplineSet
Validated: 1
EndChar

StartChar: uniE9C8
Encoding: 59848 59848 202
Width: 360
VWidth: 0
Flags: W
HStem: 524 75<156 211 288 318>
VStem: 197 89<401 456.067> 211 89<640.667 699> 211 77<468.429 524 599 632.333>
LayerCount: 2
Fore
SplineSet
181 864 m 5xc0
 290 864 l 5
 204 714 l 5
 156 599 l 5
 211 599 l 5x90
 211 699 l 5
 300 699 l 5xa0
 288 599 l 5x90
 318 599 l 5
 318 525 l 5
 285 525 l 5
 286 401 l 5
 197 401 l 5
 212 519 l 5
 212 524 l 5
 42 524 l 5
 181 864 l 5xc0
181 864 m 4
EndSplineSet
Validated: 1
EndChar

StartChar: uniE9C9
Encoding: 59849 59849 203
Width: 352
VWidth: 0
Flags: W
HStem: 401 114<96 170> 401 77<170 217> 790 74<153 240>
VStem: 96 74<478 515> 217 74<476 536>
LayerCount: 2
Fore
SplineSet
96 401 m 5xb8
 96 515 l 5
 170 515 l 5xb8
 170 478 l 5
 217 476 l 5
 217 536 l 5
 134 536 l 5
 46 864 l 5
 304 864 l 5
 304 775 l 5
 184 790 l 5
 153 790 l 5
 198 610 l 5
 306 611 l 5
 291 491 l 5
 291 401 l 5x78
 96 401 l 5xb8
96 401 m 4
EndSplineSet
Validated: 1
EndChar

StartChar: uniE9CA
Encoding: 59850 59850 204
Width: 278
VWidth: 0
Flags: W
HStem: 788 76<137 226>
VStem: 50 178<400 463.538 800.462 864> 63 74<468 608 683 788> 160 68<468 608>
LayerCount: 2
Fore
SplineSet
50 864 m 5xc0
 226 864 l 5
 226 788 l 5
 137 788 l 5
 137 683 l 5
 228 684 l 5xb0
 228 400 l 5
 50 400 l 5xc0
 63 518 l 5
 63 746 l 5xa0
 50 864 l 5xc0
137 608 m 5
 137 468 l 5
 154 468 l 5
 160 511 l 5
 160 608 l 5
 137 608 l 5
137 608 m 4
EndSplineSet
Validated: 1
EndChar

StartChar: uniE9CB
Encoding: 59851 59851 205
Width: 384
VWidth: 0
Flags: W
HStem: 790 74<48 228>
VStem: 43 298
LayerCount: 2
Fore
SplineSet
48 864 m 5
 341 864 l 5
 151 401 l 5
 43 401 l 5
 130 550 l 5
 228 790 l 5
 48 790 l 5
 48 864 l 5
48 864 m 4
EndSplineSet
Validated: 1
EndChar

StartChar: uniE9CC
Encoding: 59852 59852 206
Width: 296
VWidth: 0
Flags: W
VStem: 49 74<637 788> 83 74<476 611> 144 69<687 788> 178 70<476 636>
LayerCount: 2
Fore
SplineSet
48 864 m 5x80
 227 864 l 5
 213 744 l 5
 213 687 l 5xa0
 247 687 l 5
 248 401 l 5
 69 401 l 5
 83 520 l 5
 83 611 l 5x50
 49 611 l 5
 48 864 l 5x80
128 788 m 5
 123 746 l 5
 123 637 l 5
 144 637 l 5
 144 788 l 5
 128 788 l 5
157 636 m 5x50
 157 476 l 5
 173 476 l 5
 178 518 l 5
 178 636 l 5
 157 636 l 5x50
157 636 m 4
EndSplineSet
Validated: 1
EndChar

StartChar: uniE9CD
Encoding: 59853 59853 207
Width: 278
VWidth: 0
Flags: W
HStem: 400 75<52 141>
VStem: 50 178<400 463.538 800.462 864> 50 68<656 796> 141 74<475 580 656 796>
LayerCount: 2
Fore
SplineSet
228 400 m 5xc0
 52 400 l 5
 52 475 l 5
 141 475 l 5
 141 580 l 5
 50 580 l 5xb0
 50 864 l 5
 228 864 l 5xc0
 215 746 l 5
 215 518 l 5x90
 228 400 l 5xc0
141 656 m 5
 141 796 l 5
 124 796 l 5
 118 752 l 5
 118 656 l 5
 141 656 l 5
141 656 m 4
EndSplineSet
Validated: 1
EndChar

StartChar: uniE9CE
Encoding: 59854 59854 208
Width: 296
VWidth: 0
Flags: W
HStem: -342 76<126 157> 44 76<131 157>
VStem: 52 74<-266 44> 157 74<-267 44>
LayerCount: 2
Fore
SplineSet
52 120 m 5
 244 120 l 5
 231 0 l 5
 231 -223 l 5
 244 -342 l 5
 52 -342 l 5
 52 120 l 5
131 44 m 5
 126 2 l 5
 126 -266 l 5
 157 -267 l 5
 157 44 l 5
 131 44 l 5
131 44 m 4
EndSplineSet
Validated: 1
EndChar

StartChar: uniE9CF
Encoding: 59855 59855 209
Width: 204
VWidth: 0
Flags: W
VStem: 65 74<-288.615 62.6154>
LayerCount: 2
Fore
SplineSet
52 118 m 5
 152 118 l 5
 139 -2 l 5
 139 -224 l 5
 152 -344 l 5
 52 -344 l 5
 65 -226 l 5
 65 0 l 5
 52 118 l 5
52 118 m 4
EndSplineSet
Validated: 1
EndChar

StartChar: uniE9D0
Encoding: 59856 59856 210
Width: 354
VWidth: 0
Flags: W
HStem: -341 74<154 241> 8 113<97 171> 45 76<171 218>
VStem: 97 74<8 45> 218 74<-14 46>
LayerCount: 2
Fore
SplineSet
97 121 m 5xd8
 292 121 l 5
 292 32 l 5
 307 -88 l 5
 199 -88 l 5
 154 -267 l 5
 185 -267 l 5
 305 -252 l 5
 305 -341 l 5
 47 -341 l 5
 135 -14 l 5
 218 -14 l 5
 218 46 l 5
 171 45 l 5xb8
 171 8 l 5
 97 8 l 5
 97 121 l 5xd8
97 121 m 4xd8
EndSplineSet
Validated: 1
EndChar

StartChar: uniE9D1
Encoding: 59857 59857 211
Width: 340
VWidth: 0
Flags: W
HStem: -341 74<115 180> 9 112<61 135> 46 75<135 182>
VStem: 61 74<9 46> 182 74<-8 46>
LayerCount: 2
Fore
SplineSet
51 -341 m 5xb8
 51 -252 l 5
 171 -267 l 5
 180 -267 l 5
 134 -157 l 5
 47 -7 l 5
 182 -8 l 5
 182 46 l 5
 135 46 l 5xb8
 135 9 l 5
 61 9 l 5
 61 121 l 5xd8
 256 121 l 5
 256 36 l 5
 271 -82 l 5
 187 -82 l 5
 293 -341 l 5
 51 -341 l 5xb8
51 -341 m 4
EndSplineSet
Validated: 1
EndChar

StartChar: uniE9D2
Encoding: 59858 59858 212
Width: 364
VWidth: 0
Flags: W
HStem: -218 74<158 213 290 320>
VStem: 199 89<-341 -285.933> 213 89<-101.917 -43> 213 77<-273.571 -218 -144 -110.333>
LayerCount: 2
Fore
SplineSet
183 121 m 5xc0
 292 121 l 5
 206 -28 l 5
 158 -144 l 5
 213 -144 l 5x90
 213 -43 l 5
 302 -43 l 5xa0
 290 -144 l 5x90
 320 -144 l 5
 320 -218 l 5
 287 -218 l 5
 288 -341 l 5
 199 -341 l 5
 214 -223 l 5
 214 -218 l 5
 44 -218 l 5
 183 121 l 5xc0
183 121 m 4
EndSplineSet
Validated: 1
EndChar

StartChar: uniE9D3
Encoding: 59859 59859 213
Width: 360
VWidth: 0
Flags: W
HStem: -341 113<100 174> -341 76<174 221> 47 74<157 244>
VStem: 100 74<-265 -228> 221 74<-266 -206>
LayerCount: 2
Fore
SplineSet
100 -341 m 5xb8
 100 -228 l 5
 174 -228 l 5xb8
 174 -265 l 5
 221 -266 l 5
 221 -206 l 5
 138 -206 l 5
 50 121 l 5
 308 121 l 5
 308 32 l 5
 188 47 l 5
 157 47 l 5
 202 -132 l 5
 310 -132 l 5
 295 -252 l 5
 295 -341 l 5x78
 100 -341 l 5xb8
100 -341 m 4
EndSplineSet
Validated: 1
EndChar

StartChar: uniE9D4
Encoding: 59860 59860 214
Width: 280
VWidth: 0
Flags: W
HStem: 47 76<138 227>
VStem: 51 178<-341 -277.462 59.4615 123> 64 74<-273 -133 -58 47> 161 68<-273 -133>
LayerCount: 2
Fore
SplineSet
51 123 m 5xc0
 227 123 l 5
 227 47 l 5
 138 47 l 5
 138 -58 l 5
 229 -58 l 5xb0
 229 -341 l 5
 51 -341 l 5xc0
 64 -223 l 5
 64 5 l 5xa0
 51 123 l 5xc0
138 -133 m 5
 138 -273 l 5
 155 -273 l 5
 161 -230 l 5
 161 -133 l 5
 138 -133 l 5
138 -133 m 4
EndSplineSet
Validated: 1
EndChar

StartChar: uniE9D5
Encoding: 59861 59861 215
Width: 396
VWidth: 0
Flags: W
HStem: 48 74<54 234>
VStem: 49 298
LayerCount: 2
Fore
SplineSet
54 122 m 5
 347 122 l 5
 157 -341 l 5
 49 -341 l 5
 136 -192 l 5
 234 48 l 5
 54 48 l 5
 54 122 l 5
54 122 m 4
EndSplineSet
Validated: 1
EndChar

StartChar: uniE9D6
Encoding: 59862 59862 216
Width: 300
VWidth: 0
Flags: W
VStem: 51 74<-105 46> 85 74<-265 -131> 146 69<-55 46> 180 70<-265 -106>
LayerCount: 2
Fore
SplineSet
50 122 m 5x80
 229 122 l 5
 215 2 l 5
 215 -55 l 5xa0
 249 -55 l 5
 250 -341 l 5
 71 -341 l 5
 85 -221 l 5
 85 -131 l 5x50
 51 -131 l 5
 50 122 l 5x80
130 46 m 5
 125 4 l 5
 125 -105 l 5
 146 -105 l 5
 146 46 l 5
 130 46 l 5
159 -106 m 5x50
 159 -265 l 5
 175 -265 l 5
 180 -223 l 5
 180 -106 l 5
 159 -106 l 5x50
159 -106 m 4
EndSplineSet
Validated: 1
EndChar

StartChar: uniE9D7
Encoding: 59863 59863 217
Width: 282
VWidth: 0
Flags: W
HStem: -341 75<54 143>
VStem: 52 178<-341 -278 59.4615 123> 52 68<-85 55> 143 74<-266 -161 -85 55>
LayerCount: 2
Fore
SplineSet
230 -341 m 5xc0
 54 -341 l 5
 54 -266 l 5
 143 -266 l 5
 143 -161 l 5
 52 -161 l 5xb0
 52 123 l 5
 230 123 l 5xc0
 217 5 l 5
 217 -224 l 5x90
 230 -341 l 5xc0
143 -85 m 5
 143 55 l 5
 126 55 l 5
 120 11 l 5
 120 -85 l 5
 143 -85 l 5
143 -85 m 4
EndSplineSet
Validated: 1
EndChar

StartChar: uniE9D8
Encoding: 59864 59864 218
Width: 660
VWidth: 0
Flags: W
HStem: 0 201<234 426> 662 201<234 426>
VStem: 67 167<201 662> 308 31<276 587> 413 180<255.923 607.077>
LayerCount: 2
Fore
SplineSet
234 662 m 5
 234 201 l 5
 426 201 l 5
 413 320 l 5
 413 543 l 5
 426 662 l 5
 234 662 l 5
313 587 m 5
 339 587 l 5
 339 276 l 5
 308 276 l 5
 308 545 l 5
 313 587 l 5
313 587 m 4
44 863 m 5
 616 863 l 5
 593 660 l 5
 593 203 l 5
 616 0 l 5
 44 0 l 5
 67 203 l 5
 67 660 l 5
 44 863 l 5
44 863 m 4
EndSplineSet
Validated: 1
EndChar

StartChar: uniE9D9
Encoding: 59865 59865 219
Width: 660
VWidth: 0
Flags: W
HStem: 0 21G<44 616> 0 21G<44 616> 843 20G<44 616>
VStem: 67 226<255.462 607.538> 367 226<255.923 607.077>
LayerCount: 2
Fore
SplineSet
280 662 m 5x38
 293 544 l 5
 293 319 l 5
 280 201 l 5
 380 201 l 5
 367 320 l 5
 367 543 l 5
 380 662 l 5
 280 662 l 5x38
280 662 m 4
44 863 m 5
 616 863 l 5
 593 660 l 5
 593 203 l 5
 616 0 l 5
 44 0 l 5xb8
 67 203 l 5
 67 660 l 5
 44 863 l 5
44 863 m 4
EndSplineSet
Validated: 1
EndChar

StartChar: uniE9DA
Encoding: 59866 59866 220
Width: 660
VWidth: 0
Flags: W
HStem: 0 200<200 458> 528 58<324 372> 528 21<288 324> 663 200<250 446>
VStem: 67 183<549 663> 324 48<549 586> 446 147<513.5 663> 458 135<200 289 454 503.583>
LayerCount: 2
Fore
SplineSet
250 663 m 5xbe
 250 549 l 5
 324 549 l 5xbe
 324 586 l 5
 372 588 l 5
 372 528 l 5xde
 288 528 l 5
 200 200 l 5
 458 200 l 5
 458 289 l 5xbd
 338 274 l 5
 307 274 l 5
 352 454 l 5
 460 454 l 5
 446 573 l 5
 446 663 l 5
 250 663 l 5xbe
250 663 m 4
44 863 m 5
 616 863 l 5
 593 660 l 5x9e
 593 203 l 5x9d
 616 0 l 5
 44 0 l 5
 67 203 l 5
 67 660 l 5
 44 863 l 5
44 863 m 4
EndSplineSet
Validated: 1
EndChar

StartChar: uniE9DB
Encoding: 59867 59867 221
Width: 660
VWidth: 0
Flags: W
HStem: 0 200<211 453> 534 53<295 342> 535 16<221 295> 663 200<221 416>
VStem: 67 154<551 663> 67 144<200 289> 295 47<551 587> 416 177<522.933 663>
LayerCount: 2
Fore
SplineSet
211 200 m 5xb7
 453 200 l 5
 347 460 l 5
 431 460 l 5
 416 578 l 5
 416 663 l 5
 221 663 l 5
 221 551 l 5
 295 551 l 5xbb
 295 587 l 5
 342 587 l 5
 342 534 l 5xdb
 207 535 l 5
 294 385 l 5
 340 274 l 5
 331 274 l 5
 211 289 l 5
 211 200 l 5xb7
211 200 m 4x97
44 863 m 5
 616 863 l 5
 593 660 l 5
 593 203 l 5
 616 0 l 5
 44 0 l 5
 67 203 l 5x97
 67 660 l 5x9b
 44 863 l 5
44 863 m 4
EndSplineSet
Validated: 1
EndChar

StartChar: uniE9DC
Encoding: 59868 59868 222
Width: 660
VWidth: 0
Flags: W
HStem: 0 21G<44 616> 0 21G<44 616> 843 20G<44 616>
VStem: 305 56<398 414.429> 467 126<324 398>
LayerCount: 2
Fore
SplineSet
331 663 m 5x38
 192 323 l 5
 361 323 l 5
 361 318 l 5
 347 200 l 5
 436 200 l 5
 435 324 l 5
 467 324 l 5
 467 398 l 5
 437 398 l 5
 450 498 l 5
 361 498 l 5
 361 398 l 5
 305 398 l 5
 354 513 l 5
 440 663 l 5
 331 663 l 5x38
331 663 m 4
44 863 m 5
 616 863 l 5
 593 660 l 5
 593 203 l 5
 616 0 l 5
 44 0 l 5xb8
 67 203 l 5
 67 660 l 5
 44 863 l 5
44 863 m 4
EndSplineSet
Validated: 1
EndChar

StartChar: uniE9DD
Encoding: 59869 59869 223
Width: 660
VWidth: 0
Flags: W
HStem: 0 200<250 445> 275 60<324 371> 314 21<288 324> 663 200<200 458>
VStem: 67 183<200 314> 324 47<277 314> 458 135<363.846 410 574 663>
LayerCount: 2
Fore
SplineSet
250 200 m 5xbe
 445 200 l 5
 445 290 l 5
 460 410 l 5
 352 409 l 5
 307 589 l 5
 338 589 l 5
 458 574 l 5
 458 663 l 5
 200 663 l 5
 288 335 l 5xbe
 371 335 l 5
 371 275 l 5xde
 324 277 l 5
 324 314 l 5
 250 314 l 5
 250 200 l 5xbe
250 200 m 4
44 863 m 5
 616 863 l 5
 593 660 l 5
 593 203 l 5
 616 0 l 5
 44 0 l 5
 67 203 l 5
 67 660 l 5
 44 863 l 5
44 863 m 4
EndSplineSet
Validated: 1
EndChar

StartChar: uniE9DE
Encoding: 59870 59870 224
Width: 660
VWidth: 0
Flags: W
HStem: 0 200<241 419> 483 105<328 417> 663 200<241 417>
VStem: 67 187<254.462 609> 328 23<267 408> 419 174<200 483 588 663>
LayerCount: 2
Fore
SplineSet
241 663 m 5
 254 546 l 5
 254 318 l 5
 241 200 l 5
 419 200 l 5
 419 483 l 5
 328 483 l 5
 328 588 l 5
 417 588 l 5
 417 663 l 5
 241 663 l 5
328 408 m 5
 351 408 l 5
 351 311 l 5
 345 267 l 5
 328 267 l 5
 328 408 l 5
328 408 m 4
44 863 m 5
 616 863 l 5
 593 660 l 5
 593 203 l 5
 616 0 l 5
 44 0 l 5
 67 203 l 5
 67 660 l 5
 44 863 l 5
44 863 m 4
EndSplineSet
Validated: 1
EndChar

StartChar: uniE9DF
Encoding: 59871 59871 225
Width: 660
VWidth: 0
Flags: W
HStem: 0 21G<44 616> 0 21G<44 616> 663 200<186 479>
VStem: 67 119<589 663>
LayerCount: 2
Fore
SplineSet
186 663 m 5x30
 186 589 l 5
 366 589 l 5
 268 349 l 5
 181 200 l 5
 289 200 l 5
 479 663 l 5
 186 663 l 5x30
186 663 m 4
44 863 m 5
 616 863 l 5
 593 660 l 5
 593 203 l 5
 616 0 l 5
 44 0 l 5xb0
 67 203 l 5
 67 660 l 5
 44 863 l 5
44 863 m 4
EndSplineSet
Validated: 1
EndChar

StartChar: uniE9E0
Encoding: 59872 59872 226
Width: 660
VWidth: 0
Flags: W
HStem: 0 200<251 430> 663 200<230 409>
VStem: 67 198<260 410> 67 164<410 663> 305 21<436 587> 339 21<276 435> 395 198<486 603>
LayerCount: 2
Fore
SplineSet
230 663 m 5xee
 231 410 l 5xde
 265 410 l 5
 265 320 l 5
 251 200 l 5
 430 200 l 5
 429 486 l 5
 395 486 l 5
 395 543 l 5
 409 663 l 5
 230 663 l 5xee
310 587 m 5
 326 587 l 5
 326 436 l 5
 305 436 l 5
 305 545 l 5
 310 587 l 5
339 435 m 5
 360 435 l 5
 360 318 l 5
 355 276 l 5
 339 276 l 5
 339 435 l 5
339 435 m 4
44 863 m 5
 616 863 l 5
 593 660 l 5
 593 203 l 5
 616 0 l 5
 44 0 l 5
 67 203 l 5
 67 660 l 5
 44 863 l 5
44 863 m 4
EndSplineSet
Validated: 1
EndChar

StartChar: uniE9E1
Encoding: 59873 59873 227
Width: 660
VWidth: 0
Flags: W
HStem: 0 200<243 419> 275 105<243 332> 663 200<241 419>
VStem: 67 174<200 275 380 663> 309 23<455 596> 406 187<254 608.538>
LayerCount: 2
Fore
SplineSet
419 200 m 5
 406 317 l 5
 406 545 l 5
 419 663 l 5
 241 663 l 5
 241 380 l 5
 332 380 l 5
 332 275 l 5
 243 275 l 5
 243 200 l 5
 419 200 l 5
332 455 m 5
 309 455 l 5
 309 552 l 5
 315 596 l 5
 332 596 l 5
 332 455 l 5
332 455 m 4
616 0 m 5
 44 0 l 5
 67 203 l 5
 67 660 l 5
 44 863 l 5
 616 863 l 5
 593 660 l 5
 593 203 l 5
 616 0 l 5
616 0 m 4
EndSplineSet
Validated: 1
EndChar

StartChar: uniE9E2
Encoding: 59874 59874 228
Width: 730
VWidth: 0
Flags: W
HStem: 0 64<115 615> 198 75<343 374> 584 75<348 374> 793 64<115 615>
VStem: 70 64<173.192 683.808> 269 74<273 584> 374 74<273 584> 596 64<173.192 683.808>
LayerCount: 2
Fore
SplineSet
44 857 m 5
 686 857 l 5
 660 620 l 5
 660 237 l 5
 686 0 l 5
 44 0 l 5
 70 237 l 5
 70 620 l 5
 44 857 l 5
115 793 m 5
 134 623 l 5
 134 234 l 5
 115 64 l 5
 615 64 l 5
 596 234 l 5
 596 623 l 5
 615 793 l 5
 115 793 l 5
115 793 m 4
269 659 m 5
 461 659 l 5
 448 540 l 5
 448 317 l 5
 461 198 l 5
 269 198 l 5
 269 659 l 5
348 584 m 5
 343 542 l 5
 343 273 l 5
 374 273 l 5
 374 584 l 5
 348 584 l 5
348 584 m 4
EndSplineSet
Validated: 1
EndChar

StartChar: uniE9E3
Encoding: 59875 59875 229
Width: 730
VWidth: 0
Flags: W
HStem: 0 64<115 615> 793 64<115 615>
VStem: 70 64<173.192 683.808> 328 74<252.923 604.077> 596 64<173.192 683.808>
CounterMasks: 1 38
LayerCount: 2
Fore
SplineSet
315 659 m 5
 415 659 l 5
 402 540 l 5
 402 317 l 5
 415 198 l 5
 315 198 l 5
 328 316 l 5
 328 541 l 5
 315 659 l 5
315 659 m 4
44 857 m 5
 686 857 l 5
 660 620 l 5
 660 237 l 5
 686 0 l 5
 44 0 l 5
 70 237 l 5
 70 620 l 5
 44 857 l 5
115 793 m 5
 134 623 l 5
 134 234 l 5
 115 64 l 5
 615 64 l 5
 596 234 l 5
 596 623 l 5
 615 793 l 5
 115 793 l 5
115 793 m 4
EndSplineSet
Validated: 1
EndChar

StartChar: uniE9E4
Encoding: 59876 59876 230
Width: 730
VWidth: 0
Flags: W
HStem: 0 64<115 615> 197 74<342 429> 546 114<285 359> 585 75<359 407> 793 64<115 615>
VStem: 70 64<173.192 683.808> 285 74<546 583> 407 73<525 585> 596 64<173.192 683.808>
LayerCount: 2
Fore
SplineSet
44 857 m 5xcf80
 686 857 l 5
 660 620 l 5
 660 237 l 5
 686 0 l 5
 44 0 l 5
 70 237 l 5
 70 620 l 5
 44 857 l 5xcf80
115 793 m 5
 134 623 l 5
 134 234 l 5
 115 64 l 5
 615 64 l 5
 596 234 l 5
 596 623 l 5
 615 793 l 5
 115 793 l 5
115 793 m 4
285 660 m 5xef80
 480 660 l 5
 480 570 l 5
 495 451 l 5
 387 451 l 5
 342 271 l 5
 373 271 l 5
 493 286 l 5
 493 197 l 5
 235 197 l 5
 323 525 l 5
 407 525 l 5
 407 585 l 5xdf80
 359 583 l 5
 359 546 l 5
 285 546 l 5
 285 660 l 5xef80
285 660 m 4xef80
EndSplineSet
Validated: 1
EndChar

StartChar: uniE9E5
Encoding: 59877 59877 231
Width: 730
VWidth: 0
Flags: W
HStem: 0 64<115 615> 197 74<310 375> 548 112<256 330> 584 76<330 377> 793 64<115 615>
VStem: 70 64<173.192 683.808> 256 74<548 584> 377 74<531 584> 596 64<173.192 683.808>
LayerCount: 2
Fore
SplineSet
44 857 m 5xcf80
 686 857 l 5
 660 620 l 5
 660 237 l 5
 686 0 l 5
 44 0 l 5
 70 237 l 5
 70 620 l 5
 44 857 l 5xcf80
115 793 m 5
 134 623 l 5
 134 234 l 5
 115 64 l 5
 615 64 l 5
 596 234 l 5
 596 623 l 5
 615 793 l 5
 115 793 l 5
115 793 m 4
246 197 m 5
 246 286 l 5
 366 271 l 5
 375 271 l 5
 329 382 l 5
 242 532 l 5
 377 531 l 5
 377 584 l 5
 330 584 l 5xdf80
 330 548 l 5
 256 548 l 5
 256 660 l 5xef80
 451 660 l 5xdf80
 451 575 l 5
 466 457 l 5
 382 457 l 5
 488 197 l 5
 246 197 l 5
246 197 m 4
EndSplineSet
Validated: 1
EndChar

StartChar: uniE9E6
Encoding: 59878 59878 232
Width: 730
VWidth: 0
Flags: W
HStem: 0 64<115 615> 320 75<340 396 472 502> 793 64<115 615>
VStem: 70 64<173.192 683.808> 382 89<197 256> 396 89<441.154 495> 396 76<256 320 395 433.462> 596 64<173.192 683.808>
LayerCount: 2
Fore
SplineSet
44 857 m 5xf1
 686 857 l 5
 660 620 l 5
 660 237 l 5
 686 0 l 5
 44 0 l 5
 70 237 l 5
 70 620 l 5
 44 857 l 5xf1
115 793 m 5
 134 623 l 5
 134 234 l 5
 115 64 l 5
 615 64 l 5
 596 234 l 5
 596 623 l 5
 615 793 l 5
 115 793 l 5
115 793 m 4
366 660 m 5
 475 660 l 5
 389 510 l 5
 340 395 l 5
 396 395 l 5xf3
 396 495 l 5
 485 495 l 5xf5
 472 395 l 5xf3
 502 395 l 5
 502 321 l 5
 470 321 l 5
 471 197 l 5
 382 197 l 5xf9
 396 315 l 5
 396 320 l 5xf3
 228 320 l 5
 366 660 l 5
366 660 m 4
EndSplineSet
Validated: 1
EndChar

StartChar: uniE9E7
Encoding: 59879 59879 233
Width: 730
VWidth: 0
Flags: W
HStem: 0 64<115 615> 197 114<285 359> 197 77<359 406> 586 74<342 429> 793 64<115 615>
VStem: 70 64<173.192 683.808> 285 74<274 311> 406 74<272 332> 596 64<173.192 683.808>
LayerCount: 2
Fore
SplineSet
44 857 m 5x9f80
 686 857 l 5
 660 620 l 5
 660 237 l 5
 686 0 l 5
 44 0 l 5
 70 237 l 5
 70 620 l 5
 44 857 l 5x9f80
115 793 m 5
 134 623 l 5
 134 234 l 5
 115 64 l 5
 615 64 l 5
 596 234 l 5
 596 623 l 5
 615 793 l 5
 115 793 l 5
115 793 m 4
285 197 m 5xdf80
 285 311 l 5
 359 311 l 5xdf80
 359 274 l 5
 406 272 l 5
 406 332 l 5
 324 332 l 5
 235 660 l 5
 493 660 l 5
 493 571 l 5
 373 586 l 5
 342 586 l 5
 387 406 l 5
 495 407 l 5
 480 287 l 5
 480 197 l 5xbf80
 285 197 l 5xdf80
285 197 m 4
EndSplineSet
Validated: 1
EndChar

StartChar: uniE9E8
Encoding: 59880 59880 234
Width: 730
VWidth: 0
Flags: W
HStem: 0 64<115 615> 585 75<363 452> 793 64<115 615>
VStem: 70 64<173.192 683.808> 276 178<197 260.538 597 660> 289 74<264 405 480 585> 386 68<264 405> 596 64<173.192 683.808>
LayerCount: 2
Fore
SplineSet
44 857 m 5xf1
 686 857 l 5
 660 620 l 5
 660 237 l 5
 686 0 l 5
 44 0 l 5
 70 237 l 5
 70 620 l 5
 44 857 l 5xf1
115 793 m 5
 134 623 l 5
 134 234 l 5
 115 64 l 5
 615 64 l 5
 596 234 l 5
 596 623 l 5
 615 793 l 5
 115 793 l 5
115 793 m 4
276 660 m 5xf9
 452 660 l 5
 452 585 l 5
 363 585 l 5
 363 480 l 5
 454 480 l 5xf7
 454 197 l 5
 276 197 l 5xf9
 289 315 l 5
 289 543 l 5xf5
 276 660 l 5xf9
363 405 m 5
 363 264 l 5
 380 264 l 5
 386 308 l 5
 386 405 l 5
 363 405 l 5
363 405 m 4
EndSplineSet
Validated: 1
EndChar

StartChar: uniE9E9
Encoding: 59881 59881 235
Width: 730
VWidth: 0
Flags: W
HStem: 0 64<115 615> 586 74<221 401> 793 64<115 615>
VStem: 70 64<173.192 683.808> 596 64<173.192 683.808>
LayerCount: 2
Fore
SplineSet
44 857 m 5
 686 857 l 5
 660 620 l 5
 660 237 l 5
 686 0 l 5
 44 0 l 5
 70 237 l 5
 70 620 l 5
 44 857 l 5
115 793 m 5
 134 623 l 5
 134 234 l 5
 115 64 l 5
 615 64 l 5
 596 234 l 5
 596 623 l 5
 615 793 l 5
 115 793 l 5
115 793 m 4
221 660 m 5
 514 660 l 5
 324 197 l 5
 216 197 l 5
 303 346 l 5
 401 586 l 5
 221 586 l 5
 221 660 l 5
221 660 m 4
EndSplineSet
Validated: 1
EndChar

StartChar: uniE9EA
Encoding: 59882 59882 236
Width: 730
VWidth: 0
Flags: W
HStem: 0 64<115 615> 793 64<115 615>
VStem: 70 64<173.192 683.808> 266 74<433 584> 300 74<273 407> 361 69<483 584> 395 70<273 432> 596 64<173.192 683.808>
LayerCount: 2
Fore
SplineSet
44 857 m 5xe1
 686 857 l 5
 660 620 l 5
 660 237 l 5
 686 0 l 5
 44 0 l 5
 70 237 l 5
 70 620 l 5
 44 857 l 5xe1
115 793 m 5
 134 623 l 5
 134 234 l 5
 115 64 l 5
 615 64 l 5
 596 234 l 5
 596 623 l 5
 615 793 l 5
 115 793 l 5
115 793 m 4
265 660 m 5
 444 660 l 5
 430 540 l 5
 430 483 l 5xf5
 464 483 l 5
 465 197 l 5
 286 197 l 5
 300 317 l 5
 300 407 l 5xeb
 266 407 l 5xf1
 265 660 l 5
345 584 m 5
 340 542 l 5
 340 433 l 5
 361 433 l 5
 361 584 l 5
 345 584 l 5
374 432 m 5xeb
 374 273 l 5
 390 273 l 5
 395 315 l 5
 395 432 l 5
 374 432 l 5xeb
374 432 m 4
EndSplineSet
Validated: 1
EndChar

StartChar: uniE9EB
Encoding: 59883 59883 237
Width: 730
VWidth: 0
Flags: W
HStem: 0 64<115 615> 197 75<278 367> 793 64<115 615>
VStem: 70 64<173.192 683.808> 276 178<197 260 596.462 660> 276 68<452 593> 367 74<272 377 452 593> 596 64<173.192 683.808>
LayerCount: 2
Fore
SplineSet
44 857 m 5xf1
 686 857 l 5
 660 620 l 5
 660 237 l 5
 686 0 l 5
 44 0 l 5
 70 237 l 5
 70 620 l 5
 44 857 l 5xf1
115 793 m 5
 134 623 l 5
 134 234 l 5
 115 64 l 5
 615 64 l 5
 596 234 l 5
 596 623 l 5
 615 793 l 5
 115 793 l 5
115 793 m 4
454 197 m 5xf9
 278 197 l 5
 278 272 l 5
 367 272 l 5
 367 377 l 5
 276 377 l 5xf7
 276 660 l 5
 454 660 l 5xf9
 441 542 l 5
 441 314 l 5xf3
 454 197 l 5xf9
367 452 m 5
 367 593 l 5
 350 593 l 5
 344 549 l 5
 344 452 l 5
 367 452 l 5
367 452 m 4
EndSplineSet
Validated: 1
EndChar

StartChar: uniE9EC
Encoding: 59884 59884 238
Width: 692
VWidth: 0
Flags: W
HStem: 0 87<151 264 428 541> 201 75<324 355> 587 76<329 355> 776 87<151 264 428 541>
VStem: 67 84<141.217 721.783> 250 74<276 587> 355 74<276 587> 541 84<141.217 721.783>
LayerCount: 2
Fore
SplineSet
648 863 m 5
 625 660 l 5
 625 203 l 5
 648 0 l 5
 428 0 l 5
 428 87 l 5
 541 87 l 5
 541 776 l 5
 428 776 l 5
 428 863 l 5
 648 863 l 5
648 863 m 4
44 863 m 5
 264 863 l 5
 264 776 l 5
 151 776 l 5
 151 87 l 5
 264 87 l 5
 264 0 l 5
 44 0 l 5
 67 203 l 5
 67 660 l 5
 44 863 l 5
44 863 m 4
250 663 m 5
 442 663 l 5
 429 543 l 5
 429 320 l 5
 442 201 l 5
 250 201 l 5
 250 663 l 5
329 587 m 5
 324 545 l 5
 324 276 l 5
 355 276 l 5
 355 587 l 5
 329 587 l 5
329 587 m 4
EndSplineSet
Validated: 1
EndChar

StartChar: uniE9ED
Encoding: 59885 59885 239
Width: 692
VWidth: 0
Flags: W
HStem: 0 87<151 264 428 541> 776 87<151 264 428 541>
VStem: 67 84<141.217 721.783> 309 74<256.385 607.077> 541 84<141.217 721.783>
CounterMasks: 1 38
LayerCount: 2
Fore
SplineSet
648 863 m 5
 625 660 l 5
 625 203 l 5
 648 0 l 5
 428 0 l 5
 428 87 l 5
 541 87 l 5
 541 776 l 5
 428 776 l 5
 428 863 l 5
 648 863 l 5
648 863 m 4
44 863 m 5
 264 863 l 5
 264 776 l 5
 151 776 l 5
 151 87 l 5
 264 87 l 5
 264 0 l 5
 44 0 l 5
 67 203 l 5
 67 660 l 5
 44 863 l 5
44 863 m 4
296 662 m 5
 396 662 l 5
 383 543 l 5
 383 321 l 5
 396 201 l 5
 296 201 l 5
 309 319 l 5
 309 545 l 5
 296 662 l 5
296 662 m 4
EndSplineSet
Validated: 1
EndChar

StartChar: uniE9EE
Encoding: 59886 59886 240
Width: 692
VWidth: 0
Flags: W
HStem: 0 87<151 264 428 541> 200 74<323 410> 549 114<266 340> 588 75<340 388> 776 87<151 264 428 541>
VStem: 67 84<141.217 721.783> 266 74<549 586> 388 74<528 588> 541 84<141.217 721.783>
LayerCount: 2
Fore
SplineSet
648 863 m 5xcf80
 625 660 l 5
 625 203 l 5
 648 0 l 5
 428 0 l 5
 428 87 l 5
 541 87 l 5
 541 776 l 5
 428 776 l 5
 428 863 l 5
 648 863 l 5xcf80
648 863 m 4
44 863 m 5
 264 863 l 5
 264 776 l 5
 151 776 l 5
 151 87 l 5
 264 87 l 5
 264 0 l 5
 44 0 l 5
 67 203 l 5
 67 660 l 5
 44 863 l 5
44 863 m 4
266 663 m 5xef80
 462 663 l 5
 462 573 l 5
 476 454 l 5
 368 454 l 5
 323 274 l 5
 354 274 l 5
 474 289 l 5
 474 200 l 5
 216 200 l 5
 304 528 l 5
 388 528 l 5
 388 588 l 5xdf80
 340 586 l 5
 340 549 l 5
 266 549 l 5
 266 663 l 5xef80
266 663 m 4xef80
EndSplineSet
Validated: 1
EndChar

StartChar: uniE9EF
Encoding: 59887 59887 241
Width: 692
VWidth: 0
Flags: W
HStem: 0 87<151 264 428 541> 200 74<291 356> 551 112<236 310> 587 76<310 358> 776 87<151 264 428 541>
VStem: 67 84<141.217 721.783> 236 74<551 587> 358 74<534 587> 541 84<141.217 721.783>
LayerCount: 2
Fore
SplineSet
648 863 m 5xcf80
 625 660 l 5
 625 203 l 5
 648 0 l 5
 428 0 l 5
 428 87 l 5
 541 87 l 5
 541 776 l 5
 428 776 l 5
 428 863 l 5
 648 863 l 5xcf80
648 863 m 4
44 863 m 5
 264 863 l 5
 264 776 l 5
 151 776 l 5
 151 87 l 5
 264 87 l 5
 264 0 l 5
 44 0 l 5
 67 203 l 5
 67 660 l 5
 44 863 l 5
44 863 m 4
227 200 m 5
 227 289 l 5
 347 274 l 5
 356 274 l 5
 310 385 l 5
 223 535 l 5
 358 534 l 5
 358 587 l 5
 310 587 l 5xdf80
 310 551 l 5
 236 551 l 5
 236 663 l 5xef80
 432 663 l 5xdf80
 432 578 l 5
 446 460 l 5
 363 460 l 5
 469 200 l 5
 227 200 l 5
227 200 m 4
EndSplineSet
Validated: 1
EndChar

StartChar: uniE9F0
Encoding: 59888 59888 242
Width: 692
VWidth: 0
Flags: W
HStem: 0 87<151 264 428 541> 324 74<322 377 454 484> 776 87<151 264 428 541>
VStem: 67 84<141.217 721.783> 363 89<200 255.067> 377 89<440.083 499> 377 77<267.429 324 398 431.667> 541 84<141.217 721.783>
LayerCount: 2
Fore
SplineSet
347 663 m 5xf9
 456 663 l 5
 370 513 l 5
 322 398 l 5
 377 398 l 5xf3
 377 499 l 5
 466 499 l 5xf5
 454 398 l 5xf3
 484 398 l 5
 484 324 l 5
 451 324 l 5
 452 200 l 5
 363 200 l 5
 378 318 l 5
 378 324 l 5
 209 324 l 5
 347 663 l 5xf9
347 663 m 4
648 863 m 5
 625 660 l 5
 625 203 l 5
 648 0 l 5
 428 0 l 5
 428 87 l 5
 541 87 l 5
 541 776 l 5
 428 776 l 5
 428 863 l 5
 648 863 l 5
648 863 m 4
44 863 m 5
 264 863 l 5
 264 776 l 5
 151 776 l 5
 151 87 l 5
 264 87 l 5
 264 0 l 5
 44 0 l 5
 67 203 l 5
 67 660 l 5
 44 863 l 5
44 863 m 4
EndSplineSet
Validated: 1
EndChar

StartChar: uniE9F1
Encoding: 59889 59889 243
Width: 692
VWidth: 0
Flags: W
HStem: 0 87<151 264 428 541> 200 114<266 340> 200 77<340 387> 589 74<323 410> 776 87<151 264 428 541>
VStem: 67 84<141.217 721.783> 266 74<277 314> 387 74<275 335> 541 84<141.217 721.783>
LayerCount: 2
Fore
SplineSet
266 200 m 5xdf80
 266 314 l 5
 340 314 l 5xdf80
 340 277 l 5
 387 275 l 5
 387 335 l 5
 304 335 l 5
 216 663 l 5
 474 663 l 5
 474 574 l 5
 354 589 l 5
 323 589 l 5
 368 409 l 5
 476 410 l 5
 461 290 l 5
 461 200 l 5xbf80
 266 200 l 5xdf80
266 200 m 4
648 863 m 5
 625 660 l 5
 625 203 l 5
 648 0 l 5
 428 0 l 5
 428 87 l 5
 541 87 l 5
 541 776 l 5
 428 776 l 5
 428 863 l 5
 648 863 l 5
648 863 m 4
44 863 m 5
 264 863 l 5
 264 776 l 5
 151 776 l 5
 151 87 l 5
 264 87 l 5
 264 0 l 5
 44 0 l 5
 67 203 l 5
 67 660 l 5
 44 863 l 5
44 863 m 4
EndSplineSet
Validated: 1
EndChar

StartChar: uniE9F2
Encoding: 59890 59890 244
Width: 692
VWidth: 0
Flags: W
HStem: 0 87<151 264 428 541> 588 76<344 433> 776 87<151 264 428 541>
VStem: 67 84<141.217 721.783> 257 178<200 263.538 600.462 664> 270 74<268 408 483 588> 367 68<268 408> 541 84<141.217 721.783>
LayerCount: 2
Fore
SplineSet
648 863 m 5xf1
 625 660 l 5
 625 203 l 5
 648 0 l 5
 428 0 l 5
 428 87 l 5
 541 87 l 5
 541 776 l 5
 428 776 l 5
 428 863 l 5
 648 863 l 5xf1
648 863 m 4
44 863 m 5
 264 863 l 5
 264 776 l 5
 151 776 l 5
 151 87 l 5
 264 87 l 5
 264 0 l 5
 44 0 l 5
 67 203 l 5
 67 660 l 5
 44 863 l 5
44 863 m 4
257 664 m 5xf9
 433 664 l 5
 433 588 l 5
 344 588 l 5
 344 483 l 5
 435 483 l 5xf7
 435 200 l 5
 257 200 l 5xf9
 270 318 l 5
 270 546 l 5xf5
 257 664 l 5xf9
344 408 m 5
 344 268 l 5
 361 268 l 5
 367 311 l 5
 367 408 l 5
 344 408 l 5
344 408 m 4
EndSplineSet
Validated: 1
EndChar

StartChar: uniE9F3
Encoding: 59891 59891 245
Width: 692
VWidth: 0
Flags: W
HStem: 0 87<151 264 428 541> 589 74<202 382> 776 87<151 264 428 541>
VStem: 67 84<141.217 721.783> 541 84<141.217 721.783>
LayerCount: 2
Fore
SplineSet
648 863 m 5
 625 660 l 5
 625 203 l 5
 648 0 l 5
 428 0 l 5
 428 87 l 5
 541 87 l 5
 541 776 l 5
 428 776 l 5
 428 863 l 5
 648 863 l 5
648 863 m 4
44 863 m 5
 264 863 l 5
 264 776 l 5
 151 776 l 5
 151 87 l 5
 264 87 l 5
 264 0 l 5
 44 0 l 5
 67 203 l 5
 67 660 l 5
 44 863 l 5
44 863 m 4
202 663 m 5
 495 663 l 5
 305 200 l 5
 197 200 l 5
 284 349 l 5
 382 589 l 5
 202 589 l 5
 202 663 l 5
202 663 m 4
EndSplineSet
Validated: 1
EndChar

StartChar: uniE9F4
Encoding: 59892 59892 246
Width: 692
VWidth: 0
Flags: W
HStem: 0 87<151 264 428 541> 776 87<151 264 428 541>
VStem: 67 84<141.217 721.783> 247 74<436 587> 281 74<276 410> 342 69<486 587> 376 70<276 435> 541 84<141.217 721.783>
LayerCount: 2
Fore
SplineSet
648 863 m 5xe1
 625 660 l 5
 625 203 l 5
 648 0 l 5
 428 0 l 5
 428 87 l 5
 541 87 l 5
 541 776 l 5
 428 776 l 5
 428 863 l 5
 648 863 l 5xe1
648 863 m 4
44 863 m 5
 264 863 l 5
 264 776 l 5
 151 776 l 5
 151 87 l 5
 264 87 l 5
 264 0 l 5
 44 0 l 5
 67 203 l 5
 67 660 l 5
 44 863 l 5
44 863 m 4
246 663 m 5
 425 663 l 5
 411 543 l 5
 411 486 l 5xf5
 445 486 l 5
 446 200 l 5
 267 200 l 5
 281 320 l 5
 281 410 l 5xeb
 247 410 l 5xf1
 246 663 l 5
326 587 m 5
 321 545 l 5
 321 436 l 5
 342 436 l 5
 342 587 l 5
 326 587 l 5
355 435 m 5xeb
 355 276 l 5
 371 276 l 5
 376 318 l 5
 376 435 l 5
 355 435 l 5xeb
355 435 m 4
EndSplineSet
Validated: 1
EndChar

StartChar: uniE9F5
Encoding: 59893 59893 247
Width: 692
VWidth: 0
Flags: W
HStem: 0 87<151 264 428 541> 200 75<259 348> 776 87<151 264 428 541>
VStem: 67 84<141.217 721.783> 257 178<200 263 600.462 664> 257 68<456 596> 348 74<275 380 456 596> 541 84<141.217 721.783>
LayerCount: 2
Fore
SplineSet
648 863 m 5xf1
 625 660 l 5
 625 203 l 5
 648 0 l 5
 428 0 l 5
 428 87 l 5
 541 87 l 5
 541 776 l 5
 428 776 l 5
 428 863 l 5
 648 863 l 5xf1
648 863 m 4
44 863 m 5
 264 863 l 5
 264 776 l 5
 151 776 l 5
 151 87 l 5
 264 87 l 5
 264 0 l 5
 44 0 l 5
 67 203 l 5
 67 660 l 5
 44 863 l 5
44 863 m 4
435 200 m 5xf9
 259 200 l 5
 259 275 l 5
 348 275 l 5
 348 380 l 5
 257 380 l 5xf7
 257 664 l 5
 435 664 l 5xf9
 422 546 l 5
 422 317 l 5xf3
 435 200 l 5xf9
348 456 m 5
 348 596 l 5
 331 596 l 5
 325 552 l 5
 325 456 l 5
 348 456 l 5
348 456 m 4
EndSplineSet
Validated: 1
EndChar

StartChar: uniE9F6
Encoding: 59894 59894 248
Width: 1142
VWidth: 0
Flags: W
HStem: 0 21G<209.833 359 783 932.167> 0 21G<209.833 359 783 932.167> 200 76<549 580> 586 76<554 580> 842 20G<209.833 359 783 932.167>
VStem: 475 74<276 586> 580 74<275 586>
LayerCount: 2
Fore
SplineSet
842 607 m 5x3e
 914 430 l 5
 842 255 l 5
 744 255 l 5
 816 430 l 5
 744 607 l 5
 842 607 l 5x3e
842 607 m 4
783 862 m 5
 924 862 l 5
 1100 431 l 5
 924 0 l 5
 783 0 l 5xbe
 930 254 l 5
 1002 431 l 5
 930 608 l 5
 783 862 l 5
783 862 m 4
300 607 m 5
 398 607 l 5
 326 430 l 5
 398 255 l 5
 300 255 l 5
 228 430 l 5
 300 607 l 5
300 607 m 4
359 862 m 5
 212 608 l 5
 140 431 l 5
 212 254 l 5
 359 0 l 5
 218 0 l 5
 42 431 l 5
 218 862 l 5
 359 862 l 5
359 862 m 4
475 662 m 5
 667 662 l 5
 654 542 l 5
 654 319 l 5
 667 200 l 5
 475 200 l 5
 475 662 l 5
554 586 m 5
 549 544 l 5
 549 276 l 5
 580 275 l 5
 580 586 l 5
 554 586 l 5
554 586 m 4
EndSplineSet
Validated: 1
EndChar

StartChar: uniE9F7
Encoding: 59895 59895 249
Width: 1142
VWidth: 0
Flags: W
HStem: 0 21G<209.833 359 783 932.167> 0 21G<209.833 359 783 932.167> 842 20G<209.833 359 783 932.167>
VStem: 534 74<255.385 606.615>
LayerCount: 2
Fore
SplineSet
842 607 m 5x30
 914 430 l 5
 842 255 l 5
 744 255 l 5
 816 430 l 5
 744 607 l 5
 842 607 l 5x30
842 607 m 4
783 862 m 5
 924 862 l 5
 1100 431 l 5
 924 0 l 5
 783 0 l 5xb0
 930 254 l 5
 1002 431 l 5
 930 608 l 5
 783 862 l 5
783 862 m 4
300 607 m 5
 398 607 l 5
 326 430 l 5
 398 255 l 5
 300 255 l 5
 228 430 l 5
 300 607 l 5
300 607 m 4
359 862 m 5
 212 608 l 5
 140 431 l 5
 212 254 l 5
 359 0 l 5
 218 0 l 5
 42 431 l 5
 218 862 l 5
 359 862 l 5
359 862 m 4
521 662 m 5
 621 662 l 5
 608 542 l 5
 608 320 l 5
 621 200 l 5
 521 200 l 5
 534 318 l 5
 534 544 l 5
 521 662 l 5
521 662 m 4
EndSplineSet
Validated: 1
EndChar

StartChar: uniE9F8
Encoding: 59896 59896 250
Width: 1142
VWidth: 0
Flags: W
HStem: 0 21G<209.833 359 783 932.167> 0 21G<209.833 359 783 932.167> 200 74<548 639> 549 113<491 565> 586 76<565 612> 842 20G<209.833 359 783 932.167>
VStem: 491 74<549 586> 612 74<527 587>
LayerCount: 2
Fore
SplineSet
842 607 m 5x27
 914 430 l 5
 842 255 l 5
 744 255 l 5
 816 430 l 5
 744 607 l 5
 842 607 l 5x27
842 607 m 4
783 862 m 5
 924 862 l 5
 1100 431 l 5
 924 0 l 5
 783 0 l 5xa7
 930 254 l 5
 1002 431 l 5
 930 608 l 5
 783 862 l 5
783 862 m 4
300 607 m 5
 398 607 l 5
 326 430 l 5
 398 255 l 5
 300 255 l 5
 228 430 l 5
 300 607 l 5
300 607 m 4
359 862 m 5
 212 608 l 5
 140 431 l 5
 212 254 l 5
 359 0 l 5
 218 0 l 5
 42 431 l 5
 218 862 l 5
 359 862 l 5
359 862 m 4
491 662 m 5x37
 686 662 l 5
 686 573 l 5
 701 453 l 5
 593 453 l 5
 548 274 l 5
 579 274 l 5
 699 288 l 5
 699 200 l 5
 441 200 l 5
 529 527 l 5
 612 527 l 5
 612 587 l 5
 565 586 l 5x2f
 565 549 l 5
 491 549 l 5
 491 662 l 5x37
491 662 m 4x37
EndSplineSet
Validated: 1
EndChar

StartChar: uniE9F9
Encoding: 59897 59897 251
Width: 1142
VWidth: 0
Flags: W
HStem: 0 21G<209.833 359 783 932.167> 0 21G<209.833 359 783 932.167> 200 74<512 581> 550 112<462 536> 587 75<536 583> 842 20G<209.833 359 783 932.167>
VStem: 462 74<550 587> 583 74<533 587>
LayerCount: 2
Fore
SplineSet
842 607 m 5x27
 914 430 l 5
 842 255 l 5
 744 255 l 5
 816 430 l 5
 744 607 l 5
 842 607 l 5x27
842 607 m 4
783 862 m 5
 924 862 l 5
 1100 431 l 5
 924 0 l 5
 783 0 l 5xa7
 930 254 l 5
 1002 431 l 5
 930 608 l 5
 783 862 l 5
783 862 m 4
300 607 m 5
 398 607 l 5
 326 430 l 5
 398 255 l 5
 300 255 l 5
 228 430 l 5
 300 607 l 5
300 607 m 4
359 862 m 5
 212 608 l 5
 140 431 l 5
 212 254 l 5
 359 0 l 5
 218 0 l 5
 42 431 l 5
 218 862 l 5
 359 862 l 5
359 862 m 4
452 200 m 5
 452 288 l 5
 572 274 l 5
 581 274 l 5
 535 384 l 5
 448 534 l 5
 583 533 l 5
 583 587 l 5
 536 587 l 5x2f
 536 550 l 5
 462 550 l 5
 462 662 l 5x37
 657 662 l 5x2f
 657 577 l 5
 672 459 l 5
 588 459 l 5
 694 200 l 5
 452 200 l 5
452 200 m 4
EndSplineSet
Validated: 1
EndChar

StartChar: uniE9FA
Encoding: 59898 59898 252
Width: 1142
VWidth: 0
Flags: W
HStem: 0 21G<209.833 359 783 932.167> 0 21G<209.833 359 783 932.167> 323 74<547 602 679 709> 842 20G<209.833 359 783 932.167>
VStem: 588 89<200 258.5> 602 89<439.083 498> 602 77<258.5 323 397 430.667>
LayerCount: 2
Fore
SplineSet
842 607 m 5x30
 914 430 l 5
 842 255 l 5
 744 255 l 5
 816 430 l 5
 744 607 l 5
 842 607 l 5x30
842 607 m 4
783 862 m 5
 924 862 l 5
 1100 431 l 5
 924 0 l 5
 783 0 l 5xb0
 930 254 l 5
 1002 431 l 5
 930 608 l 5
 783 862 l 5
783 862 m 4
300 607 m 5
 398 607 l 5
 326 430 l 5
 398 255 l 5
 300 255 l 5
 228 430 l 5
 300 607 l 5
300 607 m 4
359 862 m 5
 212 608 l 5
 140 431 l 5
 212 254 l 5
 359 0 l 5
 218 0 l 5
 42 431 l 5
 218 862 l 5
 359 862 l 5
359 862 m 4
572 662 m 5
 681 662 l 5
 595 513 l 5
 547 397 l 5
 602 397 l 5x32
 602 498 l 5
 691 498 l 5x34
 679 397 l 5x32
 709 397 l 5
 709 323 l 5
 676 323 l 5
 677 200 l 5
 588 200 l 5x38
 602 317 l 5
 602 323 l 5x32
 433 323 l 5
 572 662 l 5
572 662 m 4
EndSplineSet
Validated: 1
EndChar

StartChar: uniE9FB
Encoding: 59899 59899 253
Width: 1142
VWidth: 0
Flags: W
HStem: 0 21G<209.833 359 783 932.167> 0 21G<209.833 359 783 932.167> 200 113<491 565> 200 76<565 613> 588 74<548 635> 842 20G<209.833 359 783 932.167>
VStem: 491 74<276 313> 613 74<275 334>
LayerCount: 2
Fore
SplineSet
842 607 m 5x0f
 914 430 l 5
 842 255 l 5
 744 255 l 5
 816 430 l 5
 744 607 l 5
 842 607 l 5x0f
842 607 m 4
783 862 m 5
 924 862 l 5
 1100 431 l 5
 924 0 l 5
 783 0 l 5x8f
 930 254 l 5
 1002 431 l 5
 930 608 l 5
 783 862 l 5
783 862 m 4
300 607 m 5
 398 607 l 5
 326 430 l 5
 398 255 l 5
 300 255 l 5
 228 430 l 5
 300 607 l 5
300 607 m 4
359 862 m 5
 212 608 l 5
 140 431 l 5
 212 254 l 5
 359 0 l 5
 218 0 l 5
 42 431 l 5
 218 862 l 5
 359 862 l 5
359 862 m 4
491 200 m 5x2f
 491 313 l 5
 565 313 l 5x2f
 565 276 l 5
 613 275 l 5
 613 334 l 5
 530 334 l 5
 441 662 l 5
 699 662 l 5
 699 573 l 5
 579 588 l 5
 548 588 l 5
 593 409 l 5
 701 409 l 5
 687 289 l 5
 687 200 l 5x1f
 491 200 l 5x2f
491 200 m 4
EndSplineSet
Validated: 1
EndChar

StartChar: uniE9FC
Encoding: 59900 59900 254
Width: 1142
VWidth: 0
Flags: W
HStem: 0 21G<209.833 359 783 932.167> 0 21G<209.833 359 783 932.167> 587 76<569 658> 842 20G<209.833 359 783 932.167>
VStem: 482 178<199 262.538 599.462 663> 495 74<267 407 482 587> 592 68<267 407>
LayerCount: 2
Fore
SplineSet
482 663 m 5x38
 658 663 l 5
 658 587 l 5
 569 587 l 5
 569 482 l 5
 660 483 l 5x36
 660 199 l 5
 482 199 l 5x38
 495 317 l 5
 495 545 l 5x34
 482 663 l 5x38
569 407 m 5
 569 267 l 5
 586 267 l 5
 592 310 l 5
 592 407 l 5
 569 407 l 5
569 407 m 4
842 607 m 5
 914 430 l 5
 842 255 l 5
 744 255 l 5
 816 430 l 5
 744 607 l 5
 842 607 l 5
842 607 m 4
783 862 m 5
 924 862 l 5
 1100 431 l 5
 924 0 l 5
 783 0 l 5xb0
 930 254 l 5
 1002 431 l 5
 930 608 l 5
 783 862 l 5
783 862 m 4
300 607 m 5
 398 607 l 5
 326 430 l 5
 398 255 l 5
 300 255 l 5
 228 430 l 5
 300 607 l 5
300 607 m 4
359 862 m 5
 212 608 l 5
 140 431 l 5
 212 254 l 5
 359 0 l 5
 218 0 l 5
 42 431 l 5
 218 862 l 5
 359 862 l 5
359 862 m 4
EndSplineSet
Validated: 1
EndChar

StartChar: uniE9FD
Encoding: 59901 59901 255
Width: 1142
VWidth: 0
Flags: W
HStem: 0 21G<209.833 359 783 932.167> 0 21G<209.833 359 783 932.167> 588 74<427 607> 842 20G<209.833 359 783 932.167>
LayerCount: 2
Fore
SplineSet
427 662 m 5x30
 720 662 l 5
 530 199 l 5
 422 199 l 5
 508 349 l 5
 607 588 l 5
 427 588 l 5
 427 662 l 5x30
427 662 m 4
842 607 m 5
 914 430 l 5
 842 255 l 5
 744 255 l 5
 816 430 l 5
 744 607 l 5
 842 607 l 5
842 607 m 4
783 862 m 5
 924 862 l 5
 1100 431 l 5
 924 0 l 5
 783 0 l 5xb0
 930 254 l 5
 1002 431 l 5
 930 608 l 5
 783 862 l 5
783 862 m 4
300 607 m 5
 398 607 l 5
 326 430 l 5
 398 255 l 5
 300 255 l 5
 228 430 l 5
 300 607 l 5
300 607 m 4
359 862 m 5
 212 608 l 5
 140 431 l 5
 212 254 l 5
 359 0 l 5
 218 0 l 5
 42 431 l 5
 218 862 l 5
 359 862 l 5
359 862 m 4
EndSplineSet
Validated: 1
EndChar

StartChar: uniE9FE
Encoding: 59902 59902 256
Width: 1142
VWidth: 0
Flags: W
HStem: 0 21G<209.833 359 783 932.167> 0 21G<209.833 359 783 932.167> 842 20G<209.833 359 783 932.167>
VStem: 472 74<435 587> 506 74<275 410> 567 69<485 587> 601 70<275 435>
LayerCount: 2
Fore
SplineSet
842 607 m 5x20
 914 430 l 5
 842 255 l 5
 744 255 l 5
 816 430 l 5
 744 607 l 5
 842 607 l 5x20
842 607 m 4
783 862 m 5
 924 862 l 5
 1100 431 l 5
 924 0 l 5
 783 0 l 5xa0
 930 254 l 5
 1002 431 l 5
 930 608 l 5
 783 862 l 5
783 862 m 4
300 607 m 5
 398 607 l 5
 326 430 l 5
 398 255 l 5
 300 255 l 5
 228 430 l 5
 300 607 l 5
300 607 m 4
359 862 m 5
 212 608 l 5
 140 431 l 5
 212 254 l 5
 359 0 l 5
 218 0 l 5
 42 431 l 5
 218 862 l 5
 359 862 l 5
359 862 m 4
471 662 m 5
 650 662 l 5
 636 543 l 5
 636 485 l 5x34
 670 485 l 5
 671 199 l 5
 492 199 l 5
 506 319 l 5
 506 410 l 5x2a
 472 410 l 5x30
 471 662 l 5
551 587 m 5
 546 545 l 5
 546 435 l 5
 567 435 l 5
 567 587 l 5
 551 587 l 5
580 435 m 5x2a
 580 275 l 5
 596 275 l 5
 601 317 l 5
 601 435 l 5
 580 435 l 5x2a
580 435 m 4
EndSplineSet
Validated: 1
EndChar

StartChar: uniE9FF
Encoding: 59903 59903 257
Width: 1142
VWidth: 0
Flags: W
HStem: 0 21G<209.833 359 783 932.167> 0 21G<209.833 359 783 932.167> 199 75<484 573> 842 20G<209.833 359 783 932.167>
VStem: 482 178<199 262.538 599.462 663> 482 68<455 595> 573 74<274 379 455 595>
LayerCount: 2
Fore
SplineSet
842 607 m 5x30
 914 430 l 5
 842 255 l 5
 744 255 l 5
 816 430 l 5
 744 607 l 5
 842 607 l 5x30
842 607 m 4
783 862 m 5
 924 862 l 5
 1100 431 l 5
 924 0 l 5
 783 0 l 5xb0
 930 254 l 5
 1002 431 l 5
 930 608 l 5
 783 862 l 5
783 862 m 4
300 607 m 5
 398 607 l 5
 326 430 l 5
 398 255 l 5
 300 255 l 5
 228 430 l 5
 300 607 l 5
300 607 m 4
359 862 m 5
 212 608 l 5
 140 431 l 5
 212 254 l 5
 359 0 l 5
 218 0 l 5
 42 431 l 5
 218 862 l 5
 359 862 l 5
359 862 m 4
660 199 m 5x38
 484 199 l 5
 484 274 l 5
 573 274 l 5
 573 379 l 5
 482 379 l 5x36
 482 663 l 5
 660 663 l 5x38
 647 545 l 5
 647 317 l 5x32
 660 199 l 5x38
573 455 m 5
 573 595 l 5
 556 595 l 5
 550 551 l 5
 550 455 l 5
 573 455 l 5
573 455 m 4
EndSplineSet
Validated: 1
EndChar

StartChar: uniEA00
Encoding: 59904 59904 258
Width: 1820
VWidth: 0
Flags: W
HStem: 0 21G<42 192.278 563 712.144 1150 1239.23> 0 21G<42 192.278 563 712.144 1150 1239.23> 363 87<670 754> 776 87<1055 1150>
VStem: 584 86<450 964> 1150 81<262 776>
LayerCount: 2
Fore
SplineSet
589 1227 m 5xbc
 670 1227 l 5
 670 450 l 5
 790 450 l 5
 1109 1227 l 5
 1203 1227 l 5
 1055 863 l 5
 1236 863 l 5
 1237 262 l 5
 1636 1227 l 5
 1778 1227 l 5
 1631 972 l 5
 1231 0 l 5
 1150 0 l 5
 1150 776 l 5
 1020 776 l 5
 704 0 l 5
 563 0 l 5
 710 254 l 5
 754 363 l 5
 584 363 l 5
 583 964 l 5
 184 0 l 5
 42 0 l 5
 189 254 l 5
 589 1227 l 5xbc
589 1227 m 4
EndSplineSet
Validated: 1
EndChar

StartChar: uniEA01
Encoding: 59905 59905 259
Width: 1512
VWidth: 0
Flags: W
HStem: 0 21G<580.77 670 1320.72 1470> 0 21G<580.77 670 1320.72 1470> 363 87<670 842> 776 87<670 842>
VStem: 589 81<262 363 450 776> 842 88<450 776 863 964>
LayerCount: 2
Fore
SplineSet
42 1227 m 1xbc
 184 1227 l 1
 583 262 l 1
 584 863 l 1
 842 863 l 1
 842 1227 l 1
 924 1227 l 1
 1323 254 l 1
 1470 0 l 1
 1329 0 l 1
 930 964 l 1
 929 363 l 1
 670 363 l 1
 670 0 l 1
 589 0 l 1
 189 972 l 1
 42 1227 l 1xbc
670 776 m 1
 670 450 l 1
 842 450 l 1
 842 776 l 1
 670 776 l 1
670 776 m 0
EndSplineSet
Validated: 1
EndChar

StartChar: uniEA02
Encoding: 59906 59906 260
Width: 1476
VWidth: 0
Flags: W
HStem: 0 21G<579.79 670 806 896.21> 0 21G<579.79 670 806 896.21> 776 87<670 806>
VStem: 588 82<262 776> 806 82<262 776>
LayerCount: 2
Fore
SplineSet
42 1227 m 1xb8
 183 1227 l 1
 582 262 l 1
 583 863 l 1
 893 863 l 1
 894 262 l 1
 1293 1227 l 1
 1434 1227 l 1
 1287 972 l 1
 888 0 l 1
 806 0 l 1
 806 776 l 1
 670 776 l 1
 670 0 l 1
 588 0 l 1
 189 972 l 1
 42 1227 l 1xb8
42 1227 m 0
EndSplineSet
Validated: 1
EndChar

StartChar: uniEA03
Encoding: 59907 59907 261
Width: 1308
VWidth: 0
Flags: W
HStem: 0 21G<579.79 670> 0 21G<579.79 670> 776 87<670 758>
VStem: 588 82<262 776>
LayerCount: 2
Fore
SplineSet
625 -363 m 1xb0
 772 -109 l 1
 961 351 l 1
 855 609 l 1
 758 776 l 1
 670 776 l 1
 670 0 l 1
 588 0 l 1
 189 972 l 1
 42 1227 l 1
 183 1227 l 1
 582 262 l 1
 583 863 l 1
 849 863 l 1
 1011 473 l 1
 1171 863 l 1
 1266 863 l 1
 766 -363 l 1
 625 -363 l 1xb0
625 -363 m 0
EndSplineSet
Validated: 1
EndChar

StartChar: uniEA04
Encoding: 59908 59908 262
Width: 704
VWidth: 0
Flags: W
HStem: 0 85<282 570> 776 85<134 418>
VStem: 50 84<0 776> 198 84<148.346 460> 310 84<401 460> 418 84<401 714.84> 570 84<85 862>
LayerCount: 2
Fore
SplineSet
527 861 m 5
 502 658 l 5
 502 314 l 5
 310 314 l 5
 310 460 l 5
 282 460 l 5
 282 85 l 5
 570 85 l 5
 570 862 l 5
 654 862 l 5
 654 1 l 5
 172 0 l 5
 198 203 l 5
 198 547 l 5
 394 547 l 5
 394 401 l 5
 418 401 l 5
 418 777 l 5
 134 776 l 5
 134 0 l 5
 50 0 l 5
 51 861 l 5
 527 861 l 5
527 861 m 4
EndSplineSet
Validated: 1
EndChar

StartChar: uniEA05
Encoding: 59909 59909 263
Width: 770
VWidth: 0
Flags: W
HStem: 0 21G<280 728> 0 21G<280 728> 327 87<218.25 280> 519 84<517 586> 638 87<184 343> 774 87<427 586> 895 85<184 253> 1084 87<490 551.4>
VStem: 100 84<725 833.84> 343 84<725 774> 586 84<664.88 774>
CounterMasks: 1 00e0
LayerCount: 2
Fore
SplineSet
42 1499 m 5xbfe0
 490 1498 l 5
 490 1171 l 5
 494 1171 l 5
 658 1191 l 5
 658 1084 l 5
 319 1084 l 5
 429 894 l 5
 184 895 l 5
 184 725 l 5
 343 725 l 5
 343 861 l 5
 670 861 l 5
 670 722 l 5
 695 518 l 5
 517 519 l 5
 694 84 l 5
 728 0 l 5
 280 0 l 5
 280 327 l 5
 276 327 l 5
 111 307 l 5
 111 414 l 5
 450 414 l 5
 341 604 l 5
 586 603 l 5
 586 774 l 5
 427 774 l 5
 427 638 l 5
 100 638 l 5
 100 777 l 5
 75 980 l 5
 253 980 l 5
 76 1415 l 5
 42 1499 l 5xbfe0
42 1499 m 4
EndSplineSet
Validated: 1
EndChar

StartChar: uniEA06
Encoding: 59910 59910 264
Width: 1494
VWidth: 0
Flags: W
HStem: 0 21G<771 920.167 1134 1283.17> 0 21G<771 920.167 1134 1283.17> 389 84<184.217 764.783> 842 20G<771 920.167 1134 1283.17>
LayerCount: 2
Fore
SplineSet
1275 862 m 5xb0
 1451 431 l 5
 1275 0 l 5
 1134 0 l 5
 1281 254 l 5
 1354 431 l 5
 1281 608 l 5
 1134 862 l 5
 1275 862 l 5xb0
912 862 m 5
 1088 431 l 5
 912 0 l 5
 771 0 l 5
 918 254 l 5
 990 431 l 5
 918 608 l 5
 771 862 l 5
 912 862 l 5
1198 607 m 5
 1270 430 l 5
 1198 255 l 5
 1100 255 l 5
 1172 430 l 5
 1100 607 l 5
 1198 607 l 5
906 495 m 5
 906 366 l 5
 703 389 l 5
 246 389 l 5
 43 366 l 5
 43 495 l 5
 246 473 l 5
 703 473 l 5
 906 495 l 5
906 495 m 4
EndSplineSet
Validated: 1
EndChar

StartChar: uniEA07
Encoding: 59911 59911 265
Width: 838
VWidth: 0
Flags: W
HStem: 0 85<151 687> 841 20G<67.9696 397 441 770.03>
VStem: 67 84<154.28 460> 175 197<314 460> 466 197<314 460> 687 84<154.28 460>
LayerCount: 2
Fore
SplineSet
42 0 m 5
 67 203 l 5
 68 861 l 5
 397 861 l 5
 372 658 l 5
 372 314 l 5
 175 314 l 5
 175 460 l 5
 151 460 l 5
 151 85 l 5
 687 85 l 5
 687 460 l 5
 663 460 l 5
 663 314 l 5
 466 314 l 5
 466 658 l 5
 441 861 l 5
 770 861 l 5
 771 203 l 5
 796 0 l 5
 42 0 l 5
42 0 m 4
EndSplineSet
Validated: 1
EndChar

StartChar: uniEA08
Encoding: 59912 59912 266
Width: 838
VWidth: 0
Flags: W
HStem: -1 21G<68 394.549 443.451 770> -1 21G<68 394.549 443.451 770> 776 85<151 687>
VStem: 67 84<401 705.96> 175 197<401 547> 466 197<401 547> 687 84<401 705.96>
LayerCount: 2
Fore
SplineSet
42 861 m 5x7e
 796 861 l 5
 771 657 l 5
 770 0 l 5
 441 -1 l 5
 466 203 l 5
 466 547 l 5
 663 547 l 5
 663 401 l 5
 687 401 l 5
 687 776 l 5
 151 776 l 5
 151 401 l 5
 175 401 l 5
 175 547 l 5
 372 547 l 5
 372 203 l 5
 397 -1 l 5
 68 0 l 5
 67 657 l 5
 42 861 l 5x7e
42 861 m 4
EndSplineSet
Validated: 1
EndChar

StartChar: uniEA09
Encoding: 59913 59913 267
Width: 1102
VWidth: 0
Flags: W
HStem: 0 21G<251 401.144> 0 21G<251 401.144>
LayerCount: 2
Fore
SplineSet
365 1121 m 6x80
 497 1121 l 5
 653 737 l 5
 752 749 l 5
 704 865 l 5
 802 865 l 5
 874 690 l 5
 802 513 l 5
 704 513 l 5
 752 630 l 5
 654 641 l 5
 393 0 l 5
 251 0 l 5
 398 254 l 5
 399 255 l 5
 365 254 l 5
 -44 254 -86 1117 365 1121 c 6x80
743 1121 m 5
 884 1121 l 5
 1060 690 l 5
 884 259 l 5
 743 259 l 5
 890 513 l 5
 963 690 l 5
 890 866 l 5
 743 1121 l 5
743 1121 m 4
EndSplineSet
Validated: 33
EndChar

StartChar: uniEA0A
Encoding: 59914 59914 268
Width: 1102
VWidth: 0
Flags: W
HStem: 0 21G<209.833 359 596.854 737> 0 21G<209.833 359 596.854 737> 842 20G<209.833 359>
LayerCount: 2
Fore
SplineSet
737 0 m 1xa0
 605 0 l 1
 449 383 l 1
 350 372 l 1
 398 255 l 1
 300 255 l 1
 228 431 l 1
 300 608 l 1
 398 608 l 1
 350 490 l 1
 448 479 l 1
 709 1121 l 1
 851 1121 l 1
 704 866 l 1
 703 865 l 1
 737 866 l 1
 1146 866 1188 4 737 0 c 1xa0
359 0 m 1
 218 0 l 1
 42 431 l 1
 218 862 l 1
 359 862 l 1
 212 608 l 1
 139 431 l 1
 212 254 l 1
 359 0 l 1
359 0 m 0
EndSplineSet
Validated: 37
EndChar

StartChar: uniEA0B
Encoding: 59915 59915 269
Width: 1142
VWidth: 0
Flags: W
HStem: 0 87<701 933> 360 87<1017 1100> 416 87<465 604> 775 87<149 381>
VStem: 65 84<141.217 775> 200 265<141.913 416> 381 84<503 720.087> 617 84<87 362.462> 752 265<447 720.783> 933 84<141.913 360>
LayerCount: 2
Fore
SplineSet
65 862 m 5xbb
 488 862 l 5
 465 658 l 5
 465 503 l 5xbb
 701 504 l 5
 701 87 l 5
 933 87 l 5
 933 360 l 5xdb40
 752 359 l 5
 752 862 l 5
 1040 862 l 5
 1017 659 l 5
 1017 447 l 5xd980
 1100 447 l 5
 1100 360 l 5
 1017 360 l 5xd940
 1017 204 l 5
 1040 0 l 5
 617 0 l 5
 617 300 l 5
 604 416 l 5
 465 416 l 5
 465 204 l 5
 488 0 l 5
 200 0 l 5
 200 503 l 5xbd40
 381 503 l 5
 381 775 l 5
 149 775 l 5
 149 0 l 5
 42 0 l 5
 65 203 l 5
 65 862 l 5xbb
65 862 m 4
EndSplineSet
Validated: 1
EndChar

StartChar: uniEA0C
Encoding: 59916 59916 270
Width: 1186
VWidth: 0
Flags: W
HStem: -305 112<200 274 331 405 781 855 912 986> -305 76<153 200 405 452 734 781 986 1033> 84 74<155 201 404 450 736 782 985 1031> 343 331<208 277 328 397 789 858 909 978> 434 149<82 156 450 524 662 736 1030 1104> 466 85<156 203 402 450 736 784 983 1030> 859 74<155 201 404 450 736 782 985 1031> 1210 112<200 274 331 405 781 855 912 986> 1246 76<153 200 405 452 734 781 986 1033>
VStem: 79 74<-229 -188.533 434 471 546 583 1205.53 1246> 200 74<-229 -193 417 471 546 600 1210 1246> 331 74<-234 -197 413 466 551 604 1214 1251> 452 74<-234 -184.667 429 466 551 587 1201.67 1251> 660 74<-229 -180.667 434 471 546 583 1197.67 1246> 781 74<-229 -193 417 471 546 600 1210 1246> 912 74<-234 -197 413 466 551 604 1214 1251> 1033 74<-234 -192.533 429 466 551 587 1209.53 1251>
LayerCount: 2
Fore
SplineSet
623 158 m 5x627f80
 782 158 l 5
 736 268 l 5
 649 418 l 5
 784 417 l 5
 784 471 l 5
 736 471 l 5
 736 434 l 5
 662 434 l 5
 662 583 l 5
 736 583 l 5
 736 546 l 5
 784 546 l 5
 784 600 l 5
 649 599 l 5
 736 749 l 5
 782 859 l 5
 623 859 l 5
 729 1119 l 5
 645 1119 l 5
 660 1237 l 5
 660 1322 l 5x6aff80
 855 1322 l 5
 855 1210 l 5
 781 1210 l 5x237f80
 781 1246 l 5
 734 1246 l 5
 734 1193 l 5
 868 1194 l 5
 782 1044 l 5
 736 933 l 5
 745 933 l 5
 864 948 l 5
 864 859 l 5
 789 674 l 5
 872 674 l 5
 858 556 l 5
 858 461 l 5
 872 343 l 5
 789 343 l 5
 864 158 l 5
 864 69 l 5
 745 84 l 5
 736 84 l 5
 782 -27 l 5
 868 -177 l 5
 734 -176 l 5
 734 -229 l 5
 781 -229 l 5x72ff80
 781 -193 l 5
 855 -193 l 5
 855 -305 l 5xa27f80
 660 -305 l 5
 660 -220 l 5
 645 -102 l 5
 729 -102 l 5
 623 158 l 5x627f80
894 338 m 5
 909 456 l 5
 909 560 l 5
 894 678 l 5
 978 678 l 5
 902 864 l 5
 902 953 l 5
 1022 938 l 5
 1031 938 l 5
 986 1048 l 5
 898 1198 l 5
 1033 1197 l 5
 1033 1251 l 5
 986 1251 l 5
 986 1214 l 5
 912 1214 l 5
 912 1326 l 5
 1107 1326 l 5
 1107 1241 l 5
 1122 1123 l 5
 1038 1123 l 5
 1144 864 l 5
 985 864 l 5
 1031 754 l 5
 1118 603 l 5
 983 604 l 5
 983 551 l 5
 1030 551 l 5
 1030 587 l 5
 1104 587 l 5
 1104 429 l 5
 1030 429 l 5
 1030 466 l 5
 983 466 l 5x267f80
 983 413 l 5
 1118 413 l 5
 1031 263 l 5
 985 153 l 5
 1144 153 l 5
 1038 -107 l 5
 1122 -106 l 5
 1107 -224 l 5
 1107 -309 l 5
 912 -309 l 5
 912 -197 l 5
 986 -197 l 5
 986 -234 l 5
 1033 -234 l 5
 1033 -181 l 5
 898 -181 l 5
 986 -31 l 5
 1031 79 l 5
 1022 79 l 5
 902 64 l 5
 902 153 l 5
 978 339 l 5
 894 338 l 5
894 338 m 4
42 158 m 5
 201 158 l 5
 155 268 l 5
 68 418 l 5
 203 417 l 5
 203 471 l 5
 156 471 l 5
 156 434 l 5
 82 434 l 5
 82 583 l 5
 156 583 l 5
 156 546 l 5
 203 546 l 5
 203 600 l 5
 68 599 l 5
 155 749 l 5
 201 859 l 5
 42 859 l 5
 148 1119 l 5
 64 1119 l 5
 79 1237 l 5
 79 1322 l 5x6aff80
 274 1322 l 5
 274 1210 l 5
 200 1210 l 5x237f80
 200 1246 l 5
 153 1246 l 5
 153 1193 l 5
 288 1194 l 5
 201 1044 l 5
 155 933 l 5
 164 933 l 5
 284 948 l 5
 284 859 l 5
 208 674 l 5
 292 674 l 5
 277 556 l 5
 277 461 l 5
 292 343 l 5
 208 343 l 5
 284 158 l 5
 284 69 l 5
 164 84 l 5
 155 84 l 5
 201 -27 l 5
 288 -177 l 5
 153 -176 l 5
 153 -229 l 5
 200 -229 l 5x72ff80
 200 -193 l 5
 274 -193 l 5
 274 -305 l 5xa27f80
 79 -305 l 5x627f80
 79 -220 l 5
 64 -102 l 5
 148 -102 l 5
 42 158 l 5
314 338 m 5
 328 456 l 5
 328 560 l 5
 314 678 l 5
 397 678 l 5
 322 864 l 5
 322 953 l 5
 441 938 l 5
 450 938 l 5
 405 1048 l 5
 318 1198 l 5
 452 1197 l 5
 452 1251 l 5
 405 1251 l 5
 405 1214 l 5
 331 1214 l 5
 331 1326 l 5
 526 1326 l 5
 526 1241 l 5
 541 1123 l 5
 457 1123 l 5
 563 864 l 5
 404 864 l 5
 450 754 l 5
 537 603 l 5
 402 604 l 5
 402 551 l 5
 450 551 l 5
 450 587 l 5
 524 587 l 5
 524 429 l 5
 450 429 l 5
 450 466 l 5
 402 466 l 5x267f80
 402 413 l 5
 537 413 l 5
 450 263 l 5
 404 153 l 5
 563 153 l 5
 457 -107 l 5
 541 -106 l 5
 526 -224 l 5
 526 -309 l 5
 331 -309 l 5
 331 -197 l 5
 405 -197 l 5
 405 -234 l 5
 452 -234 l 5
 452 -181 l 5
 318 -181 l 5
 405 -31 l 5
 450 79 l 5
 441 79 l 5
 322 64 l 5
 322 153 l 5
 397 339 l 5
 314 338 l 5
314 338 m 4
EndSplineSet
Validated: 1
EndChar

StartChar: grave
Encoding: 96 96 271
Width: 364
VWidth: 0
Flags: W
HStem: 864 107<55 117.087> 864 84<196.913 259>
VStem: 55 254
LayerCount: 2
Fore
SplineSet
55 864 m 5xa0
 309 864 l 5
 309 948 l 5
 259 948 l 5x60
 55 971 l 5
 55 864 l 5xa0
55 864 m 4xa0
EndSplineSet
Validated: 9
EndChar

StartChar: parenleft
Encoding: 40 40 272
Width: 308
VWidth: 0
Flags: W
HStem: 0 87<151 264> 776 87<151 264>
VStem: 67 84<141.217 721.783>
LayerCount: 2
Fore
SplineSet
44 863 m 5
 264 863 l 5
 264 776 l 5
 151 776 l 5
 151 87 l 5
 264 87 l 5
 264 0 l 5
 44 0 l 5
 67 203 l 5
 67 660 l 5
 44 863 l 5
44 863 m 4
EndSplineSet
Validated: 1
EndChar

StartChar: parenright
Encoding: 41 41 273
Width: 308
VWidth: 0
Flags: W
HStem: 0 87<44 157> 776 87<44 157>
VStem: 157 84<141.217 721.783>
LayerCount: 2
Fore
SplineSet
264 863 m 5
 241 660 l 5
 241 203 l 5
 264 0 l 5
 44 0 l 5
 44 87 l 5
 157 87 l 5
 157 776 l 5
 44 776 l 5
 44 863 l 5
 264 863 l 5
264 863 m 4
EndSplineSet
Validated: 1
EndChar

StartChar: plus
Encoding: 43 43 274
Width: 948
VWidth: 0
Flags: W
HStem: 0 21G<415 544> 0 21G<415 544> 404 84<183.913 438 521 764.087> 843 20G<415 544>
VStem: 438 83<141.217 404 488 721.783>
LayerCount: 2
Fore
SplineSet
415 863 m 1xb8
 544 863 l 1
 521 660 l 1
 521 488 l 1
 702 488 l 1
 906 510 l 1
 906 381 l 1
 702 404 l 1
 521 404 l 1
 521 203 l 1
 544 0 l 1
 415 0 l 1
 438 203 l 1
 438 404 l 1
 246 404 l 1
 42 381 l 1
 42 510 l 1
 246 488 l 1
 438 488 l 1
 438 660 l 1
 415 863 l 1xb8
EndSplineSet
Validated: 1
EndChar

StartChar: percent
Encoding: 37 37 275
Width: 716
VWidth: 0
Flags: W
HStem: 0 76<554 585> 386 76<559 585> 402 75<118 149> 788 76<123 149>
VStem: 44 74<477 788> 149 74<477 788> 480 74<76 386> 585 74<75 386>
LayerCount: 2
Fore
SplineSet
480 462 m 5xdf
 672 462 l 5
 659 342 l 5
 659 119 l 5
 672 0 l 5
 480 0 l 5
 480 462 l 5xdf
559 386 m 5
 554 344 l 5
 554 76 l 5
 585 75 l 5
 585 386 l 5
 559 386 l 5
559 386 m 4
44 864 m 1
 236 864 l 1
 223 744 l 1
 223 521 l 1
 236 402 l 1
 44 402 l 1xbf
 44 864 l 1
123 788 m 1
 118 746 l 1
 118 477 l 1
 149 477 l 1
 149 788 l 1
 123 788 l 1
123 788 m 0
492 862 m 1
 587 862 l 1
 236 0 l 1
 95 0 l 1
 242 254 l 1
 492 862 l 1
492 862 m 0
EndSplineSet
Validated: 1
EndChar

StartChar: braceleft
Encoding: 123 123 276
Width: 308
VWidth: 0
Flags: W
HStem: 0 87<151 264> 776 87<151 264>
VStem: 67 84<141.217 721.783>
LayerCount: 2
Fore
SplineSet
44 863 m 5
 264 863 l 5
 264 776 l 5
 151 776 l 5
 151 87 l 5
 264 87 l 5
 264 0 l 5
 44 0 l 5
 67 203 l 5
 67 660 l 5
 44 863 l 5
44 863 m 4
EndSplineSet
Validated: 1
EndChar

StartChar: braceright
Encoding: 125 125 277
Width: 308
VWidth: 0
Flags: W
HStem: 0 87<44 157> 776 87<44 157>
VStem: 157 84<141.217 721.783>
LayerCount: 2
Fore
SplineSet
264 863 m 5
 241 660 l 5
 241 203 l 5
 264 0 l 5
 44 0 l 5
 44 87 l 5
 157 87 l 5
 157 776 l 5
 44 776 l 5
 44 863 l 5
 264 863 l 5
264 863 m 4
EndSplineSet
Validated: 1
EndChar

StartChar: udieresis
Encoding: 252 252 278
Width: 376
VWidth: 0
Flags: W
HStem: 0 89<148 226> 607 104<93 175 206 294>
VStem: 61 87<89 486.421> 80 95<655 711> 93 82<607 663> 193 101<655 711> 206 88<607 663> 226 87<89 479.333>
LayerCount: 2
Fore
SplineSet
42 590 m 5xe1
 148 590 l 5
 148 89 l 5
 226 89 l 5
 226 590 l 5
 334 590 l 5
 313 424 l 5
 313 0 l 5
 61 0 l 5
 61 426 l 5
 42 590 l 5xe1
42 590 m 4
193 711 m 5xc4
 294 711 l 5xc4
 294 607 l 5
 206 607 l 5xc2
 193 711 l 5xc4
193 711 m 4
80 711 m 5xd0
 175 711 l 5xd0
 175 607 l 5
 93 607 l 5xc8
 80 711 l 5xd0
80 711 m 4
EndSplineSet
Validated: 1
EndChar

StartChar: ucircumflex
Encoding: 251 251 279
Width: 376
VWidth: 0
Flags: W
HStem: 0 89<150 228> 605 106<81 143.417 232.583 295>
VStem: 63 87<89 477.333> 228 87<89 484.421>
LayerCount: 2
Fore
SplineSet
42 588 m 5
 150 588 l 5
 150 89 l 5
 228 89 l 5
 228 588 l 5
 334 588 l 5
 315 424 l 5
 315 0 l 5
 63 0 l 5
 63 422 l 5
 42 588 l 5
42 588 m 4
81 711 m 5
 295 711 l 5
 295 605 l 5
 188 617 l 5
 81 605 l 5
 81 711 l 5
81 711 m 4
EndSplineSet
Validated: 1
EndChar

StartChar: ugrave
Encoding: 249 249 280
Width: 376
VWidth: 0
Flags: W
HStem: 0 89<150 228> 606 106<81 141.789> 606 87<185.211 295>
VStem: 63 87<89 477.333> 228 87<89 483.789>
LayerCount: 2
Fore
SplineSet
42 588 m 5x98
 150 588 l 5
 150 89 l 5
 228 89 l 5
 228 588 l 5
 334 588 l 5
 315 423 l 5
 315 0 l 5
 63 0 l 5
 63 422 l 5
 42 588 l 5x98
42 588 m 4
81 712 m 5xd8
 246 693 l 5
 295 693 l 5
 295 606 l 5xb8
 81 606 l 5
 81 712 l 5xd8
81 712 m 4xd8
EndSplineSet
Validated: 1
EndChar

StartChar: uacute
Encoding: 250 250 281
Width: 376
VWidth: 0
Flags: W
HStem: 0 89<148 226> 606 106<234.211 295> 606 87<81 190.789>
VStem: 61 87<89 485.789> 226 87<89 479.333>
LayerCount: 2
Fore
SplineSet
334 590 m 5x98
 313 424 l 5
 313 0 l 5
 61 0 l 5
 61 425 l 5
 42 590 l 5
 148 590 l 5
 148 89 l 5
 226 89 l 5
 226 590 l 5
 334 590 l 5x98
334 590 m 4
295 712 m 5xd8
 295 606 l 5xd8
 81 606 l 5
 81 693 l 5
 130 693 l 5xb8
 295 712 l 5xd8
295 712 m 4
EndSplineSet
Validated: 1
EndChar

StartChar: ordmasculine
Encoding: 186 186 282
Width: 498
VWidth: 0
Flags: W
HStem: 376 110<46 100.654> 402 109<395.16 452> 402 84<194.346 305.84> 566 75<235 266> 788 76<240 266>
VStem: 161 74<641 788> 266 74<641 788>
LayerCount: 2
Fore
SplineSet
240 788 m 1x1e
 235 746 l 1
 235 641 l 1
 266 641 l 1
 266 788 l 1
 240 788 l 1x1e
161 864 m 1
 353 864 l 1
 340 744 l 1
 340 685 l 1
 353 566 l 1
 161 566 l 1
 161 864 l 1
452 511 m 1x5e
 452 402 l 1x5e
 249 402 l 1x3e
 46 376 l 1
 46 486 l 1x9e
 249 486 l 1x3e
 452 511 l 1x5e
452 511 m 0
EndSplineSet
Validated: 1
EndChar

StartChar: periodcentered
Encoding: 183 183 283
Width: 210
VWidth: 0
Flags: W
HStem: 314 204<76 160>
VStem: 50 110<314 368.923> 76 84<463.077 518>
LayerCount: 2
Fore
SplineSet
160 314 m 5xc0
 50 314 l 5xc0
 76 518 l 5
 160 518 l 5xa0
 160 314 l 5xc0
160 314 m 4
EndSplineSet
Validated: 1
EndChar

StartChar: acute
Encoding: 180 180 284
Width: 364
VWidth: 0
Flags: W
HStem: 864 107<246.913 309> 864 84<55 167.087>
VStem: 55 254<864 948>
LayerCount: 2
Fore
SplineSet
309 864 m 5xa0
 55 864 l 5
 55 948 l 5
 105 948 l 5x60
 309 971 l 5
 309 864 l 5xa0
309 864 m 4xa0
EndSplineSet
Validated: 1
EndChar

StartChar: dieresis
Encoding: 168 168 285
Width: 358
VWidth: 0
Flags: W
HStem: 864 106<67 163 208 304>
VStem: 54 109<912.923 970> 67 96<864 921.077> 195 109<912.923 970> 208 96<864 921.077>
LayerCount: 2
Fore
SplineSet
54 970 m 5xc0
 163 970 l 5xc0
 163 864 l 5
 67 864 l 5xa0
 54 970 l 5xc0
195 970 m 5x90
 304 970 l 5x90
 304 864 l 5
 208 864 l 5x88
 195 970 l 5x90
195 970 m 4
EndSplineSet
Validated: 1
EndChar

StartChar: uni00B9
Encoding: 185 185 286
Width: 200
VWidth: 0
Flags: W
HStem: 842 20G<50 150>
VStem: 63 74<455.385 806.615>
LayerCount: 2
Fore
SplineSet
50 862 m 1
 150 862 l 1
 137 742 l 1
 137 520 l 1
 150 400 l 1
 50 400 l 1
 63 518 l 1
 63 744 l 1
 50 862 l 1
50 862 m 0
EndSplineSet
Validated: 1
EndChar

StartChar: uni00AD
Encoding: 173 173 287
Width: 506
VWidth: 0
Flags: W
HStem: 356 109<50 106.84> 381 109<399.16 456> 381 84<196.16 309.84>
LayerCount: 2
Fore
SplineSet
456 490 m 5x40
 456 381 l 5x40
 253 381 l 5x20
 50 356 l 5
 50 465 l 5x80
 253 465 l 5x20
 456 490 l 5x40
456 490 m 4
EndSplineSet
Validated: 1
EndChar

StartChar: macron
Encoding: 175 175 288
Width: 514
VWidth: 0
Flags: W
HStem: 755 109<54 110.84> 780 109<403.16 460> 780 84<200.16 313.84>
LayerCount: 2
Fore
SplineSet
460 889 m 5x40
 460 780 l 5x40
 257 780 l 5x20
 54 755 l 5
 54 864 l 5x80
 257 864 l 5x20
 460 889 l 5x40
460 889 m 4
EndSplineSet
Validated: 1
EndChar

StartChar: asciitilde
Encoding: 126 126 289
Width: 514
VWidth: 0
Flags: W
HStem: 755 109<54 110.84> 780 109<403.16 460> 780 84<200.16 313.84>
LayerCount: 2
Fore
SplineSet
460 889 m 5x40
 460 780 l 5x40
 257 780 l 5x20
 54 755 l 5
 54 864 l 5x80
 257 864 l 5x20
 460 889 l 5x40
460 889 m 4
EndSplineSet
Validated: 1
EndChar

StartChar: Eth
Encoding: 208 208 290
Width: 710
VWidth: 0
Flags: W
HStem: -4 91<284 423.816> 356 109<42 100.211> 375 90<191.684 200 284 329.92> 381 109<390.6 448> 776 88<284 434.079>
VStem: 200 84<141.217 375 470 721.783>
LayerCount: 2
Fore
SplineSet
345 864 m 1xac
 754 864 796 0 345 -4 c 1
 177 0 l 1
 200 203 l 1
 200 375 l 1xac
 42 356 l 1
 42 465 l 1xcc
 200 465 l 1
 200 660 l 1
 177 863 l 1
 345 864 l 1xac
448 490 m 1x9c
 448 381 l 1
 284 381 l 1
 284 87 l 1
 415 87 l 1
 499 166 553 291 553 432 c 0
 553 572 499 697 416 776 c 1
 284 776 l 1
 284 470 l 1
 448 490 l 1x9c
EndSplineSet
Validated: 33
EndChar

StartChar: Oslash
Encoding: 216 216 291
Width: 782
VWidth: 0
Flags: W
HStem: 0 91<316.708 497.673> 781 88<276.13 496.578> 842 20G<527 630>
LayerCount: 2
Fore
SplineSet
488 781 m 1xc0
 294 781 l 1
 211 702 157 577 157 437 c 0
 157 335 186 240 234 166 c 1
 285 254 l 1
 497 771 l 1
 494 774 491 778 488 781 c 1xc0
365 869 m 2
 417 869 l 2xc0
 457 869 494 860 527 845 c 1
 534 862 l 1
 630 862 l 1xa0
 602 794 l 1
 825 584 787 4 417 0 c 1
 365 0 l 2
 336 0 309 4 284 11 c 1
 279 0 l 1
 138 0 l 1
 177 68 l 1
 -61 273 25 869 365 869 c 2
316 91 m 1
 486 91 l 1
 570 170 625 296 625 437 c 0
 625 531 600 618 559 689 c 1
 316 91 l 1
EndSplineSet
Validated: 33
EndChar

StartChar: Yacute
Encoding: 221 221 292
Width: 576
VWidth: 0
Flags: W
HStem: 0 21G<42 191.144> 0 21G<42 191.144> 842 20G<42 191.141 429.795 534> 864 107<370.913 433> 864 84<179 291.087>
LayerCount: 2
Fore
SplineSet
433 864 m 5x30
 179 864 l 5
 179 948 l 5
 229 948 l 5x28
 433 971 l 5
 433 864 l 5x30
433 864 m 4x30
42 862 m 1
 183 862 l 1
 310 550 l 1
 438 862 l 1
 534 862 l 1
 183 0 l 1
 42 0 l 1xa0
 189 254 l 1
 261 431 l 1
 189 608 l 1
 42 862 l 1
42 862 m 0
EndSplineSet
Validated: 1
EndChar

StartChar: questiondown
Encoding: 191 191 293
Width: 442
VWidth: 0
Flags: W
HStem: 0 160<313 397> 0 87<154 313> 267 85<154 290> 843 20G<288 397>
VStem: 70 84<87 205.12> 290 107<532.913 595 806.16 863> 290 84<351 435.348 660 704.13> 313 84<87 160>
LayerCount: 2
Fore
SplineSet
288 863 m 5x3c
 397 863 l 5
 372 660 l 5
 288 660 l 5
 288 863 l 5x3c
288 863 m 4
397 0 m 5xb9
 70 0 l 5
 70 148 l 5
 45 352 l 5
 290 351 l 5x7a
 290 595 l 5
 397 595 l 5x7c
 374 391 l 5
 374 267 l 5x7a
 154 267 l 5
 154 87 l 5
 313 87 l 5x79
 313 160 l 5
 397 160 l 5
 397 0 l 5xb9
397 0 m 4xb9
EndSplineSet
Validated: 1
EndChar

StartChar: Atilde
Encoding: 195 195 294
Width: 972
VWidth: 0
Flags: W
HStem: 0 21G<42 191.138 826.793 930> 0 21G<42 191.138 826.793 930> 290 85<336 681> 755 109<283 341.5>
LayerCount: 2
Fore
SplineSet
494 765 m 1x30
 336 375 l 1
 681 375 l 1
 585 608 l 1
 494 765 l 1x30
689 889 m 1
 689 780 l 1
 613 780 l 1
 930 0 l 1
 835 0 l 1
 716 290 l 1
 301 290 l 1
 183 0 l 1
 42 0 l 1xb0
 188 254 l 1
 400 769 l 1
 283 755 l 1
 283 864 l 1
 486 864 l 1
 689 889 l 1
EndSplineSet
Validated: 1
EndChar

StartChar: Aring
Encoding: 197 197 295
Width: 972
VWidth: 0
Flags: W
HStem: 0 21G<42 191.138 826.793 930> 0 21G<42 191.138 826.793 930> 290 85<336 681> 1008 76<495 521>
VStem: 415 74<862 1008> 521 74<862 1008>
LayerCount: 2
Fore
SplineSet
494 765 m 1x3c
 336 375 l 1
 681 375 l 1
 585 608 l 1
 494 765 l 1x3c
495 1008 m 1
 489 966 l 1
 489 862 l 1
 521 862 l 1
 521 1008 l 1
 495 1008 l 1
415 1084 m 1
 608 1084 l 1
 595 964 l 1
 595 905 l 1
 607 794 l 1
 930 0 l 1
 835 0 l 1
 716 290 l 1
 301 290 l 1
 183 0 l 1
 42 0 l 1xbc
 188 254 l 1
 415 807 l 1
 415 1084 l 1
EndSplineSet
Validated: 1
EndChar

StartChar: Otilde
Encoding: 213 213 296
Width: 514
VWidth: 0
Flags: W
HStem: 0 87<149 365> 776 87<251 365> 864 109<400.88 458> 864 84<251 311.12>
VStem: 65 84<141.217 721.783> 365 84<141.217 721.783>
LayerCount: 2
Fore
SplineSet
149 776 m 1xcc
 149 87 l 1
 365 87 l 1
 365 776 l 1
 149 776 l 1xcc
458 973 m 1xec
 458 864 l 1xec
 255 864 l 1
 251 863 l 1
 472 863 l 1
 449 660 l 1
 449 203 l 1
 472 0 l 1
 42 0 l 1
 65 203 l 1
 65 660 l 1
 42 863 l 1
 52 863 l 1
 52 948 l 1
 254 948 l 1xdc
 458 973 l 1xec
EndSplineSet
Validated: 1
EndChar

StartChar: divide
Encoding: 247 247 297
Width: 490
VWidth: 0
Flags: W
HStem: 0 21G<190 300> 0 21G<190 300> 356 109<42 98.84> 381 109<391.16 448> 381 84<188.16 301.84>
VStem: 190 84<600 654.654> 216 84<148.346 203>
LayerCount: 2
Fore
SplineSet
190 803 m 5x04
 300 803 l 5x02
 274 600 l 5
 190 600 l 5
 190 803 l 5x04
190 803 m 4x04
300 0 m 1x82
 190 0 l 1x84
 216 203 l 1
 300 203 l 1
 300 0 l 1x82
300 0 m 0x82
448 490 m 1x10
 448 381 l 1x10
 245 381 l 1x08
 42 356 l 1
 42 465 l 1x20
 245 465 l 1x08
 448 490 l 1x10
448 490 m 0
EndSplineSet
Validated: 1
EndChar

StartChar: uni01C2
Encoding: 450 450 298
Width: 694
VWidth: 0
Flags: W
HStem: 0 21G<282 412> 0 21G<282 412> 262 83<186.217 286 408 510.783> 573 84<183.217 286 408 507.783>
VStem: 305 84<141.217 262 657 776.783>
LayerCount: 2
Fore
SplineSet
282 918 m 5xb8
 412 918 l 5
 389 715 l 5
 389 657 l 5
 446 657 l 5
 649 679 l 5
 649 550 l 5
 446 573 l 5
 408 573 l 5
 395 459 l 5
 408 345 l 5
 449 345 l 5
 652 368 l 5
 652 239 l 5
 449 262 l 5
 389 262 l 5
 389 203 l 5
 412 0 l 5
 282 0 l 5
 305 203 l 5
 305 262 l 5
 248 262 l 5
 45 239 l 5
 45 368 l 5
 248 345 l 5
 286 345 l 5
 299 459 l 5
 286 573 l 5
 245 573 l 5
 42 550 l 5
 42 679 l 5
 245 657 l 5
 305 657 l 5
 305 715 l 5
 282 918 l 5xb8
282 918 m 4
EndSplineSet
Validated: 1
EndChar

StartChar: uniEA0D
Encoding: 59917 59917 299
Width: 470
VWidth: 0
Flags: W
HStem: 0 89<200 318> 581 91<150 317>
VStem: 62 88<100.222 581> 200 90<375 433> 318 88<89 251.25 552.444 581>
LayerCount: 2
Fore
SplineSet
62 672 m 5
 404 672 l 5
 404 598 l 5
 424 434 l 5
 290 433 l 5
 290 375 l 5
 426 375 l 5
 406 210 l 5
 406 0 l 5
 200 0 l 5
 200 89 l 5
 318 89 l 5
 318 287 l 5
 200 287 l 5
 200 524 l 5
 317 524 l 5
 317 581 l 5
 150 581 l 5
 150 0 l 5
 44 0 l 5
 62 164 l 5
 62 672 l 5
62 672 m 4
EndSplineSet
Validated: 1
EndChar

StartChar: uniEA0E
Encoding: 59918 59918 300
Width: 218
VWidth: 0
Flags: W
HStem: 0 21G<44 174> 0 21G<44 174> 843 20G<44 174>
VStem: 67 84<141.217 721.783>
LayerCount: 2
Fore
SplineSet
44 863 m 5xb0
 174 863 l 5
 151 660 l 5
 151 203 l 5
 174 0 l 5
 44 0 l 5
 67 203 l 5
 67 660 l 5
 44 863 l 5xb0
44 863 m 4
EndSplineSet
Validated: 1
EndChar

StartChar: uniEA0F
Encoding: 59919 59919 301
Width: 212
VWidth: 0
Flags: W
HStem: 0 21G<44 168> 0 21G<44 168> 651 20G<44 168> 651 20G<44 168>
VStem: 63 86<104.842 566.789>
LayerCount: 2
Fore
SplineSet
44 671 m 5xa8
 168 671 l 5
 149 506 l 5
 149 166 l 5
 168 0 l 5
 44 0 l 5
 63 166 l 5
 63 506 l 5
 44 671 l 5xa8
44 671 m 4
EndSplineSet
Validated: 1
EndChar

StartChar: uniEA10
Encoding: 59920 59920 302
Width: 518
VWidth: 0
Flags: W
HStem: 0 87<151 367> 776 87<151 367>
VStem: 67 84<141.217 721.783> 367 84<141.217 721.783>
LayerCount: 2
Fore
SplineSet
44 863 m 5
 474 863 l 5
 451 660 l 5
 451 203 l 5
 474 0 l 5
 44 0 l 5
 67 203 l 5
 67 660 l 5
 44 863 l 5
151 776 m 5
 151 87 l 5
 367 87 l 5
 367 776 l 5
 151 776 l 5
151 776 m 4
EndSplineSet
Validated: 1
EndChar

StartChar: u_t
Encoding: 59921 59921 303
Width: 920
VWidth: 0
Flags: W
HStem: 0 87<149 285> 778 85<468.389 544 643 878>
VStem: 65 84<87 721.783> 285 84<87 718.333>
LayerCount: 2
Fore
SplineSet
42 863 m 5
 149 863 l 5
 149 87 l 5
 285 87 l 5
 285 863 l 5
 878 862 l 5
 878 778 l 5
 643 778 l 5
 629 658 l 5
 629 0 l 5
 544 0 l 5
 544 778 l 5
 524 778 l 5
 381 760 l 5
 369 660 l 5
 369 0 l 5
 65 0 l 5
 65 660 l 5
 42 863 l 5
42 863 m 4
EndSplineSet
Validated: 1
Ligature2: "dligDiscretionaryLigatures-0 subtable" U T
EndChar

StartChar: asciicircum
Encoding: 94 94 304
Width: 364
VWidth: 0
Flags: W
HStem: 864 107<55 118.5 245.5 309>
VStem: 55 254<771 864>
LayerCount: 2
Fore
SplineSet
55 971 m 5
 309 971 l 5
 309 864 l 5
 182 878 l 5
 55 864 l 5
 55 971 l 5
EndSplineSet
Validated: 1
EndChar

StartChar: cedilla
Encoding: 184 184 305
Width: 386
VWidth: 0
Flags: W
VStem: 47 292
LayerCount: 2
Fore
SplineSet
239 110 m 5
 339 109 l 5
 189 -254 l 5
 47 -254 l 5
 194 0 l 5
 239 110 l 5
239 110 m 4
EndSplineSet
Validated: 1
EndChar

StartChar: quoteright
Encoding: 8217 8217 307
Width: 302
VWidth: 0
Flags: W
HStem: 646 218<155 165>
VStem: 47 208
LayerCount: 2
Fore
SplineSet
165 646 m 5
 47 646 l 5
 110 754 l 5
 155 864 l 5
 255 863 l 5
 165 646 l 5
165 646 m 4
EndSplineSet
Validated: 1
EndChar

StartChar: minute
Encoding: 8242 8242 308
Width: 302
VWidth: 0
Flags: W
HStem: 646 218<155 165>
VStem: 47 208
LayerCount: 2
Fore
SplineSet
165 646 m 5
 47 646 l 5
 110 754 l 5
 155 864 l 5
 255 863 l 5
 165 646 l 5
165 646 m 4
EndSplineSet
Validated: 1
EndChar

StartChar: Euro
Encoding: 8364 8364 309
Width: 368
VWidth: 0
Flags: W
HStem: 0 87<148 326> 295 109<254.6 312> 295 89<148 205.4> 485 109<254.6 312> 485 89<148 205.4> 776 87<148 326>
VStem: 64 248<295 384 485 574> 64 84<138.409 295 384 485 574 724.591>
LayerCount: 2
Fore
SplineSet
42 863 m 5xa5
 326 863 l 5
 326 776 l 5
 148 776 l 5
 148 574 l 5xad
 312 594 l 5
 312 485 l 5x96
 148 485 l 5
 148 384 l 5xad
 312 404 l 5
 312 295 l 5xc6
 148 295 l 5
 148 87 l 5
 326 87 l 5
 326 0 l 5
 42 0 l 5
 64 203 l 5
 64 660 l 5
 42 863 l 5xa5
42 863 m 4
EndSplineSet
Validated: 1
EndChar

StartChar: uni2080
Encoding: 8320 8320 310
Width: 292
VWidth: 0
Flags: W
HStem: 0 76<124 155> 386 76<129 155>
VStem: 50 74<76 386> 155 74<75 386>
LayerCount: 2
Fore
SplineSet
50 462 m 5
 242 462 l 5
 229 342 l 5
 229 119 l 5
 242 0 l 5
 50 0 l 5
 50 462 l 5
129 386 m 5
 124 344 l 5
 124 76 l 5
 155 75 l 5
 155 386 l 5
 129 386 l 5
129 386 m 4
EndSplineSet
Validated: 1
EndChar

StartChar: uni2081
Encoding: 8321 8321 311
Width: 196
VWidth: 0
Flags: W
HStem: 0 21G<48 148> 0 21G<48 148>
VStem: 61 74<55.3846 406.077>
LayerCount: 2
Fore
SplineSet
48 461 m 5xa0
 148 461 l 5
 135 342 l 5
 135 120 l 5
 148 0 l 5
 48 0 l 5
 61 118 l 5
 61 344 l 5
 48 461 l 5xa0
48 461 m 4
EndSplineSet
Validated: 1
EndChar

StartChar: uni2082
Encoding: 8322 8322 312
Width: 348
VWidth: 0
Flags: W
HStem: 0 74<151 238> 349 113<94 168> 386 76<168 215>
VStem: 94 74<349 386> 215 74<328 387>
LayerCount: 2
Fore
SplineSet
94 462 m 5xd8
 289 462 l 5
 289 373 l 5
 304 253 l 5
 196 253 l 5
 151 74 l 5
 182 74 l 5
 302 89 l 5
 302 0 l 5
 44 0 l 5
 132 328 l 5
 215 328 l 5
 215 387 l 5
 168 386 l 5xb8
 168 349 l 5
 94 349 l 5
 94 462 l 5xd8
94 462 m 4xd8
EndSplineSet
Validated: 1
EndChar

StartChar: uni2083
Encoding: 8323 8323 313
Width: 332
VWidth: 0
Flags: W
HStem: 0 74<111 176> 350 112<57 131> 387 75<131 178>
VStem: 57 74<350 387> 178 74<334 387>
LayerCount: 2
Fore
SplineSet
47 0 m 5xb8
 47 89 l 5
 167 74 l 5
 176 74 l 5
 130 184 l 5
 43 334 l 5
 178 334 l 5
 178 387 l 5
 131 387 l 5xb8
 131 350 l 5
 57 350 l 5
 57 462 l 5xd8
 252 462 l 5
 252 377 l 5
 267 259 l 5
 183 260 l 5
 289 0 l 5
 47 0 l 5xb8
47 0 m 4
EndSplineSet
Validated: 1
EndChar

StartChar: uni2084
Encoding: 8324 8324 314
Width: 360
VWidth: 0
Flags: W
HStem: 0 21G<197 286> 0 21G<197 286> 123 74<156 211 288 318>
VStem: 197 89<0 55.0667> 211 89<239.083 298> 211 77<67.4286 123 197 230.667>
LayerCount: 2
Fore
SplineSet
181 463 m 5xb0
 290 463 l 5
 204 313 l 5
 156 197 l 5
 211 197 l 5xa4
 211 298 l 5
 300 298 l 5xa8
 288 197 l 5xa4
 318 197 l 5
 318 123 l 5
 285 123 l 5
 286 0 l 5
 197 0 l 5
 212 118 l 5
 212 123 l 5
 42 123 l 5
 181 463 l 5xb0
181 463 m 4
EndSplineSet
Validated: 1
EndChar

StartChar: uni2085
Encoding: 8325 8325 315
Width: 350
VWidth: 0
Flags: W
HStem: 0 113<95 169> 0 76<169 216> 388 74<152 243>
VStem: 95 74<76 113> 216 74<75 135>
LayerCount: 2
Fore
SplineSet
95 0 m 5xb8
 95 113 l 5
 169 113 l 5xb8
 169 76 l 5
 216 75 l 5
 216 135 l 5
 133 135 l 5
 45 462 l 5
 303 462 l 5
 303 374 l 5
 183 388 l 5
 152 388 l 5
 197 209 l 5
 305 209 l 5
 290 89 l 5
 290 0 l 5x78
 95 0 l 5xb8
95 0 m 4
EndSplineSet
Validated: 1
EndChar

StartChar: uni2086
Encoding: 8326 8326 316
Width: 276
VWidth: 0
Flags: W
HStem: 0 21G<49 227> 0 21G<49 227> 388 76<136 225>
VStem: 49 178<0 63.5385 400.462 464> 62 74<68 208 283 388> 159 68<68 208>
LayerCount: 2
Fore
SplineSet
49 464 m 5xb0
 225 464 l 5
 225 388 l 5
 136 388 l 5
 136 283 l 5
 227 284 l 5xac
 227 0 l 5
 49 0 l 5xb0
 62 118 l 5
 62 346 l 5xa8
 49 464 l 5xb0
136 208 m 5
 136 68 l 5
 153 68 l 5
 159 111 l 5
 159 208 l 5
 136 208 l 5
136 208 m 4
EndSplineSet
Validated: 1
EndChar

StartChar: uni2087
Encoding: 8327 8327 317
Width: 384
VWidth: 0
Flags: W
HStem: 0 21G<43 159.207> 0 21G<43 159.207> 389 74<48 228>
VStem: 43 298
LayerCount: 2
Fore
SplineSet
48 463 m 5xb0
 341 463 l 5
 151 0 l 5
 43 0 l 5
 130 149 l 5
 228 389 l 5
 48 389 l 5
 48 463 l 5xb0
48 463 m 4
EndSplineSet
Validated: 1
EndChar

StartChar: uni2088
Encoding: 8328 8328 318
Width: 296
VWidth: 0
Flags: W
HStem: 0 21G<69 248> 0 21G<69 248>
VStem: 49 74<236 387> 83 74<76 210> 144 69<286 387> 178 70<76 235>
LayerCount: 2
Fore
SplineSet
48 463 m 5xa0
 227 463 l 5
 213 343 l 5
 213 286 l 5xa8
 247 286 l 5
 248 0 l 5
 69 0 l 5
 83 120 l 5
 83 210 l 5x94
 49 210 l 5
 48 463 l 5xa0
128 387 m 5
 123 345 l 5
 123 236 l 5
 144 236 l 5
 144 387 l 5
 128 387 l 5
157 235 m 5x14
 157 76 l 5
 173 76 l 5
 178 118 l 5
 178 235 l 5
 157 235 l 5x14
157 235 m 4
EndSplineSet
Validated: 1
EndChar

StartChar: uni2089
Encoding: 8329 8329 319
Width: 276
VWidth: 0
Flags: W
HStem: 0 75<51 140>
VStem: 49 178<0 63.5385 400.462 464> 49 68<256 396> 140 74<75 180 256 396>
LayerCount: 2
Fore
SplineSet
227 0 m 5xc0
 51 0 l 5
 51 75 l 5
 140 75 l 5
 140 180 l 5
 49 180 l 5xb0
 49 464 l 5
 227 464 l 5xc0
 214 346 l 5
 214 118 l 5x90
 227 0 l 5xc0
140 256 m 5
 140 396 l 5
 123 396 l 5
 117 352 l 5
 117 256 l 5
 140 256 l 5
140 256 m 4
EndSplineSet
Validated: 1
EndChar

StartChar: uniEA12
Encoding: 59922 59922 320
Width: 502
VWidth: 0
Flags: W
HStem: 0 21G<36 141 322.88 466> 0 21G<36 141 322.88 466> 590 83<189 317.96>
VStem: 54 87<100.222 468>
LayerCount: 2
Fore
SplineSet
36 671 m 1xb0
 292 673 l 2
 486 671 479 322 308 301 c 1
 346 207 l 1
 466 0 l 1
 331 0 l 1
 141 468 l 1
 141 0 l 1
 36 0 l 1
 54 164 l 1
 54 507 l 1
 36 671 l 1xb0
189 590 m 1
 275 380 l 1
 307 380 l 1
 330 405 346 442 346 485 c 0
 346 528 330 565 307 590 c 1
 189 590 l 1
189 590 m 0
EndSplineSet
Validated: 33
EndChar

StartChar: uniEA13
Encoding: 59923 59923 321
Width: 444
VWidth: 0
Flags: W
HStem: 0 88<151 250.663> 590 87<160.873 256>
LayerCount: 2
Fore
SplineSet
187 677 m 5
 426 677 l 5
 386 607 345 538 305 468 c 5
 269 378 l 5
 345 351 380 261 374 177 c 4
 368 93 324 10 224 0 c 5
 18 0 l 5
 141 306 l 5
 67 334 34 421 40 504 c 4
 46 587 89 667 187 677 c 5
256 590 m 5
 174 590 l 5
 152 566 136 530 136 488 c 4
 136 446 151 410 173 386 c 5
 174 386 l 5
 256 590 l 5
236 297 m 5
 151 88 l 5
 238 88 l 5
 260 113 276 150 276 193 c 4
 276 236 260 272 237 297 c 5
 236 297 l 5
236 297 m 4
EndSplineSet
Validated: 33
EndChar
